{"glyphs":{"0":{"ha":903,"x_min":119,"x_max":778,"o":"m 449 -15 q 326 10 385 -15 q 220 93 267 35 q 146 246 174 150 q 119 483 119 342 q 146 720 119 624 q 220 873 174 815 q 326 956 267 931 q 449 981 385 981 q 569 956 510 981 q 675 873 628 931 q 751 720 723 815 q 778 483 778 624 q 751 246 778 342 q 675 93 723 150 q 569 10 628 35 q 449 -15 510 -15 m 449 89 q 521 110 488 89 q 581 177 555 131 q 622 299 607 224 q 637 483 637 375 q 622 666 637 591 q 581 788 607 742 q 521 855 555 834 q 449 876 488 876 q 376 855 410 876 q 316 788 342 834 q 275 666 290 742 q 260 483 260 591 q 275 299 260 375 q 316 177 290 224 q 376 110 342 131 q 449 89 410 89 z "},"1":{"ha":903,"x_min":165,"x_max":744,"o":"m 165 0 l 165 106 l 385 106 l 385 846 l 168 787 l 168 906 l 404 972 l 523 972 l 523 106 l 744 106 l 744 0 l 165 0 z "},"2":{"ha":903,"x_min":111,"x_max":729,"o":"m 111 0 l 111 104 q 166 146 131 118 q 245 212 201 174 q 337 295 290 250 q 429 391 384 341 q 510 494 474 442 q 567 597 546 546 q 588 694 588 647 q 575 777 588 743 q 539 831 562 810 q 486 861 516 852 q 422 871 456 871 q 335 849 374 871 q 270 791 297 828 q 233 709 244 754 l 113 765 q 178 883 132 835 q 288 956 224 931 q 424 981 351 981 q 543 965 488 981 q 641 916 599 950 q 706 828 683 883 q 729 694 729 773 q 701 569 729 633 q 629 441 674 504 q 532 321 584 378 q 431 218 480 264 q 345 143 381 172 q 295 105 308 113 l 726 105 l 726 0 l 111 0 z "},"3":{"ha":903,"x_min":115,"x_max":779,"o":"m 443 -15 q 291 10 358 -15 q 179 78 224 35 q 115 177 135 122 l 236 240 q 276 166 249 199 q 346 114 304 133 q 444 95 388 95 q 545 119 500 95 q 617 192 590 144 q 644 310 644 240 q 629 401 644 363 q 589 463 615 439 q 532 498 564 487 q 465 510 500 510 q 428 506 447 510 q 391 496 409 502 q 356 483 372 490 l 276 567 l 579 867 l 159 867 l 159 972 l 745 972 l 745 867 l 444 577 q 485 590 458 585 q 536 595 512 595 q 621 579 578 595 q 700 528 664 563 q 757 440 735 494 q 779 311 779 386 q 753 169 779 231 q 681 67 727 108 q 574 6 635 26 q 443 -15 513 -15 z "},"4":{"ha":903,"x_min":102,"x_max":795,"o":"m 511 0 l 511 218 l 102 218 l 102 324 l 425 972 l 647 972 l 647 324 l 795 324 l 795 218 l 647 218 l 647 0 l 511 0 m 241 324 l 511 324 l 511 876 l 513 876 l 241 324 z "},"5":{"ha":903,"x_min":108,"x_max":756,"o":"m 423 -15 q 274 11 338 -15 q 169 82 210 38 q 108 176 127 126 l 227 236 q 260 174 236 206 q 324 118 283 141 q 425 95 365 95 q 528 122 483 95 q 597 200 572 149 q 622 326 622 251 q 596 441 622 394 q 527 512 569 488 q 436 536 485 536 q 351 521 390 536 q 284 477 312 506 q 242 410 256 449 l 181 447 q 217 530 191 493 q 283 593 244 567 q 370 633 322 619 q 470 647 418 647 q 610 613 544 647 q 716 508 675 578 q 756 328 756 437 q 730 178 756 242 q 657 71 703 114 q 551 6 611 28 q 423 -15 491 -15 m 242 410 l 126 449 l 191 972 l 703 972 l 703 867 l 299 867 l 242 410 z "},"6":{"ha":903,"x_min":91,"x_max":753,"o":"m 426 -15 q 294 12 355 -15 q 187 97 233 40 q 116 243 142 154 q 91 456 91 332 q 121 676 91 578 q 203 841 151 773 q 327 945 256 909 q 479 981 397 981 q 593 963 547 981 q 666 920 639 944 q 702 879 692 897 l 617 799 q 592 829 609 812 q 548 859 576 846 q 476 872 519 872 q 378 844 423 872 q 299 761 333 816 q 246 626 265 706 q 227 444 227 547 q 242 280 227 347 q 285 172 258 213 q 348 113 312 131 q 428 94 385 94 q 525 122 481 94 q 594 202 568 149 q 620 329 620 255 q 595 451 620 404 q 530 519 571 497 q 440 541 489 541 q 369 527 404 541 q 306 488 335 514 q 257 422 276 461 q 231 333 237 383 l 151 369 q 192 487 162 435 q 266 575 222 539 q 363 630 310 611 q 469 649 415 649 q 612 614 548 649 q 715 508 676 578 q 753 333 753 438 q 730 191 753 255 q 663 81 706 126 q 559 10 619 35 q 426 -15 499 -15 z "},"7":{"ha":903,"x_min":167,"x_max":763,"o":"m 369 0 q 383 197 369 94 q 422 400 397 299 q 477 592 446 501 q 545 753 509 682 q 619 867 582 824 l 167 867 l 167 972 l 763 972 l 763 867 q 683 741 720 815 q 614 581 645 668 q 561 396 583 493 q 526 198 538 299 q 514 0 514 98 l 369 0 z "},"8":{"ha":903,"x_min":114,"x_max":781,"o":"m 449 -15 q 280 16 356 -15 q 159 111 204 48 q 114 269 114 174 q 145 402 114 347 q 226 490 176 456 q 336 538 277 523 q 449 553 394 553 q 559 538 501 553 q 668 490 617 523 q 750 402 718 456 q 781 269 781 347 q 736 111 781 174 q 616 16 691 48 q 449 -15 540 -15 m 449 94 q 542 113 497 94 q 615 171 587 131 q 644 276 644 211 q 615 384 644 343 q 542 442 587 424 q 449 460 497 460 q 355 441 399 460 q 281 382 310 422 q 251 276 251 341 q 280 171 251 211 q 354 113 309 131 q 449 94 399 94 m 449 470 q 347 486 399 470 q 250 535 294 503 q 179 616 206 567 q 151 728 151 665 q 175 838 151 791 q 240 917 199 885 q 334 966 281 949 q 449 982 388 982 q 560 966 507 982 q 655 917 613 949 q 720 838 697 885 q 744 728 744 791 q 717 616 744 665 q 646 535 690 567 q 550 486 602 503 q 449 470 498 470 m 449 563 q 568 606 522 563 q 613 722 613 649 q 598 791 613 763 q 559 838 583 819 q 505 864 534 856 q 449 872 476 872 q 390 864 419 872 q 336 838 360 856 q 297 791 312 819 q 283 722 283 763 q 330 606 283 649 q 449 563 378 563 z "},"9":{"ha":903,"x_min":117,"x_max":780,"o":"m 392 -16 q 278 2 324 -16 q 205 45 232 21 q 169 86 178 69 l 254 167 q 278 137 262 154 q 324 106 295 119 q 395 93 352 93 q 493 121 448 93 q 572 204 538 149 q 625 339 606 259 q 644 522 644 419 q 628 684 644 618 q 586 792 613 751 q 523 852 559 834 q 443 871 486 871 q 346 843 390 871 q 277 764 303 816 q 251 636 251 711 q 275 515 251 562 q 341 446 300 468 q 431 424 383 424 q 501 438 467 424 q 566 479 536 452 q 615 545 595 506 q 642 635 635 585 l 719 597 q 679 478 709 531 q 605 390 649 426 q 508 335 560 354 q 402 316 456 316 q 259 351 324 316 q 156 457 194 387 q 117 632 117 528 q 141 775 117 710 q 208 885 165 839 q 311 956 251 931 q 444 981 372 981 q 577 953 516 981 q 684 868 638 926 q 755 722 729 811 q 780 510 780 633 q 750 290 780 387 q 667 124 720 192 q 544 20 615 56 q 392 -16 474 -16 z "},"A":{"ha":903,"x_min":83,"x_max":823,"o":"m 823 0 l 681 0 l 618 246 l 288 246 l 225 0 l 83 0 l 338 972 l 567 972 l 823 0 m 444 867 l 310 351 l 596 351 l 462 867 l 444 867 z "},"Á":{"ha":903,"x_min":83,"x_max":823,"o":"m 823 0 l 681 0 l 618 246 l 288 246 l 225 0 l 83 0 l 338 972 l 567 972 l 823 0 m 444 867 l 310 351 l 596 351 l 462 867 l 444 867 m 505 1061 l 375 1061 l 579 1258 l 731 1258 l 505 1061 z "},"Ă":{"ha":903,"x_min":83,"x_max":823,"o":"m 823 0 l 681 0 l 618 246 l 288 246 l 225 0 l 83 0 l 338 972 l 567 972 l 823 0 m 444 867 l 310 351 l 596 351 l 462 867 l 444 867 m 452 1063 q 343 1091 385 1063 q 281 1164 301 1120 q 260 1250 260 1207 l 361 1250 q 369 1202 361 1227 q 397 1158 377 1176 q 453 1140 417 1140 q 511 1158 491 1140 q 538 1202 531 1176 q 546 1250 546 1227 l 647 1250 q 626 1164 647 1207 q 563 1091 606 1120 q 452 1063 519 1063 z "},"Ắ":{"ha":903,"x_min":83,"x_max":823,"o":"m 823 0 l 681 0 l 618 246 l 288 246 l 225 0 l 83 0 l 338 972 l 567 972 l 823 0 m 444 867 l 310 351 l 596 351 l 462 867 l 444 867 m 452 1063 q 343 1091 385 1063 q 281 1164 301 1120 q 260 1250 260 1207 l 361 1250 q 369 1202 361 1227 q 397 1158 377 1176 q 453 1140 417 1140 q 511 1158 491 1140 q 538 1202 531 1176 q 546 1250 546 1227 l 647 1250 q 626 1164 647 1207 q 563 1091 606 1120 q 452 1063 519 1063 m 491 1288 l 361 1288 l 565 1485 l 717 1485 l 491 1288 z "},"Ặ":{"ha":903,"x_min":83,"x_max":823,"o":"m 823 0 l 681 0 l 618 246 l 288 246 l 225 0 l 83 0 l 338 972 l 567 972 l 823 0 m 444 867 l 310 351 l 596 351 l 462 867 l 444 867 m 381 -81 l 524 -81 l 524 -233 l 381 -233 l 381 -81 m 452 1063 q 343 1091 385 1063 q 281 1164 301 1120 q 260 1250 260 1207 l 361 1250 q 369 1202 361 1227 q 397 1158 377 1176 q 453 1140 417 1140 q 511 1158 491 1140 q 538 1202 531 1176 q 546 1250 546 1227 l 647 1250 q 626 1164 647 1207 q 563 1091 606 1120 q 452 1063 519 1063 z "},"Ằ":{"ha":903,"x_min":83,"x_max":823,"o":"m 823 0 l 681 0 l 618 246 l 288 246 l 225 0 l 83 0 l 338 972 l 567 972 l 823 0 m 444 867 l 310 351 l 596 351 l 462 867 l 444 867 m 452 1063 q 343 1091 385 1063 q 281 1164 301 1120 q 260 1250 260 1207 l 361 1250 q 369 1202 361 1227 q 397 1158 377 1176 q 453 1140 417 1140 q 511 1158 491 1140 q 538 1202 531 1176 q 546 1250 546 1227 l 647 1250 q 626 1164 647 1207 q 563 1091 606 1120 q 452 1063 519 1063 m 388 1338 l 161 1535 l 313 1535 l 517 1338 l 388 1338 z "},"Ẳ":{"ha":903,"x_min":83,"x_max":823,"o":"m 823 0 l 681 0 l 618 246 l 288 246 l 225 0 l 83 0 l 338 972 l 567 972 l 823 0 m 444 867 l 310 351 l 596 351 l 462 867 l 444 867 m 452 1063 q 343 1091 385 1063 q 281 1164 301 1120 q 260 1250 260 1207 l 361 1250 q 369 1202 361 1227 q 397 1158 377 1176 q 453 1140 417 1140 q 511 1158 491 1140 q 538 1202 531 1176 q 546 1250 546 1227 l 647 1250 q 626 1164 647 1207 q 563 1091 606 1120 q 452 1063 519 1063 m 410 1317 l 410 1419 q 488 1423 456 1419 q 539 1437 521 1428 q 557 1460 557 1446 q 536 1483 557 1476 q 475 1494 516 1491 q 372 1498 434 1498 l 372 1569 q 521 1560 457 1569 q 622 1530 585 1551 q 658 1468 658 1508 q 631 1409 658 1431 q 566 1377 603 1387 q 494 1368 528 1368 l 494 1317 l 410 1317 z "},"Ẵ":{"ha":903,"x_min":83,"x_max":823,"o":"m 823 0 l 681 0 l 618 246 l 288 246 l 225 0 l 83 0 l 338 972 l 567 972 l 823 0 m 444 867 l 310 351 l 596 351 l 462 867 l 444 867 m 452 1063 q 343 1091 385 1063 q 281 1164 301 1120 q 260 1250 260 1207 l 361 1250 q 369 1202 361 1227 q 397 1158 377 1176 q 453 1140 417 1140 q 511 1158 491 1140 q 538 1202 531 1176 q 546 1250 546 1227 l 647 1250 q 626 1164 647 1207 q 563 1091 606 1120 q 452 1063 519 1063 m 530 1331 q 476 1344 497 1331 q 438 1372 455 1358 q 409 1394 424 1384 q 375 1403 394 1403 q 321 1379 340 1403 q 295 1338 302 1355 l 234 1389 q 256 1427 238 1403 q 302 1470 273 1451 q 370 1490 331 1490 q 423 1476 402 1490 q 462 1449 444 1463 q 492 1426 477 1435 q 527 1416 507 1416 q 580 1441 560 1416 q 606 1482 599 1465 l 665 1431 q 645 1392 661 1416 q 601 1350 629 1369 q 530 1331 572 1331 z "},"Ǎ":{"ha":903,"x_min":83,"x_max":823,"o":"m 823 0 l 681 0 l 618 246 l 288 246 l 225 0 l 83 0 l 338 972 l 567 972 l 823 0 m 444 867 l 310 351 l 596 351 l 462 867 l 444 867 m 210 1250 l 333 1250 l 453 1130 l 572 1250 l 695 1250 l 499 1067 l 406 1067 l 210 1250 z "},"Â":{"ha":903,"x_min":83,"x_max":823,"o":"m 823 0 l 681 0 l 618 246 l 288 246 l 225 0 l 83 0 l 338 972 l 567 972 l 823 0 m 444 867 l 310 351 l 596 351 l 462 867 l 444 867 m 210 1063 l 406 1246 l 499 1246 l 695 1063 l 572 1063 l 453 1183 l 333 1063 l 210 1063 z "},"Ấ":{"ha":903,"x_min":83,"x_max":823,"o":"m 823 0 l 681 0 l 618 246 l 288 246 l 225 0 l 83 0 l 338 972 l 567 972 l 823 0 m 444 867 l 310 351 l 596 351 l 462 867 l 444 867 m 667 1204 l 688 1308 l 799 1384 l 785 1280 l 667 1204 m 210 1063 l 405 1246 l 499 1246 l 694 1063 l 571 1063 l 452 1183 l 333 1063 l 210 1063 z "},"Ậ":{"ha":903,"x_min":83,"x_max":823,"o":"m 823 0 l 681 0 l 618 246 l 288 246 l 225 0 l 83 0 l 338 972 l 567 972 l 823 0 m 444 867 l 310 351 l 596 351 l 462 867 l 444 867 m 381 -81 l 524 -81 l 524 -233 l 381 -233 l 381 -81 m 210 1063 l 406 1246 l 499 1246 l 695 1063 l 572 1063 l 453 1183 l 333 1063 l 210 1063 z "},"Ầ":{"ha":903,"x_min":83,"x_max":823,"o":"m 823 0 l 681 0 l 618 246 l 288 246 l 225 0 l 83 0 l 338 972 l 567 972 l 823 0 m 444 867 l 310 351 l 596 351 l 462 867 l 444 867 m 694 1204 l 577 1280 l 563 1384 l 674 1308 l 694 1204 m 185 1063 l 381 1246 l 474 1246 l 670 1063 l 547 1063 l 428 1183 l 308 1063 l 185 1063 z "},"Ẩ":{"ha":903,"x_min":83,"x_max":856,"o":"m 823 0 l 681 0 l 618 246 l 288 246 l 225 0 l 83 0 l 338 972 l 567 972 l 823 0 m 444 867 l 310 351 l 596 351 l 462 867 l 444 867 m 630 1201 l 630 1295 q 733 1308 703 1295 q 764 1342 764 1320 q 729 1374 764 1364 q 597 1384 694 1384 l 597 1452 q 734 1441 676 1452 q 824 1407 792 1431 q 856 1343 856 1383 q 840 1296 856 1315 q 800 1265 824 1276 q 750 1249 776 1254 q 703 1244 724 1244 l 703 1201 l 630 1201 m 212 1063 l 407 1246 l 501 1246 l 697 1063 l 573 1063 l 454 1183 l 335 1063 l 212 1063 z "},"Ẫ":{"ha":903,"x_min":83,"x_max":823,"o":"m 823 0 l 681 0 l 618 246 l 288 246 l 225 0 l 83 0 l 338 972 l 567 972 l 823 0 m 444 867 l 310 351 l 596 351 l 462 867 l 444 867 m 210 1063 l 406 1246 l 499 1246 l 695 1063 l 572 1063 l 453 1183 l 333 1063 l 210 1063 m 529 1328 q 476 1341 497 1328 q 438 1369 455 1354 q 408 1391 423 1381 q 374 1400 394 1400 q 321 1376 340 1400 q 294 1335 302 1352 l 233 1386 q 255 1424 238 1400 q 302 1467 272 1447 q 369 1486 331 1486 q 423 1473 401 1486 q 461 1446 444 1460 q 492 1423 477 1433 q 526 1413 507 1413 q 579 1438 560 1413 q 606 1479 599 1463 l 665 1427 q 644 1390 660 1413 q 600 1347 628 1366 q 529 1328 572 1328 z "},"Ȁ":{"ha":903,"x_min":83,"x_max":823,"o":"m 823 0 l 681 0 l 618 246 l 288 246 l 225 0 l 83 0 l 338 972 l 567 972 l 823 0 m 444 867 l 310 351 l 596 351 l 462 867 l 444 867 m 533 1045 l 340 1235 l 463 1235 l 627 1045 l 533 1045 m 298 1045 l 94 1235 l 219 1235 l 395 1045 l 298 1045 z "},"Ä":{"ha":903,"x_min":83,"x_max":823,"o":"m 823 0 l 681 0 l 618 246 l 288 246 l 225 0 l 83 0 l 338 972 l 567 972 l 823 0 m 444 867 l 310 351 l 596 351 l 462 867 l 444 867 m 220 1228 l 364 1228 l 364 1070 l 220 1070 l 220 1228 m 542 1228 l 685 1228 l 685 1070 l 542 1070 l 542 1228 z "},"Ạ":{"ha":903,"x_min":83,"x_max":823,"o":"m 823 0 l 681 0 l 618 246 l 288 246 l 225 0 l 83 0 l 338 972 l 567 972 l 823 0 m 444 867 l 310 351 l 596 351 l 462 867 l 444 867 m 381 -81 l 524 -81 l 524 -233 l 381 -233 l 381 -81 z "},"À":{"ha":903,"x_min":83,"x_max":823,"o":"m 823 0 l 681 0 l 618 246 l 288 246 l 225 0 l 83 0 l 338 972 l 567 972 l 823 0 m 444 867 l 310 351 l 596 351 l 462 867 l 444 867 m 388 1061 l 161 1258 l 313 1258 l 517 1061 l 388 1061 z "},"Ả":{"ha":903,"x_min":83,"x_max":823,"o":"m 823 0 l 681 0 l 618 246 l 288 246 l 225 0 l 83 0 l 338 972 l 567 972 l 823 0 m 444 867 l 310 351 l 596 351 l 462 867 l 444 867 m 410 1040 l 410 1142 q 488 1146 456 1142 q 539 1160 521 1151 q 557 1183 557 1169 q 536 1206 557 1199 q 475 1217 516 1214 q 372 1221 434 1221 l 372 1292 q 521 1283 457 1292 q 622 1252 585 1274 q 658 1191 658 1231 q 631 1132 658 1153 q 566 1100 603 1110 q 494 1091 528 1091 l 494 1040 l 410 1040 z "},"Ȃ":{"ha":903,"x_min":83,"x_max":823,"o":"m 823 0 l 681 0 l 618 246 l 288 246 l 225 0 l 83 0 l 338 972 l 567 972 l 823 0 m 444 867 l 310 351 l 596 351 l 462 867 l 444 867 m 454 1227 q 541 1210 505 1227 q 600 1166 577 1193 q 635 1108 624 1140 q 646 1048 646 1077 l 545 1048 q 537 1090 545 1067 q 509 1131 529 1113 q 453 1148 489 1148 q 395 1131 415 1148 q 368 1090 376 1113 q 360 1048 360 1067 l 260 1048 q 271 1108 260 1077 q 307 1166 283 1140 q 367 1210 331 1193 q 454 1227 403 1227 z "},"Ā":{"ha":903,"x_min":83,"x_max":823,"o":"m 823 0 l 681 0 l 618 246 l 288 246 l 225 0 l 83 0 l 338 972 l 567 972 l 823 0 m 444 867 l 310 351 l 596 351 l 462 867 l 444 867 m 235 1083 l 235 1167 l 671 1167 l 671 1083 l 235 1083 z "},"Ą":{"ha":903,"x_min":83,"x_max":901,"o":"m 823 0 l 681 0 l 618 246 l 288 246 l 225 0 l 83 0 l 338 972 l 567 972 l 823 0 m 444 867 l 310 351 l 596 351 l 462 867 l 444 867 m 901 -190 l 901 -280 q 849 -290 881 -286 q 785 -293 817 -293 q 708 -281 744 -293 q 650 -243 672 -269 q 628 -174 628 -217 q 643 -101 628 -135 q 680 -41 658 -67 q 724 0 702 -15 l 823 0 q 762 -67 790 -26 q 734 -145 734 -107 q 746 -180 734 -167 q 775 -198 758 -193 q 810 -203 793 -203 q 844 -202 826 -203 q 877 -197 861 -200 q 901 -190 892 -194 z "},"Å":{"ha":903,"x_min":83,"x_max":823,"o":"m 823 0 l 681 0 l 618 246 l 288 246 l 225 0 l 83 0 l 338 972 l 567 972 l 823 0 m 444 867 l 310 351 l 596 351 l 462 867 l 444 867 m 454 1031 q 387 1048 417 1031 q 338 1095 356 1065 q 319 1164 319 1126 q 338 1230 319 1200 q 387 1278 356 1260 q 454 1296 417 1296 q 520 1278 490 1296 q 568 1230 550 1260 q 586 1164 586 1200 q 568 1095 586 1126 q 520 1048 550 1065 q 454 1031 490 1031 m 454 1105 q 495 1121 478 1105 q 512 1165 512 1138 q 495 1204 512 1189 q 454 1219 478 1219 q 412 1204 429 1219 q 395 1165 395 1189 q 412 1121 395 1138 q 454 1105 429 1105 z "},"Ǻ":{"ha":903,"x_min":83,"x_max":823,"o":"m 823 0 l 681 0 l 618 246 l 288 246 l 225 0 l 83 0 l 338 972 l 567 972 l 823 0 m 444 867 l 310 351 l 596 351 l 462 867 l 444 867 m 455 1031 q 387 1049 417 1031 q 338 1097 356 1067 q 319 1165 319 1126 q 338 1231 319 1201 q 387 1278 356 1260 q 455 1297 417 1297 q 520 1278 490 1297 q 569 1231 551 1260 q 587 1165 587 1201 q 569 1097 587 1126 q 520 1049 551 1067 q 455 1031 490 1031 m 455 1106 q 495 1122 478 1106 q 512 1166 512 1139 q 495 1205 512 1190 q 455 1220 478 1220 q 412 1205 429 1220 q 395 1166 395 1190 q 412 1122 395 1139 q 455 1106 429 1106 m 513 1378 l 383 1378 l 587 1563 l 739 1563 l 513 1378 z "},"Ã":{"ha":903,"x_min":83,"x_max":823,"o":"m 823 0 l 681 0 l 618 246 l 288 246 l 225 0 l 83 0 l 338 972 l 567 972 l 823 0 m 444 867 l 310 351 l 596 351 l 462 867 l 444 867 m 529 1054 q 476 1067 497 1054 q 438 1095 455 1081 q 408 1117 423 1108 q 374 1126 394 1126 q 321 1102 340 1126 q 294 1061 302 1078 l 233 1112 q 255 1150 238 1126 q 302 1193 273 1174 q 370 1213 331 1213 q 423 1200 401 1213 q 462 1172 444 1187 q 492 1149 477 1158 q 526 1139 507 1139 q 579 1164 560 1139 q 606 1206 599 1189 l 665 1153 q 644 1116 660 1139 q 600 1073 628 1092 q 529 1054 572 1054 z "},"Æ":{"ha":1181,"x_min":88,"x_max":1059,"o":"m 580 0 l 580 867 l 461 867 l 485 972 l 1059 972 l 1059 867 l 717 867 l 717 531 l 1016 531 l 1016 425 l 717 425 l 717 106 l 1059 106 l 1059 0 l 580 0 m 285 202 l 309 302 l 630 302 l 615 202 l 285 202 m 88 0 l 442 972 l 574 972 l 235 0 l 88 0 z "},"Ǽ":{"ha":1181,"x_min":88,"x_max":1059,"o":"m 580 0 l 580 867 l 461 867 l 485 972 l 1059 972 l 1059 867 l 717 867 l 717 531 l 1016 531 l 1016 425 l 717 425 l 717 106 l 1059 106 l 1059 0 l 580 0 m 285 202 l 309 302 l 630 302 l 615 202 l 285 202 m 88 0 l 442 972 l 574 972 l 235 0 l 88 0 m 675 1053 l 545 1053 l 749 1239 l 901 1239 l 675 1053 z "},"B":{"ha":903,"x_min":154,"x_max":799,"o":"m 154 0 l 154 972 l 474 972 q 548 967 508 972 q 624 948 587 962 q 691 907 661 933 q 740 839 722 881 q 758 735 758 797 q 732 616 758 665 q 671 542 706 568 q 608 510 636 515 q 666 493 634 507 q 729 450 699 478 q 780 379 760 422 q 799 274 799 335 q 766 125 799 186 q 673 32 733 63 q 530 0 613 0 l 154 0 m 292 106 l 487 106 q 576 124 537 106 q 638 181 615 142 q 660 282 660 220 q 633 383 660 347 q 566 434 606 419 q 486 449 526 449 l 292 449 l 292 106 m 292 554 l 461 554 q 539 573 503 554 q 598 627 576 591 q 621 717 621 663 q 609 791 621 763 q 575 837 597 820 q 523 860 553 853 q 455 867 492 867 l 292 867 l 292 554 z "},"C":{"ha":903,"x_min":84,"x_max":808,"o":"m 486 -15 q 368 2 426 -15 q 259 56 310 19 q 168 151 208 92 q 106 292 128 210 q 84 483 84 374 q 107 675 84 592 q 169 815 130 757 q 261 910 209 874 q 371 964 313 947 q 489 981 430 981 q 598 964 548 981 q 688 918 647 948 q 758 849 728 889 q 808 761 788 809 l 686 701 q 658 761 675 731 q 618 816 642 791 q 562 857 594 842 q 489 873 530 873 q 393 851 440 873 q 309 782 347 828 q 248 661 271 735 q 226 483 226 588 q 248 305 226 379 q 308 184 270 231 q 392 115 345 137 q 485 92 438 92 q 559 108 527 92 q 616 150 592 124 q 658 204 640 175 q 686 261 675 233 l 808 199 q 759 115 789 154 q 688 47 728 76 q 597 1 647 17 q 486 -15 546 -15 z "},"Ć":{"ha":903,"x_min":84,"x_max":808,"o":"m 486 -15 q 368 2 426 -15 q 259 56 310 19 q 168 151 208 92 q 106 292 128 210 q 84 483 84 374 q 107 675 84 592 q 169 815 130 757 q 261 910 209 874 q 371 964 313 947 q 489 981 430 981 q 598 964 548 981 q 688 918 647 948 q 758 849 728 889 q 808 761 788 809 l 686 701 q 658 761 675 731 q 618 816 642 791 q 562 857 594 842 q 489 873 530 873 q 393 851 440 873 q 309 782 347 828 q 248 661 271 735 q 226 483 226 588 q 248 305 226 379 q 308 184 270 231 q 392 115 345 137 q 485 92 438 92 q 559 108 527 92 q 616 150 592 124 q 658 204 640 175 q 686 261 675 233 l 808 199 q 759 115 789 154 q 688 47 728 76 q 597 1 647 17 q 486 -15 546 -15 m 541 1061 l 411 1061 l 615 1258 l 767 1258 l 541 1061 z "},"Č":{"ha":903,"x_min":84,"x_max":808,"o":"m 486 -15 q 368 2 426 -15 q 259 56 310 19 q 168 151 208 92 q 106 292 128 210 q 84 483 84 374 q 107 675 84 592 q 169 815 130 757 q 261 910 209 874 q 371 964 313 947 q 489 981 430 981 q 598 964 548 981 q 688 918 647 948 q 758 849 728 889 q 808 761 788 809 l 686 701 q 658 761 675 731 q 618 816 642 791 q 562 857 594 842 q 489 873 530 873 q 393 851 440 873 q 309 782 347 828 q 248 661 271 735 q 226 483 226 588 q 248 305 226 379 q 308 184 270 231 q 392 115 345 137 q 485 92 438 92 q 559 108 527 92 q 616 150 592 124 q 658 204 640 175 q 686 261 675 233 l 808 199 q 759 115 789 154 q 688 47 728 76 q 597 1 647 17 q 486 -15 546 -15 m 247 1250 l 370 1250 l 490 1130 l 608 1250 l 732 1250 l 536 1067 l 442 1067 l 247 1250 z "},"Ç":{"ha":903,"x_min":84,"x_max":808,"o":"m 497 -283 q 456 -281 476 -283 q 417 -276 436 -279 q 381 -269 398 -273 q 350 -260 364 -265 l 382 -186 q 422 -199 403 -193 q 463 -207 442 -204 q 507 -210 483 -210 q 563 -202 539 -210 q 601 -178 588 -194 q 615 -144 615 -163 q 600 -112 615 -120 q 563 -105 585 -105 q 532 -110 549 -105 q 501 -122 515 -115 q 478 -138 487 -130 l 405 -119 l 447 0 l 533 0 l 493 -107 l 483 -93 q 509 -70 492 -81 q 549 -54 526 -60 q 597 -48 572 -48 q 649 -56 624 -48 q 689 -84 673 -65 q 704 -140 704 -104 q 677 -218 704 -186 q 604 -266 651 -250 q 497 -283 557 -283 m 486 -15 q 368 2 426 -15 q 259 56 310 19 q 168 151 208 92 q 106 292 128 210 q 84 483 84 374 q 107 675 84 592 q 169 815 130 757 q 261 910 209 874 q 371 964 313 947 q 489 981 430 981 q 598 964 548 981 q 688 918 647 948 q 758 849 728 889 q 808 761 788 809 l 686 701 q 658 761 675 731 q 618 816 642 791 q 562 857 594 842 q 489 873 530 873 q 393 851 440 873 q 309 782 347 828 q 248 661 271 735 q 226 483 226 588 q 248 305 226 379 q 308 184 270 231 q 392 115 345 137 q 485 92 438 92 q 559 108 527 92 q 616 150 592 124 q 658 204 640 175 q 686 261 675 233 l 808 199 q 759 115 789 154 q 688 47 728 76 q 597 1 647 17 q 486 -15 546 -15 z "},"Ḉ":{"ha":903,"x_min":84,"x_max":808,"o":"m 486 -15 q 368 2 426 -15 q 259 56 310 19 q 168 151 208 92 q 106 292 128 210 q 84 483 84 374 q 107 675 84 592 q 169 815 130 757 q 261 910 209 874 q 371 964 313 947 q 489 981 430 981 q 598 964 548 981 q 688 918 647 948 q 758 849 728 889 q 808 761 788 809 l 686 701 q 658 761 675 731 q 618 816 642 791 q 562 857 594 842 q 489 873 530 873 q 393 851 440 873 q 309 782 347 828 q 248 661 271 735 q 226 483 226 588 q 248 305 226 379 q 308 184 270 231 q 392 115 345 137 q 485 92 438 92 q 559 108 527 92 q 616 150 592 124 q 658 204 640 175 q 686 261 675 233 l 808 199 q 759 115 789 154 q 688 47 728 76 q 597 1 647 17 q 486 -15 546 -15 m 476 -283 q 428 -280 452 -283 q 381 -273 403 -278 q 339 -264 358 -269 l 372 -190 q 413 -201 392 -197 q 454 -207 433 -205 q 495 -210 475 -210 q 556 -202 528 -210 q 603 -178 585 -194 q 621 -144 621 -163 q 603 -112 621 -120 q 563 -105 585 -105 q 531 -110 549 -105 q 498 -122 514 -115 q 474 -138 483 -130 l 401 -119 l 447 0 l 534 0 l 490 -107 l 480 -93 q 506 -70 488 -81 q 548 -54 524 -60 q 598 -48 572 -48 q 651 -56 625 -48 q 693 -84 676 -65 q 710 -140 710 -104 q 691 -201 710 -174 q 639 -246 672 -228 q 564 -273 606 -264 q 476 -283 522 -283 m 549 1053 l 419 1053 l 624 1239 l 776 1239 l 549 1053 z "},"Ĉ":{"ha":903,"x_min":84,"x_max":808,"o":"m 486 -15 q 368 2 426 -15 q 259 56 310 19 q 168 151 208 92 q 106 292 128 210 q 84 483 84 374 q 107 675 84 592 q 169 815 130 757 q 261 910 209 874 q 371 964 313 947 q 489 981 430 981 q 598 964 548 981 q 688 918 647 948 q 758 849 728 889 q 808 761 788 809 l 686 701 q 658 761 675 731 q 618 816 642 791 q 562 857 594 842 q 489 873 530 873 q 393 851 440 873 q 309 782 347 828 q 248 661 271 735 q 226 483 226 588 q 248 305 226 379 q 308 184 270 231 q 392 115 345 137 q 485 92 438 92 q 559 108 527 92 q 616 150 592 124 q 658 204 640 175 q 686 261 675 233 l 808 199 q 759 115 789 154 q 688 47 728 76 q 597 1 647 17 q 486 -15 546 -15 m 247 1052 l 442 1212 l 536 1212 l 732 1052 l 603 1052 l 490 1149 l 376 1052 l 247 1052 z "},"Ċ":{"ha":903,"x_min":84,"x_max":808,"o":"m 486 -15 q 368 2 426 -15 q 259 56 310 19 q 168 151 208 92 q 106 292 128 210 q 84 483 84 374 q 107 675 84 592 q 169 815 130 757 q 261 910 209 874 q 371 964 313 947 q 489 981 430 981 q 598 964 548 981 q 688 918 647 948 q 758 849 728 889 q 808 761 788 809 l 686 701 q 658 761 675 731 q 618 816 642 791 q 562 857 594 842 q 489 873 530 873 q 393 851 440 873 q 309 782 347 828 q 248 661 271 735 q 226 483 226 588 q 248 305 226 379 q 308 184 270 231 q 392 115 345 137 q 485 92 438 92 q 559 108 527 92 q 616 150 592 124 q 658 204 640 175 q 686 261 675 233 l 808 199 q 759 115 789 154 q 688 47 728 76 q 597 1 647 17 q 486 -15 546 -15 m 417 1262 l 561 1262 l 561 1104 l 417 1104 l 417 1262 z "},"D":{"ha":903,"x_min":137,"x_max":806,"o":"m 137 0 l 137 972 l 390 972 q 489 964 440 972 q 585 936 538 956 q 671 881 631 916 q 741 792 711 845 q 789 663 772 738 q 806 486 806 588 q 789 310 806 385 q 741 181 772 234 q 671 92 711 127 q 585 36 631 56 q 489 8 538 16 q 390 0 440 0 l 137 0 m 274 106 l 380 106 q 490 124 439 106 q 581 185 541 142 q 642 301 620 228 q 664 486 664 375 q 642 671 664 597 q 581 788 620 744 q 490 849 541 831 q 380 867 439 867 l 274 867 l 274 106 z "},"Ǆ":{"ha":1181,"x_min":22,"x_max":1183,"o":"m 22 0 l 22 972 l 263 972 q 369 960 315 972 q 472 917 423 948 q 559 832 521 887 q 620 692 597 777 q 642 486 642 607 q 620 280 642 365 q 559 140 597 195 q 472 55 521 85 q 369 12 423 24 q 263 0 315 0 l 22 0 m 147 106 l 253 106 q 349 124 303 106 q 431 185 395 142 q 486 301 466 228 q 507 486 507 375 q 486 671 507 597 q 431 788 466 744 q 349 849 395 831 q 253 867 303 867 l 147 867 l 147 106 m 638 1 l 638 108 l 1040 868 l 649 868 l 649 974 l 1172 974 l 1172 868 l 769 108 l 1183 108 l 1183 1 l 638 1 m 672 1251 l 795 1251 l 915 1131 l 1033 1251 l 1156 1251 l 961 1068 l 867 1068 l 672 1251 z "},"Ð":{"ha":903,"x_min":31,"x_max":806,"o":"m 137 0 l 137 438 l 31 438 l 31 535 l 137 535 l 137 972 l 390 972 q 489 964 440 972 q 585 936 538 956 q 671 881 631 916 q 741 792 711 845 q 789 663 772 738 q 806 486 806 588 q 789 310 806 385 q 741 181 772 234 q 671 92 711 127 q 585 36 631 56 q 489 8 538 16 q 390 0 440 0 l 137 0 m 274 106 l 380 106 q 490 124 439 106 q 581 185 541 142 q 642 301 620 228 q 664 486 664 375 q 642 671 664 597 q 581 788 620 744 q 490 849 541 831 q 380 867 439 867 l 274 867 l 274 535 l 465 535 l 465 438 l 274 438 l 274 106 z "},"Ď":{"ha":903,"x_min":137,"x_max":806,"o":"m 137 0 l 137 972 l 390 972 q 489 964 440 972 q 585 936 538 956 q 671 881 631 916 q 741 792 711 845 q 789 663 772 738 q 806 486 806 588 q 789 310 806 385 q 741 181 772 234 q 671 92 711 127 q 585 36 631 56 q 489 8 538 16 q 390 0 440 0 l 137 0 m 274 106 l 380 106 q 490 124 439 106 q 581 185 541 142 q 642 301 620 228 q 664 486 664 375 q 642 671 664 597 q 581 788 620 744 q 490 849 541 831 q 380 867 439 867 l 274 867 l 274 106 m 172 1250 l 294 1250 l 414 1130 l 533 1250 l 656 1250 l 460 1067 l 367 1067 l 172 1250 z "},"Đ":{"ha":903,"x_min":31,"x_max":806,"o":"m 137 0 l 137 438 l 31 438 l 31 535 l 137 535 l 137 972 l 390 972 q 489 964 440 972 q 585 936 538 956 q 671 881 631 916 q 741 792 711 845 q 789 663 772 738 q 806 486 806 588 q 789 310 806 385 q 741 181 772 234 q 671 92 711 127 q 585 36 631 56 q 489 8 538 16 q 390 0 440 0 l 137 0 m 274 106 l 380 106 q 490 124 439 106 q 581 185 541 142 q 642 301 620 228 q 664 486 664 375 q 642 671 664 597 q 581 788 620 744 q 490 849 541 831 q 380 867 439 867 l 274 867 l 274 535 l 465 535 l 465 438 l 274 438 l 274 106 z "},"Ḍ":{"ha":903,"x_min":137,"x_max":806,"o":"m 137 0 l 137 972 l 390 972 q 489 964 440 972 q 585 936 538 956 q 671 881 631 916 q 741 792 711 845 q 789 663 772 738 q 806 486 806 588 q 789 310 806 385 q 741 181 772 234 q 671 92 711 127 q 585 36 631 56 q 489 8 538 16 q 390 0 440 0 l 137 0 m 274 106 l 380 106 q 490 124 439 106 q 581 185 541 142 q 642 301 620 228 q 664 486 664 375 q 642 671 664 597 q 581 788 620 744 q 490 849 541 831 q 380 867 439 867 l 274 867 l 274 106 m 342 -81 l 485 -81 l 485 -233 l 342 -233 l 342 -81 z "},"Ḏ":{"ha":903,"x_min":137,"x_max":806,"o":"m 137 0 l 137 972 l 390 972 q 489 964 440 972 q 585 936 538 956 q 671 881 631 916 q 741 792 711 845 q 789 663 772 738 q 806 486 806 588 q 789 310 806 385 q 741 181 772 234 q 671 92 711 127 q 585 36 631 56 q 489 8 538 16 q 390 0 440 0 l 137 0 m 274 106 l 380 106 q 490 124 439 106 q 581 185 541 142 q 642 301 620 228 q 664 486 664 375 q 642 671 664 597 q 581 788 620 744 q 490 849 541 831 q 380 867 439 867 l 274 867 l 274 106 m 196 -203 l 196 -118 l 632 -118 l 632 -203 l 196 -203 z "},"ǅ":{"ha":1181,"x_min":40,"x_max":1184,"o":"m 40 0 l 40 972 l 282 972 q 383 960 333 972 q 477 917 433 948 q 555 832 521 887 q 609 692 590 777 q 628 486 628 607 q 609 280 628 365 q 555 140 590 195 q 477 55 521 85 q 383 12 433 24 q 282 0 333 0 l 40 0 m 166 106 l 272 106 q 361 124 320 106 q 433 185 402 142 q 480 301 463 228 q 497 486 497 375 q 480 671 497 597 q 433 788 463 744 q 361 849 402 831 q 272 867 320 867 l 166 867 l 166 106 m 697 0 l 697 106 l 1022 589 l 708 589 l 708 694 l 1156 694 l 1156 589 l 832 106 l 1161 106 l 1161 0 l 697 0 m 699 972 l 823 972 l 942 852 l 1061 972 l 1184 972 l 989 789 l 895 789 l 699 972 z "},"E":{"ha":903,"x_min":162,"x_max":769,"o":"m 162 0 l 162 972 l 769 972 l 769 867 l 299 867 l 299 531 l 714 531 l 714 425 l 299 425 l 299 106 l 769 106 l 769 0 l 162 0 z "},"É":{"ha":903,"x_min":162,"x_max":769,"o":"m 162 0 l 162 972 l 769 972 l 769 867 l 299 867 l 299 531 l 714 531 l 714 425 l 299 425 l 299 106 l 769 106 l 769 0 l 162 0 m 532 1061 l 402 1061 l 606 1258 l 758 1258 l 532 1061 z "},"Ĕ":{"ha":903,"x_min":162,"x_max":769,"o":"m 162 0 l 162 972 l 769 972 l 769 867 l 299 867 l 299 531 l 714 531 l 714 425 l 299 425 l 299 106 l 769 106 l 769 0 l 162 0 m 479 1049 q 369 1072 412 1049 q 307 1132 327 1094 q 287 1213 287 1169 l 388 1213 q 396 1171 388 1191 q 425 1139 405 1151 q 481 1126 445 1126 q 536 1139 516 1126 q 565 1171 556 1151 q 573 1213 573 1191 l 673 1213 q 652 1132 673 1169 q 589 1072 632 1094 q 479 1049 546 1049 z "},"Ě":{"ha":903,"x_min":162,"x_max":769,"o":"m 162 0 l 162 972 l 769 972 l 769 867 l 299 867 l 299 531 l 714 531 l 714 425 l 299 425 l 299 106 l 769 106 l 769 0 l 162 0 m 238 1250 l 361 1250 l 481 1130 l 599 1250 l 723 1250 l 527 1067 l 433 1067 l 238 1250 z "},"Ḝ":{"ha":903,"x_min":162,"x_max":769,"o":"m 162 0 l 162 972 l 769 972 l 769 867 l 299 867 l 299 531 l 714 531 l 714 425 l 299 425 l 299 106 l 769 106 l 769 0 l 162 0 m 467 -283 q 419 -280 443 -283 q 372 -273 394 -278 q 330 -264 349 -269 l 363 -190 q 403 -201 383 -197 q 445 -207 424 -205 q 486 -210 466 -210 q 547 -202 519 -210 q 594 -178 576 -194 q 612 -144 612 -163 q 594 -112 612 -120 q 554 -105 576 -105 q 522 -110 540 -105 q 489 -122 505 -115 q 465 -138 474 -130 l 392 -119 l 438 0 l 525 0 l 481 -107 l 471 -93 q 497 -70 478 -81 q 539 -54 515 -60 q 589 -48 563 -48 q 642 -56 616 -48 q 684 -84 667 -65 q 701 -140 701 -104 q 682 -201 701 -174 q 630 -246 663 -228 q 555 -273 597 -264 q 467 -283 513 -283 m 479 1049 q 369 1072 412 1049 q 307 1132 327 1094 q 287 1213 287 1169 l 388 1213 q 396 1171 388 1191 q 425 1139 405 1151 q 481 1126 445 1126 q 536 1139 516 1126 q 565 1171 556 1151 q 573 1213 573 1191 l 673 1213 q 652 1132 673 1169 q 589 1072 632 1094 q 479 1049 546 1049 z "},"Ê":{"ha":903,"x_min":162,"x_max":769,"o":"m 162 0 l 162 972 l 769 972 l 769 867 l 299 867 l 299 531 l 714 531 l 714 425 l 299 425 l 299 106 l 769 106 l 769 0 l 162 0 m 238 1063 l 433 1246 l 527 1246 l 723 1063 l 599 1063 l 481 1183 l 361 1063 l 238 1063 z "},"Ế":{"ha":903,"x_min":162,"x_max":826,"o":"m 162 0 l 162 972 l 769 972 l 769 867 l 299 867 l 299 531 l 714 531 l 714 425 l 299 425 l 299 106 l 769 106 l 769 0 l 162 0 m 695 1204 l 715 1308 l 827 1384 l 813 1280 l 695 1204 m 238 1063 l 433 1246 l 526 1246 l 722 1063 l 599 1063 l 480 1183 l 360 1063 l 238 1063 z "},"Ệ":{"ha":903,"x_min":162,"x_max":769,"o":"m 162 0 l 162 972 l 769 972 l 769 867 l 299 867 l 299 531 l 714 531 l 714 425 l 299 425 l 299 106 l 769 106 l 769 0 l 162 0 m 408 -81 l 552 -81 l 552 -233 l 408 -233 l 408 -81 m 238 1063 l 433 1246 l 527 1246 l 723 1063 l 599 1063 l 481 1183 l 361 1063 l 238 1063 z "},"Ề":{"ha":903,"x_min":162,"x_max":769,"o":"m 162 0 l 162 972 l 769 972 l 769 867 l 299 867 l 299 531 l 714 531 l 714 425 l 299 425 l 299 106 l 769 106 l 769 0 l 162 0 m 722 1204 l 605 1280 l 590 1384 l 702 1308 l 722 1204 m 213 1063 l 408 1246 l 502 1246 l 698 1063 l 574 1063 l 456 1183 l 336 1063 l 213 1063 z "},"Ể":{"ha":903,"x_min":162,"x_max":883,"o":"m 162 0 l 162 972 l 769 972 l 769 867 l 299 867 l 299 531 l 714 531 l 714 425 l 299 425 l 299 106 l 769 106 l 769 0 l 162 0 m 657 1201 l 657 1295 q 760 1308 730 1295 q 791 1342 791 1320 q 756 1374 791 1364 q 624 1384 721 1384 l 624 1452 q 761 1441 703 1452 q 851 1407 819 1431 q 883 1343 883 1383 q 867 1296 883 1315 q 827 1265 851 1276 q 777 1249 803 1254 q 731 1244 751 1244 l 731 1201 l 657 1201 m 239 1063 l 434 1246 l 528 1246 l 724 1063 l 600 1063 l 481 1183 l 362 1063 l 239 1063 z "},"Ễ":{"ha":903,"x_min":162,"x_max":769,"o":"m 162 0 l 162 972 l 769 972 l 769 867 l 299 867 l 299 531 l 714 531 l 714 425 l 299 425 l 299 106 l 769 106 l 769 0 l 162 0 m 238 1063 l 433 1246 l 527 1246 l 723 1063 l 599 1063 l 481 1183 l 361 1063 l 238 1063 m 557 1328 q 503 1341 524 1328 q 465 1369 483 1354 q 436 1391 451 1381 q 402 1400 422 1400 q 349 1376 368 1400 q 322 1335 330 1352 l 261 1386 q 283 1424 265 1400 q 330 1467 300 1447 q 397 1486 359 1486 q 451 1473 429 1486 q 489 1446 472 1460 q 520 1423 505 1433 q 554 1413 535 1413 q 607 1438 588 1413 q 633 1479 626 1463 l 692 1427 q 672 1390 688 1413 q 628 1347 656 1366 q 557 1328 599 1328 z "},"Ȅ":{"ha":903,"x_min":121,"x_max":769,"o":"m 162 0 l 162 972 l 769 972 l 769 867 l 299 867 l 299 531 l 714 531 l 714 425 l 299 425 l 299 106 l 769 106 l 769 0 l 162 0 m 560 1045 l 367 1235 l 490 1235 l 654 1045 l 560 1045 m 325 1045 l 121 1235 l 246 1235 l 422 1045 l 325 1045 z "},"Ë":{"ha":903,"x_min":162,"x_max":769,"o":"m 162 0 l 162 972 l 769 972 l 769 867 l 299 867 l 299 531 l 714 531 l 714 425 l 299 425 l 299 106 l 769 106 l 769 0 l 162 0 m 247 1228 l 391 1228 l 391 1070 l 247 1070 l 247 1228 m 569 1228 l 713 1228 l 713 1070 l 569 1070 l 569 1228 z "},"Ė":{"ha":903,"x_min":162,"x_max":769,"o":"m 162 0 l 162 972 l 769 972 l 769 867 l 299 867 l 299 531 l 714 531 l 714 425 l 299 425 l 299 106 l 769 106 l 769 0 l 162 0 m 408 1262 l 552 1262 l 552 1104 l 408 1104 l 408 1262 z "},"Ẹ":{"ha":903,"x_min":162,"x_max":769,"o":"m 162 0 l 162 972 l 769 972 l 769 867 l 299 867 l 299 531 l 714 531 l 714 425 l 299 425 l 299 106 l 769 106 l 769 0 l 162 0 m 408 -81 l 552 -81 l 552 -233 l 408 -233 l 408 -81 z "},"È":{"ha":903,"x_min":162,"x_max":769,"o":"m 162 0 l 162 972 l 769 972 l 769 867 l 299 867 l 299 531 l 714 531 l 714 425 l 299 425 l 299 106 l 769 106 l 769 0 l 162 0 m 415 1061 l 188 1258 l 340 1258 l 544 1061 l 415 1061 z "},"Ẻ":{"ha":903,"x_min":162,"x_max":769,"o":"m 162 0 l 162 972 l 769 972 l 769 867 l 299 867 l 299 531 l 714 531 l 714 425 l 299 425 l 299 106 l 769 106 l 769 0 l 162 0 m 438 1040 l 438 1142 q 516 1146 483 1142 q 567 1160 549 1151 q 585 1183 585 1169 q 564 1206 585 1199 q 503 1217 544 1214 q 400 1221 462 1221 l 400 1292 q 549 1283 485 1292 q 649 1252 613 1274 q 685 1191 685 1231 q 658 1132 685 1153 q 593 1100 631 1110 q 522 1091 556 1091 l 522 1040 l 438 1040 z "},"Ȇ":{"ha":903,"x_min":162,"x_max":769,"o":"m 162 0 l 162 972 l 769 972 l 769 867 l 299 867 l 299 531 l 714 531 l 714 425 l 299 425 l 299 106 l 769 106 l 769 0 l 162 0 m 481 1227 q 568 1210 532 1227 q 627 1166 604 1193 q 662 1108 651 1140 q 673 1048 673 1077 l 572 1048 q 564 1090 572 1067 q 536 1131 556 1113 q 480 1148 516 1148 q 423 1131 442 1148 q 395 1090 403 1113 q 388 1048 388 1067 l 287 1048 q 298 1108 287 1077 q 334 1166 310 1140 q 394 1210 358 1193 q 481 1227 431 1227 z "},"Ē":{"ha":903,"x_min":162,"x_max":769,"o":"m 162 0 l 162 972 l 769 972 l 769 867 l 299 867 l 299 531 l 714 531 l 714 425 l 299 425 l 299 106 l 769 106 l 769 0 l 162 0 m 263 1083 l 263 1167 l 699 1167 l 699 1083 l 263 1083 z "},"Ḗ":{"ha":903,"x_min":162,"x_max":769,"o":"m 162 0 l 162 972 l 769 972 l 769 867 l 299 867 l 299 531 l 714 531 l 714 425 l 299 425 l 299 106 l 769 106 l 769 0 l 162 0 m 262 1050 l 262 1135 l 698 1135 l 698 1050 l 262 1050 m 540 1217 l 410 1217 l 615 1402 l 767 1402 l 540 1217 z "},"Ḕ":{"ha":903,"x_min":162,"x_max":769,"o":"m 162 0 l 162 972 l 769 972 l 769 867 l 299 867 l 299 531 l 714 531 l 714 425 l 299 425 l 299 106 l 769 106 l 769 0 l 162 0 m 262 1050 l 262 1135 l 698 1135 l 698 1050 l 262 1050 m 423 1216 l 196 1401 l 348 1401 l 552 1216 l 423 1216 z "},"Ę":{"ha":903,"x_min":162,"x_max":847,"o":"m 162 0 l 162 972 l 769 972 l 769 867 l 299 867 l 299 531 l 714 531 l 714 425 l 299 425 l 299 106 l 769 106 l 769 0 l 162 0 m 847 -190 l 847 -280 q 795 -290 826 -286 q 731 -293 763 -293 q 654 -281 690 -293 q 596 -243 618 -269 q 574 -174 574 -217 q 589 -101 574 -135 q 626 -41 603 -67 q 670 0 648 -15 l 769 0 q 708 -67 736 -26 q 680 -145 680 -107 q 692 -180 680 -167 q 721 -198 703 -193 q 756 -203 739 -203 q 790 -202 772 -203 q 823 -197 807 -200 q 847 -190 838 -194 z "},"Ẽ":{"ha":903,"x_min":162,"x_max":769,"o":"m 162 0 l 162 972 l 769 972 l 769 867 l 299 867 l 299 531 l 714 531 l 714 425 l 299 425 l 299 106 l 769 106 l 769 0 l 162 0 m 557 1054 q 503 1067 524 1054 q 465 1095 483 1081 q 436 1117 451 1108 q 402 1126 422 1126 q 349 1102 368 1126 q 322 1061 330 1078 l 261 1112 q 283 1150 265 1126 q 330 1193 301 1174 q 398 1213 359 1213 q 451 1200 429 1213 q 490 1172 472 1187 q 520 1149 505 1158 q 554 1139 535 1139 q 607 1164 588 1139 q 633 1206 626 1189 l 692 1153 q 672 1116 688 1139 q 628 1073 656 1092 q 557 1054 599 1054 z "},"F":{"ha":903,"x_min":194,"x_max":767,"o":"m 194 0 l 194 972 l 767 972 l 767 867 l 331 867 l 331 480 l 702 480 l 702 374 l 331 374 l 331 0 l 194 0 z "},"G":{"ha":903,"x_min":81,"x_max":830,"o":"m 480 -15 q 369 1 426 -15 q 262 52 313 17 q 169 145 210 88 q 105 287 128 203 q 81 483 81 370 q 105 677 81 594 q 168 818 128 760 q 259 912 208 876 q 366 964 310 948 q 478 981 423 981 q 598 965 543 981 q 694 920 652 949 q 764 855 736 892 q 803 773 792 817 l 674 719 q 651 777 667 749 q 610 826 635 804 q 552 860 585 847 q 476 873 518 873 q 401 859 438 873 q 332 816 365 845 q 274 740 299 786 q 234 631 249 694 q 220 483 220 567 q 243 303 220 378 q 304 182 266 229 q 388 114 342 135 q 481 92 435 92 q 567 110 527 92 q 636 164 606 127 q 682 257 665 200 q 698 392 698 313 l 472 392 l 472 500 l 830 500 l 830 424 q 811 257 830 329 q 759 133 792 184 q 681 48 726 81 q 586 0 637 15 q 480 -15 535 -15 z "},"Ğ":{"ha":903,"x_min":81,"x_max":830,"o":"m 480 -15 q 369 1 426 -15 q 262 52 313 17 q 169 145 210 88 q 105 287 128 203 q 81 483 81 370 q 105 677 81 594 q 168 818 128 760 q 259 912 208 876 q 366 964 310 948 q 478 981 423 981 q 598 965 543 981 q 694 920 652 949 q 764 855 736 892 q 803 773 792 817 l 674 719 q 651 777 667 749 q 610 826 635 804 q 552 860 585 847 q 476 873 518 873 q 401 859 438 873 q 332 816 365 845 q 274 740 299 786 q 234 631 249 694 q 220 483 220 567 q 243 303 220 378 q 304 182 266 229 q 388 114 342 135 q 481 92 435 92 q 567 110 527 92 q 636 164 606 127 q 682 257 665 200 q 698 392 698 313 l 472 392 l 472 500 l 830 500 l 830 424 q 811 257 830 329 q 759 133 792 184 q 681 48 726 81 q 586 0 637 15 q 480 -15 535 -15 m 469 1049 q 360 1072 402 1049 q 297 1132 317 1094 q 277 1213 277 1169 l 378 1213 q 386 1171 378 1191 q 415 1139 395 1151 q 471 1126 435 1126 q 526 1139 506 1126 q 555 1171 547 1151 q 563 1213 563 1191 l 663 1213 q 643 1132 663 1169 q 579 1072 622 1094 q 469 1049 536 1049 z "},"Ǧ":{"ha":903,"x_min":81,"x_max":830,"o":"m 480 -15 q 369 1 426 -15 q 262 52 313 17 q 169 145 210 88 q 105 287 128 203 q 81 483 81 370 q 105 677 81 594 q 168 818 128 760 q 259 912 208 876 q 366 964 310 948 q 478 981 423 981 q 598 965 543 981 q 694 920 652 949 q 764 855 736 892 q 803 773 792 817 l 674 719 q 651 777 667 749 q 610 826 635 804 q 552 860 585 847 q 476 873 518 873 q 401 859 438 873 q 332 816 365 845 q 274 740 299 786 q 234 631 249 694 q 220 483 220 567 q 243 303 220 378 q 304 182 266 229 q 388 114 342 135 q 481 92 435 92 q 567 110 527 92 q 636 164 606 127 q 682 257 665 200 q 698 392 698 313 l 472 392 l 472 500 l 830 500 l 830 424 q 811 257 830 329 q 759 133 792 184 q 681 48 726 81 q 586 0 637 15 q 480 -15 535 -15 m 228 1205 l 360 1205 l 470 1109 l 580 1205 l 713 1205 l 517 1045 l 423 1045 l 228 1205 z "},"Ĝ":{"ha":903,"x_min":81,"x_max":830,"o":"m 480 -15 q 369 1 426 -15 q 262 52 313 17 q 169 145 210 88 q 105 287 128 203 q 81 483 81 370 q 105 677 81 594 q 168 818 128 760 q 259 912 208 876 q 366 964 310 948 q 478 981 423 981 q 598 965 543 981 q 694 920 652 949 q 764 855 736 892 q 803 773 792 817 l 674 719 q 651 777 667 749 q 610 826 635 804 q 552 860 585 847 q 476 873 518 873 q 401 859 438 873 q 332 816 365 845 q 274 740 299 786 q 234 631 249 694 q 220 483 220 567 q 243 303 220 378 q 304 182 266 229 q 388 114 342 135 q 481 92 435 92 q 567 110 527 92 q 636 164 606 127 q 682 257 665 200 q 698 392 698 313 l 472 392 l 472 500 l 830 500 l 830 424 q 811 257 830 329 q 759 133 792 184 q 681 48 726 81 q 586 0 637 15 q 480 -15 535 -15 m 228 1052 l 423 1212 l 517 1212 l 713 1052 l 583 1052 l 470 1149 l 357 1052 l 228 1052 z "},"Ģ":{"ha":903,"x_min":81,"x_max":830,"o":"m 480 -15 q 369 1 426 -15 q 262 52 313 17 q 169 145 210 88 q 105 287 128 203 q 81 483 81 370 q 105 677 81 594 q 168 818 128 760 q 259 912 208 876 q 366 964 310 948 q 478 981 423 981 q 598 965 543 981 q 694 920 652 949 q 764 855 736 892 q 803 773 792 817 l 674 719 q 651 777 667 749 q 610 826 635 804 q 552 860 585 847 q 476 873 518 873 q 401 859 438 873 q 332 816 365 845 q 274 740 299 786 q 234 631 249 694 q 220 483 220 567 q 243 303 220 378 q 304 182 266 229 q 388 114 342 135 q 481 92 435 92 q 567 110 527 92 q 636 164 606 127 q 682 257 665 200 q 698 392 698 313 l 472 392 l 472 500 l 830 500 l 830 424 q 811 257 830 329 q 759 133 792 184 q 681 48 726 81 q 586 0 637 15 q 480 -15 535 -15 m 434 -365 l 400 -297 q 431 -284 415 -293 q 459 -257 447 -276 q 470 -207 470 -238 l 551 -210 q 530 -292 551 -260 q 481 -342 509 -324 q 434 -365 453 -359 m 412 -210 l 412 -72 l 551 -72 l 551 -210 l 412 -210 z "},"Ġ":{"ha":903,"x_min":81,"x_max":830,"o":"m 413 1262 l 556 1262 l 556 1104 l 413 1104 l 413 1262 m 480 -15 q 369 1 426 -15 q 262 52 313 17 q 169 145 210 88 q 105 287 128 203 q 81 483 81 370 q 105 677 81 594 q 168 818 128 760 q 259 912 208 876 q 366 964 310 948 q 478 981 423 981 q 598 965 543 981 q 694 920 652 949 q 764 855 736 892 q 803 773 792 817 l 674 719 q 651 777 667 749 q 610 826 635 804 q 552 860 585 847 q 476 873 518 873 q 401 859 438 873 q 332 816 365 845 q 274 740 299 786 q 234 631 249 694 q 220 483 220 567 q 243 303 220 378 q 304 182 266 229 q 388 114 342 135 q 481 92 435 92 q 567 110 527 92 q 636 164 606 127 q 682 257 665 200 q 698 392 698 313 l 472 392 l 472 500 l 830 500 l 830 424 q 811 257 830 329 q 759 133 792 184 q 681 48 726 81 q 586 0 637 15 q 480 -15 535 -15 z "},"Ḡ":{"ha":903,"x_min":81,"x_max":830,"o":"m 480 -15 q 369 1 426 -15 q 262 52 313 17 q 169 145 210 88 q 105 287 128 203 q 81 483 81 370 q 105 677 81 594 q 168 818 128 760 q 259 912 208 876 q 366 964 310 948 q 478 981 423 981 q 598 965 543 981 q 694 920 652 949 q 764 855 736 892 q 803 773 792 817 l 674 719 q 651 777 667 749 q 610 826 635 804 q 552 860 585 847 q 476 873 518 873 q 401 859 438 873 q 332 816 365 845 q 274 740 299 786 q 234 631 249 694 q 220 483 220 567 q 243 303 220 378 q 304 182 266 229 q 388 114 342 135 q 481 92 435 92 q 567 110 527 92 q 636 164 606 127 q 682 257 665 200 q 698 392 698 313 l 472 392 l 472 500 l 830 500 l 830 424 q 811 257 830 329 q 759 133 792 184 q 681 48 726 81 q 586 0 637 15 q 480 -15 535 -15 m 252 1050 l 252 1135 l 688 1135 l 688 1050 l 252 1050 z "},"H":{"ha":903,"x_min":120,"x_max":781,"o":"m 120 0 l 120 972 l 258 972 l 258 558 l 643 558 l 643 972 l 781 972 l 781 0 l 643 0 l 643 453 l 258 453 l 258 0 l 120 0 z "},"Ħ":{"ha":903,"x_min":78,"x_max":824,"o":"m 78 715 l 78 810 l 824 810 l 824 715 l 78 715 m 120 0 l 120 972 l 258 972 l 258 558 l 643 558 l 643 972 l 781 972 l 781 0 l 643 0 l 643 453 l 258 453 l 258 0 l 120 0 z "},"Ḫ":{"ha":903,"x_min":120,"x_max":781,"o":"m 120 0 l 120 972 l 258 972 l 258 558 l 643 558 l 643 972 l 781 972 l 781 0 l 643 0 l 643 453 l 258 453 l 258 0 l 120 0 m 442 -262 q 332 -233 374 -262 q 269 -160 290 -203 q 249 -74 249 -117 l 350 -74 q 358 -122 350 -97 q 386 -165 366 -147 q 443 -183 406 -183 q 500 -165 480 -183 q 527 -122 519 -147 q 535 -74 535 -97 l 635 -74 q 615 -160 635 -117 q 551 -233 594 -203 q 442 -262 508 -262 z "},"Ĥ":{"ha":903,"x_min":120,"x_max":781,"o":"m 120 0 l 120 972 l 258 972 l 258 558 l 643 558 l 643 972 l 781 972 l 781 0 l 643 0 l 643 453 l 258 453 l 258 0 l 120 0 m 201 1052 l 396 1212 l 490 1212 l 685 1052 l 556 1052 l 443 1149 l 330 1052 l 201 1052 z "},"Ḥ":{"ha":903,"x_min":120,"x_max":781,"o":"m 120 0 l 120 972 l 258 972 l 258 558 l 643 558 l 643 972 l 781 972 l 781 0 l 643 0 l 643 453 l 258 453 l 258 0 l 120 0 m 371 -81 l 515 -81 l 515 -233 l 371 -233 l 371 -81 z "},"I":{"ha":903,"x_min":181,"x_max":722,"o":"m 181 0 l 181 106 l 382 106 l 382 867 l 181 867 l 181 972 l 722 972 l 722 867 l 519 867 l 519 106 l 722 106 l 722 0 l 181 0 z "},"Í":{"ha":903,"x_min":181,"x_max":731,"o":"m 181 0 l 181 106 l 382 106 l 382 867 l 181 867 l 181 972 l 722 972 l 722 867 l 519 867 l 519 106 l 722 106 l 722 0 l 181 0 m 505 1061 l 375 1061 l 579 1258 l 731 1258 l 505 1061 z "},"Ĭ":{"ha":903,"x_min":181,"x_max":722,"o":"m 181 0 l 181 106 l 382 106 l 382 867 l 181 867 l 181 972 l 722 972 l 722 867 l 519 867 l 519 106 l 722 106 l 722 0 l 181 0 m 452 1049 q 342 1072 385 1049 q 280 1132 300 1094 q 260 1213 260 1169 l 360 1213 q 369 1171 360 1191 q 398 1139 378 1151 q 453 1126 418 1126 q 509 1139 489 1126 q 538 1171 529 1151 q 546 1213 546 1191 l 646 1213 q 625 1132 646 1169 q 562 1072 605 1094 q 452 1049 519 1049 z "},"Ǐ":{"ha":903,"x_min":181,"x_max":722,"o":"m 181 0 l 181 106 l 382 106 l 382 867 l 181 867 l 181 972 l 722 972 l 722 867 l 519 867 l 519 106 l 722 106 l 722 0 l 181 0 m 210 1250 l 333 1250 l 453 1130 l 572 1250 l 695 1250 l 499 1067 l 406 1067 l 210 1250 z "},"Î":{"ha":903,"x_min":181,"x_max":722,"o":"m 181 0 l 181 106 l 382 106 l 382 867 l 181 867 l 181 972 l 722 972 l 722 867 l 519 867 l 519 106 l 722 106 l 722 0 l 181 0 m 210 1063 l 406 1246 l 499 1246 l 695 1063 l 572 1063 l 453 1183 l 333 1063 l 210 1063 z "},"Ȉ":{"ha":903,"x_min":94,"x_max":722,"o":"m 181 0 l 181 106 l 382 106 l 382 867 l 181 867 l 181 972 l 722 972 l 722 867 l 519 867 l 519 106 l 722 106 l 722 0 l 181 0 m 533 1045 l 340 1235 l 463 1235 l 627 1045 l 533 1045 m 298 1045 l 94 1235 l 219 1235 l 395 1045 l 298 1045 z "},"Ï":{"ha":903,"x_min":181,"x_max":722,"o":"m 181 0 l 181 106 l 382 106 l 382 867 l 181 867 l 181 972 l 722 972 l 722 867 l 519 867 l 519 106 l 722 106 l 722 0 l 181 0 m 220 1228 l 364 1228 l 364 1070 l 220 1070 l 220 1228 m 542 1228 l 685 1228 l 685 1070 l 542 1070 l 542 1228 z "},"Ḯ":{"ha":903,"x_min":181,"x_max":739,"o":"m 181 0 l 181 106 l 382 106 l 382 867 l 181 867 l 181 972 l 722 972 l 722 867 l 519 867 l 519 106 l 722 106 l 722 0 l 181 0 m 229 1213 l 367 1213 l 367 1062 l 229 1062 l 229 1213 m 537 1213 l 675 1213 l 675 1062 l 537 1062 l 537 1213 m 513 1294 l 383 1294 l 587 1480 l 739 1480 l 513 1294 z "},"İ":{"ha":903,"x_min":181,"x_max":722,"o":"m 181 0 l 181 106 l 382 106 l 382 867 l 181 867 l 181 972 l 722 972 l 722 867 l 519 867 l 519 106 l 722 106 l 722 0 l 181 0 m 381 1262 l 524 1262 l 524 1104 l 381 1104 l 381 1262 z "},"Ị":{"ha":903,"x_min":181,"x_max":722,"o":"m 181 0 l 181 106 l 382 106 l 382 867 l 181 867 l 181 972 l 722 972 l 722 867 l 519 867 l 519 106 l 722 106 l 722 0 l 181 0 m 381 -81 l 524 -81 l 524 -233 l 381 -233 l 381 -81 z "},"Ì":{"ha":903,"x_min":161,"x_max":722,"o":"m 181 0 l 181 106 l 382 106 l 382 867 l 181 867 l 181 972 l 722 972 l 722 867 l 519 867 l 519 106 l 722 106 l 722 0 l 181 0 m 388 1061 l 161 1258 l 313 1258 l 517 1061 l 388 1061 z "},"Ỉ":{"ha":903,"x_min":181,"x_max":722,"o":"m 181 0 l 181 106 l 382 106 l 382 867 l 181 867 l 181 972 l 722 972 l 722 867 l 519 867 l 519 106 l 722 106 l 722 0 l 181 0 m 410 1040 l 410 1142 q 488 1146 456 1142 q 539 1160 521 1151 q 557 1183 557 1169 q 536 1206 557 1199 q 475 1217 516 1214 q 372 1221 434 1221 l 372 1292 q 521 1283 457 1292 q 622 1252 585 1274 q 658 1191 658 1231 q 631 1132 658 1153 q 566 1100 603 1110 q 494 1091 528 1091 l 494 1040 l 410 1040 z "},"Ȋ":{"ha":903,"x_min":181,"x_max":722,"o":"m 181 0 l 181 106 l 382 106 l 382 867 l 181 867 l 181 972 l 722 972 l 722 867 l 519 867 l 519 106 l 722 106 l 722 0 l 181 0 m 454 1227 q 541 1210 505 1227 q 600 1166 577 1193 q 635 1108 624 1140 q 646 1048 646 1077 l 545 1048 q 537 1090 545 1067 q 509 1131 529 1113 q 453 1148 489 1148 q 395 1131 415 1148 q 368 1090 376 1113 q 360 1048 360 1067 l 260 1048 q 271 1108 260 1077 q 307 1166 283 1140 q 367 1210 331 1193 q 454 1227 403 1227 z "},"Ī":{"ha":903,"x_min":181,"x_max":722,"o":"m 181 0 l 181 106 l 382 106 l 382 867 l 181 867 l 181 972 l 722 972 l 722 867 l 519 867 l 519 106 l 722 106 l 722 0 l 181 0 m 235 1083 l 235 1167 l 671 1167 l 671 1083 l 235 1083 z "},"Į":{"ha":903,"x_min":181,"x_max":799,"o":"m 181 0 l 181 106 l 382 106 l 382 867 l 181 867 l 181 972 l 722 972 l 722 867 l 519 867 l 519 106 l 722 106 l 722 0 l 181 0 m 799 -190 l 799 -280 q 747 -290 778 -286 q 683 -293 715 -293 q 606 -281 642 -293 q 548 -243 570 -269 q 526 -174 526 -217 q 541 -101 526 -135 q 578 -41 556 -67 q 622 0 600 -15 l 721 0 q 660 -67 688 -26 q 632 -145 632 -107 q 644 -180 632 -167 q 673 -198 656 -193 q 708 -203 691 -203 q 742 -202 724 -203 q 775 -197 759 -200 q 799 -190 790 -194 z "},"Ĩ":{"ha":903,"x_min":181,"x_max":722,"o":"m 181 0 l 181 106 l 382 106 l 382 867 l 181 867 l 181 972 l 722 972 l 722 867 l 519 867 l 519 106 l 722 106 l 722 0 l 181 0 m 529 1054 q 476 1067 497 1054 q 438 1095 455 1081 q 408 1117 423 1108 q 374 1126 394 1126 q 321 1102 340 1126 q 294 1061 302 1078 l 233 1112 q 255 1150 238 1126 q 302 1193 273 1174 q 370 1213 331 1213 q 423 1200 401 1213 q 462 1172 444 1187 q 492 1149 477 1158 q 526 1139 507 1139 q 579 1164 560 1139 q 606 1206 599 1189 l 665 1153 q 644 1116 660 1139 q 600 1073 628 1092 q 529 1054 572 1054 z "},"J":{"ha":903,"x_min":102,"x_max":735,"o":"m 419 -15 q 293 7 351 -15 q 192 76 235 28 q 126 201 149 124 q 102 388 102 278 l 240 388 q 261 223 240 288 q 322 127 282 158 q 419 95 362 95 q 517 127 477 95 q 577 223 557 158 q 597 388 597 288 l 597 867 l 219 867 l 219 972 l 735 972 l 735 376 q 711 196 735 270 q 646 75 688 122 q 546 6 603 28 q 419 -15 488 -15 z "},"Ĵ":{"ha":903,"x_min":102,"x_max":744,"o":"m 419 -15 q 293 7 351 -15 q 192 76 235 28 q 126 201 149 124 q 102 388 102 278 l 240 388 q 261 223 240 288 q 322 127 282 158 q 419 95 362 95 q 517 127 477 95 q 577 223 557 158 q 597 388 597 288 l 597 867 l 219 867 l 219 972 l 735 972 l 735 376 q 711 196 735 270 q 646 75 688 122 q 546 6 603 28 q 419 -15 488 -15 m 260 1052 l 455 1212 l 549 1212 l 744 1052 l 615 1052 l 502 1149 l 389 1052 l 260 1052 z "},"K":{"ha":903,"x_min":137,"x_max":785,"o":"m 137 0 l 137 972 l 274 972 l 274 551 l 338 551 l 617 972 l 767 972 l 428 470 l 428 528 l 785 0 l 634 0 l 338 446 l 274 446 l 274 0 l 137 0 z "},"Ķ":{"ha":903,"x_min":137,"x_max":785,"o":"m 137 0 l 137 972 l 274 972 l 274 551 l 338 551 l 617 972 l 767 972 l 428 470 l 428 528 l 785 0 l 634 0 l 338 446 l 274 446 l 274 0 l 137 0 m 390 -365 l 356 -297 q 386 -284 370 -293 q 414 -257 403 -276 q 426 -207 426 -238 l 507 -210 q 486 -292 507 -260 q 437 -342 465 -324 q 390 -365 409 -359 m 367 -210 l 367 -72 l 507 -72 l 507 -210 l 367 -210 z "},"L":{"ha":694,"x_min":106,"x_max":620,"o":"m 106 0 l 106 972 l 244 972 l 244 106 l 620 106 l 620 0 l 106 0 z "},"Ǉ":{"ha":1181,"x_min":71,"x_max":1124,"o":"m 71 0 l 71 972 l 209 972 l 209 106 l 553 106 l 553 0 l 71 0 m 685 0 l 685 108 q 806 118 756 108 q 892 149 857 128 q 948 203 927 170 q 977 282 968 236 q 987 388 987 328 l 987 867 l 685 867 l 685 972 l 1124 972 l 1124 376 q 1109 229 1124 292 q 1061 122 1093 166 q 977 51 1028 78 q 853 12 925 24 q 685 0 781 0 z "},"Ĺ":{"ha":694,"x_min":100,"x_max":620,"o":"m 106 0 l 106 972 l 244 972 l 244 106 l 620 106 l 620 0 l 106 0 m 230 1061 l 100 1061 l 304 1258 l 456 1258 l 230 1061 z "},"Ľ":{"ha":694,"x_min":106,"x_max":631,"o":"m 106 0 l 106 972 l 244 972 l 244 106 l 620 106 l 620 0 l 106 0 m 492 749 q 506 808 499 773 q 516 885 512 843 q 520 972 520 928 l 631 972 q 622 882 631 924 q 600 805 613 839 q 576 749 588 771 l 492 749 z "},"Ļ":{"ha":694,"x_min":106,"x_max":620,"o":"m 106 0 l 106 972 l 244 972 l 244 106 l 620 106 l 620 0 l 106 0 m 308 -365 l 274 -297 q 305 -284 289 -293 q 333 -257 322 -276 q 344 -207 344 -238 l 426 -210 q 405 -292 426 -260 q 356 -342 383 -324 q 308 -365 328 -359 m 286 -210 l 286 -72 l 426 -72 l 426 -210 l 286 -210 z "},"Ŀ":{"ha":694,"x_min":106,"x_max":620,"o":"m 106 0 l 106 972 l 244 972 l 244 106 l 620 106 l 620 0 l 106 0 z "},"Ḷ":{"ha":694,"x_min":106,"x_max":620,"o":"m 106 0 l 106 972 l 244 972 l 244 106 l 620 106 l 620 0 l 106 0 m 284 -81 l 428 -81 l 428 -233 l 284 -233 l 284 -81 z "},"ǈ":{"ha":1181,"x_min":120,"x_max":1061,"o":"m 120 0 l 120 972 l 258 972 l 258 106 l 635 106 l 635 0 l 120 0 m 653 -278 l 653 -167 l 706 -167 q 796 -153 756 -167 q 864 -112 835 -140 q 907 -43 892 -85 q 922 55 922 -1 l 922 589 l 673 589 l 673 694 l 1060 694 l 1060 31 q 1034 -105 1060 -47 q 963 -201 1008 -162 q 854 -259 917 -240 q 717 -278 792 -278 l 653 -278 m 917 984 l 1061 984 l 1061 826 l 917 826 l 917 984 z "},"Ḻ":{"ha":694,"x_min":106,"x_max":620,"o":"m 106 0 l 106 972 l 244 972 l 244 106 l 620 106 l 620 0 l 106 0 m 138 -203 l 138 -118 l 574 -118 l 574 -203 l 138 -203 z "},"Ł":{"ha":694,"x_min":-8,"x_max":630,"o":"m -8 235 l -8 367 l 405 738 l 405 605 l -8 235 m 115 0 l 115 972 l 253 972 l 253 106 l 630 106 l 630 0 l 115 0 z "},"M":{"ha":1181,"x_min":91,"x_max":1088,"o":"m 563 92 l 603 285 l 808 972 l 887 972 l 885 849 l 651 92 l 563 92 m 91 0 l 191 972 l 319 972 l 233 0 l 91 0 m 527 92 l 294 849 l 293 972 l 371 972 l 577 285 l 615 92 l 527 92 m 946 0 l 860 972 l 988 972 l 1088 0 l 946 0 z "},"Ṃ":{"ha":1181,"x_min":91,"x_max":1088,"o":"m 563 92 l 603 285 l 808 972 l 887 972 l 885 849 l 651 92 l 563 92 m 91 0 l 191 972 l 319 972 l 233 0 l 91 0 m 527 92 l 294 849 l 293 972 l 371 972 l 577 285 l 615 92 l 527 92 m 946 0 l 860 972 l 988 972 l 1088 0 l 946 0 m 522 -81 l 665 -81 l 665 -233 l 522 -233 l 522 -81 z "},"N":{"ha":903,"x_min":108,"x_max":790,"o":"m 108 0 l 108 972 l 310 972 l 675 121 l 652 121 l 652 972 l 790 972 l 790 0 l 612 0 l 239 849 l 245 849 l 245 0 l 108 0 z "},"Ǌ":{"ha":1181,"x_min":78,"x_max":1112,"o":"m 78 0 l 78 972 l 249 972 l 513 121 l 491 121 l 491 972 l 619 972 l 619 0 l 452 0 l 179 849 l 206 849 l 206 0 l 78 0 m 721 -1 l 721 110 q 830 117 782 110 q 911 147 878 124 q 961 213 944 169 q 978 333 978 258 l 978 867 l 714 867 l 714 972 l 1112 972 l 1112 320 q 1081 151 1112 215 q 996 55 1050 88 q 871 10 942 22 q 721 -1 801 -1 z "},"Ń":{"ha":903,"x_min":108,"x_max":790,"o":"m 108 0 l 108 972 l 310 972 l 675 121 l 652 121 l 652 972 l 790 972 l 790 0 l 612 0 l 239 849 l 245 849 l 245 0 l 108 0 m 499 1061 l 369 1061 l 574 1258 l 726 1258 l 499 1061 z "},"Ň":{"ha":903,"x_min":108,"x_max":790,"o":"m 108 0 l 108 972 l 310 972 l 675 121 l 652 121 l 652 972 l 790 972 l 790 0 l 612 0 l 239 849 l 245 849 l 245 0 l 108 0 m 206 1250 l 328 1250 l 448 1130 l 567 1250 l 690 1250 l 494 1067 l 401 1067 l 206 1250 z "},"Ņ":{"ha":903,"x_min":108,"x_max":790,"o":"m 108 0 l 108 972 l 310 972 l 675 121 l 652 121 l 652 972 l 790 972 l 790 0 l 612 0 l 239 849 l 245 849 l 245 0 l 108 0 m 396 -365 l 362 -297 q 393 -284 376 -293 q 420 -257 409 -276 q 432 -207 432 -238 l 513 -210 q 492 -292 513 -260 q 443 -342 471 -324 q 396 -365 415 -359 m 374 -210 l 374 -72 l 513 -72 l 513 -210 l 374 -210 z "},"Ṅ":{"ha":903,"x_min":108,"x_max":790,"o":"m 108 0 l 108 972 l 310 972 l 675 121 l 652 121 l 652 972 l 790 972 l 790 0 l 612 0 l 239 849 l 245 849 l 245 0 l 108 0 m 382 1215 l 514 1215 l 514 1063 l 382 1063 l 382 1215 z "},"Ṇ":{"ha":903,"x_min":108,"x_max":790,"o":"m 108 0 l 108 972 l 310 972 l 675 121 l 652 121 l 652 972 l 790 972 l 790 0 l 612 0 l 239 849 l 245 849 l 245 0 l 108 0 m 372 -81 l 516 -81 l 516 -233 l 372 -233 l 372 -81 z "},"Ŋ":{"ha":903,"x_min":120,"x_max":786,"o":"m 519 -267 q 445 -264 483 -267 q 378 -256 408 -260 q 331 -248 347 -252 l 361 -133 q 385 -139 369 -136 q 422 -145 401 -142 q 465 -150 442 -148 q 509 -152 488 -152 q 575 -145 546 -152 q 624 -121 604 -137 q 655 -75 644 -104 q 665 0 665 -45 l 258 731 l 258 0 l 120 0 l 120 972 l 266 972 l 649 291 l 649 972 l 786 972 l 786 -13 q 767 -125 786 -77 q 713 -204 748 -173 q 628 -251 678 -235 q 519 -267 579 -267 z "},"ǋ":{"ha":1181,"x_min":63,"x_max":1106,"o":"m 63 0 l 63 972 l 246 972 l 565 121 l 538 121 l 538 972 l 668 972 l 668 0 l 507 0 l 181 849 l 192 849 l 192 0 l 63 0 m 723 -278 l 723 -167 l 772 -167 q 858 -153 820 -167 q 921 -112 895 -140 q 961 -43 947 -85 q 974 55 974 -1 l 974 589 l 777 589 l 777 694 l 1104 694 l 1104 31 q 1080 -105 1104 -47 q 1013 -201 1056 -162 q 911 -259 969 -240 q 783 -278 852 -278 l 723 -278 m 969 984 l 1106 984 l 1106 826 l 969 826 l 969 984 z "},"Ṉ":{"ha":903,"x_min":108,"x_max":790,"o":"m 108 0 l 108 972 l 310 972 l 675 121 l 652 121 l 652 972 l 790 972 l 790 0 l 612 0 l 239 849 l 245 849 l 245 0 l 108 0 m 226 -203 l 226 -118 l 663 -118 l 663 -203 l 226 -203 z "},"Ñ":{"ha":903,"x_min":108,"x_max":790,"o":"m 108 0 l 108 972 l 310 972 l 675 121 l 652 121 l 652 972 l 790 972 l 790 0 l 612 0 l 239 849 l 245 849 l 245 0 l 108 0 m 524 1054 q 470 1067 491 1054 q 432 1095 449 1081 q 403 1117 417 1108 q 369 1126 388 1126 q 316 1102 335 1126 q 289 1061 297 1078 l 228 1112 q 250 1150 232 1126 q 297 1193 267 1174 q 365 1213 326 1213 q 417 1200 396 1213 q 456 1172 439 1187 q 486 1149 472 1158 q 521 1139 501 1139 q 574 1164 554 1139 q 600 1206 593 1189 l 659 1153 q 639 1116 655 1139 q 594 1073 623 1092 q 524 1054 566 1054 z "},"O":{"ha":903,"x_min":59,"x_max":840,"o":"m 450 -15 q 333 2 390 -15 q 226 58 276 20 q 139 154 176 95 q 80 295 101 213 q 59 483 59 376 q 80 671 59 590 q 139 811 101 753 q 226 908 176 870 q 333 963 276 945 q 450 981 390 981 q 567 963 510 981 q 673 908 624 945 q 760 811 723 870 q 819 671 797 753 q 840 483 840 590 q 819 295 840 376 q 760 154 797 213 q 673 58 723 95 q 567 2 624 20 q 450 -15 510 -15 m 450 92 q 542 115 497 92 q 622 184 586 137 q 679 305 658 231 q 700 483 700 379 q 679 661 700 587 q 622 782 658 735 q 542 851 586 828 q 450 873 497 873 q 358 851 403 873 q 277 782 313 828 q 220 661 242 735 q 199 483 199 587 q 220 305 199 379 q 277 184 242 231 q 358 115 313 137 q 450 92 403 92 z "},"Ó":{"ha":903,"x_min":59,"x_max":840,"o":"m 450 -15 q 333 2 390 -15 q 226 58 276 20 q 139 154 176 95 q 80 295 101 213 q 59 483 59 376 q 80 671 59 590 q 139 811 101 753 q 226 908 176 870 q 333 963 276 945 q 450 981 390 981 q 567 963 510 981 q 673 908 624 945 q 760 811 723 870 q 819 671 797 753 q 840 483 840 590 q 819 295 840 376 q 760 154 797 213 q 673 58 723 95 q 567 2 624 20 q 450 -15 510 -15 m 450 92 q 542 115 497 92 q 622 184 586 137 q 679 305 658 231 q 700 483 700 379 q 679 661 700 587 q 622 782 658 735 q 542 851 586 828 q 450 873 497 873 q 358 851 403 873 q 277 782 313 828 q 220 661 242 735 q 199 483 199 587 q 220 305 199 379 q 277 184 242 231 q 358 115 313 137 q 450 92 403 92 m 500 1061 l 370 1061 l 574 1258 l 726 1258 l 500 1061 z "},"Ŏ":{"ha":903,"x_min":59,"x_max":840,"o":"m 450 -15 q 333 2 390 -15 q 226 58 276 20 q 139 154 176 95 q 80 295 101 213 q 59 483 59 376 q 80 671 59 590 q 139 811 101 753 q 226 908 176 870 q 333 963 276 945 q 450 981 390 981 q 567 963 510 981 q 673 908 624 945 q 760 811 723 870 q 819 671 797 753 q 840 483 840 590 q 819 295 840 376 q 760 154 797 213 q 673 58 723 95 q 567 2 624 20 q 450 -15 510 -15 m 450 92 q 542 115 497 92 q 622 184 586 137 q 679 305 658 231 q 700 483 700 379 q 679 661 700 587 q 622 782 658 735 q 542 851 586 828 q 450 873 497 873 q 358 851 403 873 q 277 782 313 828 q 220 661 242 735 q 199 483 199 587 q 220 305 199 379 q 277 184 242 231 q 358 115 313 137 q 450 92 403 92 m 447 1049 q 338 1072 380 1049 q 275 1132 295 1094 q 255 1213 255 1169 l 356 1213 q 364 1171 356 1191 q 393 1139 373 1151 q 449 1126 413 1126 q 504 1139 484 1126 q 533 1171 524 1151 q 541 1213 541 1191 l 641 1213 q 620 1132 641 1169 q 557 1072 600 1094 q 447 1049 514 1049 z "},"Ǒ":{"ha":903,"x_min":59,"x_max":840,"o":"m 450 -15 q 333 2 390 -15 q 226 58 276 20 q 139 154 176 95 q 80 295 101 213 q 59 483 59 376 q 80 671 59 590 q 139 811 101 753 q 226 908 176 870 q 333 963 276 945 q 450 981 390 981 q 567 963 510 981 q 673 908 624 945 q 760 811 723 870 q 819 671 797 753 q 840 483 840 590 q 819 295 840 376 q 760 154 797 213 q 673 58 723 95 q 567 2 624 20 q 450 -15 510 -15 m 450 92 q 542 115 497 92 q 622 184 586 137 q 679 305 658 231 q 700 483 700 379 q 679 661 700 587 q 622 782 658 735 q 542 851 586 828 q 450 873 497 873 q 358 851 403 873 q 277 782 313 828 q 220 661 242 735 q 199 483 199 587 q 220 305 199 379 q 277 184 242 231 q 358 115 313 137 q 450 92 403 92 m 206 1250 l 329 1250 l 449 1130 l 567 1250 l 691 1250 l 495 1067 l 401 1067 l 206 1250 z "},"Ô":{"ha":903,"x_min":59,"x_max":840,"o":"m 450 -15 q 333 2 390 -15 q 226 58 276 20 q 139 154 176 95 q 80 295 101 213 q 59 483 59 376 q 80 671 59 590 q 139 811 101 753 q 226 908 176 870 q 333 963 276 945 q 450 981 390 981 q 567 963 510 981 q 673 908 624 945 q 760 811 723 870 q 819 671 797 753 q 840 483 840 590 q 819 295 840 376 q 760 154 797 213 q 673 58 723 95 q 567 2 624 20 q 450 -15 510 -15 m 450 92 q 542 115 497 92 q 622 184 586 137 q 679 305 658 231 q 700 483 700 379 q 679 661 700 587 q 622 782 658 735 q 542 851 586 828 q 450 873 497 873 q 358 851 403 873 q 277 782 313 828 q 220 661 242 735 q 199 483 199 587 q 220 305 199 379 q 277 184 242 231 q 358 115 313 137 q 450 92 403 92 m 206 1063 l 401 1246 l 495 1246 l 691 1063 l 567 1063 l 449 1183 l 329 1063 l 206 1063 z "},"Ố":{"ha":903,"x_min":59,"x_max":840,"o":"m 450 -15 q 333 2 390 -15 q 226 58 276 20 q 139 154 176 95 q 80 295 101 213 q 59 483 59 376 q 80 671 59 590 q 139 811 101 753 q 226 908 176 870 q 333 963 276 945 q 450 981 390 981 q 567 963 510 981 q 673 908 624 945 q 760 811 723 870 q 819 671 797 753 q 840 483 840 590 q 819 295 840 376 q 760 154 797 213 q 673 58 723 95 q 567 2 624 20 q 450 -15 510 -15 m 450 92 q 542 115 497 92 q 622 184 586 137 q 679 305 658 231 q 700 483 700 379 q 679 661 700 587 q 622 782 658 735 q 542 851 586 828 q 450 873 497 873 q 358 851 403 873 q 277 782 313 828 q 220 661 242 735 q 199 483 199 587 q 220 305 199 379 q 277 184 242 231 q 358 115 313 137 q 450 92 403 92 m 663 1204 l 683 1308 l 795 1384 l 781 1280 l 663 1204 m 206 1063 l 401 1246 l 494 1246 l 690 1063 l 567 1063 l 448 1183 l 328 1063 l 206 1063 z "},"Ộ":{"ha":903,"x_min":59,"x_max":840,"o":"m 450 -15 q 333 2 390 -15 q 226 58 276 20 q 139 154 176 95 q 80 295 101 213 q 59 483 59 376 q 80 671 59 590 q 139 811 101 753 q 226 908 176 870 q 333 963 276 945 q 450 981 390 981 q 567 963 510 981 q 673 908 624 945 q 760 811 723 870 q 819 671 797 753 q 840 483 840 590 q 819 295 840 376 q 760 154 797 213 q 673 58 723 95 q 567 2 624 20 q 450 -15 510 -15 m 450 92 q 542 115 497 92 q 622 184 586 137 q 679 305 658 231 q 700 483 700 379 q 679 661 700 587 q 622 782 658 735 q 542 851 586 828 q 450 873 497 873 q 358 851 403 873 q 277 782 313 828 q 220 661 242 735 q 199 483 199 587 q 220 305 199 379 q 277 184 242 231 q 358 115 313 137 q 450 92 403 92 m 372 -81 l 515 -81 l 515 -233 l 372 -233 l 372 -81 m 206 1063 l 401 1246 l 495 1246 l 691 1063 l 567 1063 l 449 1183 l 329 1063 l 206 1063 z "},"Ồ":{"ha":903,"x_min":59,"x_max":840,"o":"m 450 -15 q 333 2 390 -15 q 226 58 276 20 q 139 154 176 95 q 80 295 101 213 q 59 483 59 376 q 80 671 59 590 q 139 811 101 753 q 226 908 176 870 q 333 963 276 945 q 450 981 390 981 q 567 963 510 981 q 673 908 624 945 q 760 811 723 870 q 819 671 797 753 q 840 483 840 590 q 819 295 840 376 q 760 154 797 213 q 673 58 723 95 q 567 2 624 20 q 450 -15 510 -15 m 450 92 q 542 115 497 92 q 622 184 586 137 q 679 305 658 231 q 700 483 700 379 q 679 661 700 587 q 622 782 658 735 q 542 851 586 828 q 450 873 497 873 q 358 851 403 873 q 277 782 313 828 q 220 661 242 735 q 199 483 199 587 q 220 305 199 379 q 277 184 242 231 q 358 115 313 137 q 450 92 403 92 m 690 1204 l 573 1280 l 558 1384 l 670 1308 l 690 1204 m 181 1063 l 376 1246 l 470 1246 l 666 1063 l 542 1063 l 424 1183 l 304 1063 l 181 1063 z "},"Ổ":{"ha":903,"x_min":59,"x_max":851,"o":"m 450 -15 q 333 2 390 -15 q 226 58 276 20 q 139 154 176 95 q 80 295 101 213 q 59 483 59 376 q 80 671 59 590 q 139 811 101 753 q 226 908 176 870 q 333 963 276 945 q 450 981 390 981 q 567 963 510 981 q 673 908 624 945 q 760 811 723 870 q 819 671 797 753 q 840 483 840 590 q 819 295 840 376 q 760 154 797 213 q 673 58 723 95 q 567 2 624 20 q 450 -15 510 -15 m 450 92 q 542 115 497 92 q 622 184 586 137 q 679 305 658 231 q 700 483 700 379 q 679 661 700 587 q 622 782 658 735 q 542 851 586 828 q 450 873 497 873 q 358 851 403 873 q 277 782 313 828 q 220 661 242 735 q 199 483 199 587 q 220 305 199 379 q 277 184 242 231 q 358 115 313 137 q 450 92 403 92 m 626 1201 l 626 1295 q 729 1308 699 1295 q 760 1342 760 1320 q 725 1374 760 1364 q 593 1384 690 1384 l 593 1452 q 730 1441 672 1452 q 819 1407 788 1431 q 851 1343 851 1383 q 836 1296 851 1315 q 796 1265 820 1276 q 746 1249 772 1254 q 699 1244 720 1244 l 699 1201 l 626 1201 m 208 1063 l 403 1246 l 497 1246 l 692 1063 l 569 1063 l 450 1183 l 331 1063 l 208 1063 z "},"Ỗ":{"ha":903,"x_min":59,"x_max":840,"o":"m 450 -15 q 333 2 390 -15 q 226 58 276 20 q 139 154 176 95 q 80 295 101 213 q 59 483 59 376 q 80 671 59 590 q 139 811 101 753 q 226 908 176 870 q 333 963 276 945 q 450 981 390 981 q 567 963 510 981 q 673 908 624 945 q 760 811 723 870 q 819 671 797 753 q 840 483 840 590 q 819 295 840 376 q 760 154 797 213 q 673 58 723 95 q 567 2 624 20 q 450 -15 510 -15 m 450 92 q 542 115 497 92 q 622 184 586 137 q 679 305 658 231 q 700 483 700 379 q 679 661 700 587 q 622 782 658 735 q 542 851 586 828 q 450 873 497 873 q 358 851 403 873 q 277 782 313 828 q 220 661 242 735 q 199 483 199 587 q 220 305 199 379 q 277 184 242 231 q 358 115 313 137 q 450 92 403 92 m 206 1063 l 401 1246 l 495 1246 l 691 1063 l 567 1063 l 449 1183 l 329 1063 l 206 1063 m 525 1328 q 472 1341 492 1328 q 433 1369 451 1354 q 404 1391 419 1381 q 370 1400 390 1400 q 317 1376 336 1400 q 290 1335 298 1352 l 229 1386 q 251 1424 233 1400 q 298 1467 268 1447 q 365 1486 327 1486 q 419 1473 397 1486 q 457 1446 440 1460 q 488 1423 473 1433 q 522 1413 503 1413 q 575 1438 556 1413 q 601 1479 594 1463 l 660 1427 q 640 1390 656 1413 q 596 1347 624 1366 q 525 1328 567 1328 z "},"Ȍ":{"ha":903,"x_min":59,"x_max":840,"o":"m 450 -15 q 333 2 390 -15 q 226 58 276 20 q 139 154 176 95 q 80 295 101 213 q 59 483 59 376 q 80 671 59 590 q 139 811 101 753 q 226 908 176 870 q 333 963 276 945 q 450 981 390 981 q 567 963 510 981 q 673 908 624 945 q 760 811 723 870 q 819 671 797 753 q 840 483 840 590 q 819 295 840 376 q 760 154 797 213 q 673 58 723 95 q 567 2 624 20 q 450 -15 510 -15 m 450 92 q 542 115 497 92 q 622 184 586 137 q 679 305 658 231 q 700 483 700 379 q 679 661 700 587 q 622 782 658 735 q 542 851 586 828 q 450 873 497 873 q 358 851 403 873 q 277 782 313 828 q 220 661 242 735 q 199 483 199 587 q 220 305 199 379 q 277 184 242 231 q 358 115 313 137 q 450 92 403 92 m 528 1045 l 335 1235 l 458 1235 l 622 1045 l 528 1045 m 293 1045 l 89 1235 l 214 1235 l 390 1045 l 293 1045 z "},"Ö":{"ha":903,"x_min":59,"x_max":840,"o":"m 450 -15 q 333 2 390 -15 q 226 58 276 20 q 139 154 176 95 q 80 295 101 213 q 59 483 59 376 q 80 671 59 590 q 139 811 101 753 q 226 908 176 870 q 333 963 276 945 q 450 981 390 981 q 567 963 510 981 q 673 908 624 945 q 760 811 723 870 q 819 671 797 753 q 840 483 840 590 q 819 295 840 376 q 760 154 797 213 q 673 58 723 95 q 567 2 624 20 q 450 -15 510 -15 m 450 92 q 542 115 497 92 q 622 184 586 137 q 679 305 658 231 q 700 483 700 379 q 679 661 700 587 q 622 782 658 735 q 542 851 586 828 q 450 873 497 873 q 358 851 403 873 q 277 782 313 828 q 220 661 242 735 q 199 483 199 587 q 220 305 199 379 q 277 184 242 231 q 358 115 313 137 q 450 92 403 92 m 216 1228 l 360 1228 l 360 1070 l 216 1070 l 216 1228 m 538 1228 l 681 1228 l 681 1070 l 538 1070 l 538 1228 z "},"Ȫ":{"ha":903,"x_min":59,"x_max":840,"o":"m 450 -15 q 333 2 390 -15 q 226 58 276 20 q 139 154 176 95 q 80 295 101 213 q 59 483 59 376 q 80 671 59 590 q 139 811 101 753 q 226 908 176 870 q 333 963 276 945 q 450 981 390 981 q 567 963 510 981 q 673 908 624 945 q 760 811 723 870 q 819 671 797 753 q 840 483 840 590 q 819 295 840 376 q 760 154 797 213 q 673 58 723 95 q 567 2 624 20 q 450 -15 510 -15 m 450 92 q 542 115 497 92 q 622 184 586 137 q 679 305 658 231 q 700 483 700 379 q 679 661 700 587 q 622 782 658 735 q 542 851 586 828 q 450 873 497 873 q 358 851 403 873 q 277 782 313 828 q 220 661 242 735 q 199 483 199 587 q 220 305 199 379 q 277 184 242 231 q 358 115 313 137 q 450 92 403 92 m 225 1213 l 363 1213 l 363 1062 l 225 1062 l 225 1213 m 533 1213 l 671 1213 l 671 1062 l 533 1062 l 533 1213 m 231 1291 l 231 1376 l 667 1376 l 667 1291 l 231 1291 z "},"Ȱ":{"ha":903,"x_min":59,"x_max":840,"o":"m 450 -15 q 333 2 390 -15 q 226 58 276 20 q 139 154 176 95 q 80 295 101 213 q 59 483 59 376 q 80 671 59 590 q 139 811 101 753 q 226 908 176 870 q 333 963 276 945 q 450 981 390 981 q 567 963 510 981 q 673 908 624 945 q 760 811 723 870 q 819 671 797 753 q 840 483 840 590 q 819 295 840 376 q 760 154 797 213 q 673 58 723 95 q 567 2 624 20 q 450 -15 510 -15 m 450 92 q 542 115 497 92 q 622 184 586 137 q 679 305 658 231 q 700 483 700 379 q 679 661 700 587 q 622 782 658 735 q 542 851 586 828 q 450 873 497 873 q 358 851 403 873 q 277 782 313 828 q 220 661 242 735 q 199 483 199 587 q 220 305 199 379 q 277 184 242 231 q 358 115 313 137 q 450 92 403 92 m 383 1215 l 515 1215 l 515 1063 l 383 1063 l 383 1215 m 231 1293 l 231 1378 l 667 1378 l 667 1293 l 231 1293 z "},"Ọ":{"ha":903,"x_min":59,"x_max":840,"o":"m 450 -15 q 333 2 390 -15 q 226 58 276 20 q 139 154 176 95 q 80 295 101 213 q 59 483 59 376 q 80 671 59 590 q 139 811 101 753 q 226 908 176 870 q 333 963 276 945 q 450 981 390 981 q 567 963 510 981 q 673 908 624 945 q 760 811 723 870 q 819 671 797 753 q 840 483 840 590 q 819 295 840 376 q 760 154 797 213 q 673 58 723 95 q 567 2 624 20 q 450 -15 510 -15 m 450 92 q 542 115 497 92 q 622 184 586 137 q 679 305 658 231 q 700 483 700 379 q 679 661 700 587 q 622 782 658 735 q 542 851 586 828 q 450 873 497 873 q 358 851 403 873 q 277 782 313 828 q 220 661 242 735 q 199 483 199 587 q 220 305 199 379 q 277 184 242 231 q 358 115 313 137 q 450 92 403 92 m 372 -81 l 515 -81 l 515 -233 l 372 -233 l 372 -81 z "},"Ò":{"ha":903,"x_min":59,"x_max":840,"o":"m 450 -15 q 333 2 390 -15 q 226 58 276 20 q 139 154 176 95 q 80 295 101 213 q 59 483 59 376 q 80 671 59 590 q 139 811 101 753 q 226 908 176 870 q 333 963 276 945 q 450 981 390 981 q 567 963 510 981 q 673 908 624 945 q 760 811 723 870 q 819 671 797 753 q 840 483 840 590 q 819 295 840 376 q 760 154 797 213 q 673 58 723 95 q 567 2 624 20 q 450 -15 510 -15 m 450 92 q 542 115 497 92 q 622 184 586 137 q 679 305 658 231 q 700 483 700 379 q 679 661 700 587 q 622 782 658 735 q 542 851 586 828 q 450 873 497 873 q 358 851 403 873 q 277 782 313 828 q 220 661 242 735 q 199 483 199 587 q 220 305 199 379 q 277 184 242 231 q 358 115 313 137 q 450 92 403 92 m 383 1061 l 156 1258 l 308 1258 l 513 1061 l 383 1061 z "},"Ỏ":{"ha":903,"x_min":59,"x_max":840,"o":"m 450 -15 q 333 2 390 -15 q 226 58 276 20 q 139 154 176 95 q 80 295 101 213 q 59 483 59 376 q 80 671 59 590 q 139 811 101 753 q 226 908 176 870 q 333 963 276 945 q 450 981 390 981 q 567 963 510 981 q 673 908 624 945 q 760 811 723 870 q 819 671 797 753 q 840 483 840 590 q 819 295 840 376 q 760 154 797 213 q 673 58 723 95 q 567 2 624 20 q 450 -15 510 -15 m 450 92 q 542 115 497 92 q 622 184 586 137 q 679 305 658 231 q 700 483 700 379 q 679 661 700 587 q 622 782 658 735 q 542 851 586 828 q 450 873 497 873 q 358 851 403 873 q 277 782 313 828 q 220 661 242 735 q 199 483 199 587 q 220 305 199 379 q 277 184 242 231 q 358 115 313 137 q 450 92 403 92 m 406 1040 l 406 1142 q 484 1146 451 1142 q 535 1160 517 1151 q 553 1183 553 1169 q 532 1206 553 1199 q 471 1217 512 1214 q 368 1221 430 1221 l 368 1292 q 517 1283 453 1292 q 617 1252 581 1274 q 653 1191 653 1231 q 626 1132 653 1153 q 561 1100 599 1110 q 490 1091 524 1091 l 490 1040 l 406 1040 z "},"Ơ":{"ha":903,"x_min":59,"x_max":933,"o":"m 450 -15 q 333 2 390 -15 q 226 58 276 20 q 139 154 176 95 q 80 295 101 213 q 59 483 59 376 q 80 671 59 590 q 139 811 101 753 q 226 908 176 870 q 333 963 276 945 q 450 981 390 981 q 567 963 510 981 q 673 908 624 945 q 760 811 723 870 q 819 671 797 753 q 840 483 840 590 q 819 295 840 376 q 760 154 797 213 q 673 58 723 95 q 567 2 624 20 q 450 -15 510 -15 m 450 92 q 542 115 497 92 q 622 184 586 137 q 679 305 658 231 q 700 483 700 379 q 679 661 700 587 q 622 782 658 735 q 542 851 586 828 q 450 873 497 873 q 358 851 403 873 q 277 782 313 828 q 220 661 242 735 q 199 483 199 587 q 220 305 199 379 q 277 184 242 231 q 358 115 313 137 q 450 92 403 92 m 664 817 l 664 902 q 748 921 713 902 q 802 980 783 940 q 821 1083 821 1019 l 933 1083 q 909 965 933 1015 q 847 883 886 915 q 760 834 808 850 q 664 817 713 817 z "},"Ớ":{"ha":903,"x_min":59,"x_max":933,"o":"m 450 -15 q 333 2 390 -15 q 226 58 276 20 q 139 154 176 95 q 80 295 101 213 q 59 483 59 376 q 80 671 59 590 q 139 811 101 753 q 226 908 176 870 q 333 963 276 945 q 450 981 390 981 q 567 963 510 981 q 673 908 624 945 q 760 811 723 870 q 819 671 797 753 q 840 483 840 590 q 819 295 840 376 q 760 154 797 213 q 673 58 723 95 q 567 2 624 20 q 450 -15 510 -15 m 450 92 q 542 115 497 92 q 622 184 586 137 q 679 305 658 231 q 700 483 700 379 q 679 661 700 587 q 622 782 658 735 q 542 851 586 828 q 450 873 497 873 q 358 851 403 873 q 277 782 313 828 q 220 661 242 735 q 199 483 199 587 q 220 305 199 379 q 277 184 242 231 q 358 115 313 137 q 450 92 403 92 m 664 817 l 664 902 q 748 921 713 902 q 802 980 783 940 q 821 1083 821 1019 l 933 1083 q 909 965 933 1015 q 847 883 886 915 q 760 834 808 850 q 664 817 713 817 m 503 1061 l 374 1061 l 578 1258 l 730 1258 l 503 1061 z "},"Ợ":{"ha":903,"x_min":59,"x_max":933,"o":"m 450 -15 q 333 2 390 -15 q 226 58 276 20 q 139 154 176 95 q 80 295 101 213 q 59 483 59 376 q 80 671 59 590 q 139 811 101 753 q 226 908 176 870 q 333 963 276 945 q 450 981 390 981 q 567 963 510 981 q 673 908 624 945 q 760 811 723 870 q 819 671 797 753 q 840 483 840 590 q 819 295 840 376 q 760 154 797 213 q 673 58 723 95 q 567 2 624 20 q 450 -15 510 -15 m 450 92 q 542 115 497 92 q 622 184 586 137 q 679 305 658 231 q 700 483 700 379 q 679 661 700 587 q 622 782 658 735 q 542 851 586 828 q 450 873 497 873 q 358 851 403 873 q 277 782 313 828 q 220 661 242 735 q 199 483 199 587 q 220 305 199 379 q 277 184 242 231 q 358 115 313 137 q 450 92 403 92 m 664 817 l 664 902 q 748 921 713 902 q 802 980 783 940 q 821 1083 821 1019 l 933 1083 q 909 965 933 1015 q 847 883 886 915 q 760 834 808 850 q 664 817 713 817 m 379 -81 l 523 -81 l 523 -233 l 379 -233 l 379 -81 z "},"Ờ":{"ha":903,"x_min":59,"x_max":933,"o":"m 450 -15 q 333 2 390 -15 q 226 58 276 20 q 139 154 176 95 q 80 295 101 213 q 59 483 59 376 q 80 671 59 590 q 139 811 101 753 q 226 908 176 870 q 333 963 276 945 q 450 981 390 981 q 567 963 510 981 q 673 908 624 945 q 760 811 723 870 q 819 671 797 753 q 840 483 840 590 q 819 295 840 376 q 760 154 797 213 q 673 58 723 95 q 567 2 624 20 q 450 -15 510 -15 m 450 92 q 542 115 497 92 q 622 184 586 137 q 679 305 658 231 q 700 483 700 379 q 679 661 700 587 q 622 782 658 735 q 542 851 586 828 q 450 873 497 873 q 358 851 403 873 q 277 782 313 828 q 220 661 242 735 q 199 483 199 587 q 220 305 199 379 q 277 184 242 231 q 358 115 313 137 q 450 92 403 92 m 664 817 l 664 902 q 748 921 713 902 q 802 980 783 940 q 821 1083 821 1019 l 933 1083 q 909 965 933 1015 q 847 883 886 915 q 760 834 808 850 q 664 817 713 817 m 387 1061 l 160 1258 l 312 1258 l 516 1061 l 387 1061 z "},"Ở":{"ha":903,"x_min":59,"x_max":933,"o":"m 450 -15 q 333 2 390 -15 q 226 58 276 20 q 139 154 176 95 q 80 295 101 213 q 59 483 59 376 q 80 671 59 590 q 139 811 101 753 q 226 908 176 870 q 333 963 276 945 q 450 981 390 981 q 567 963 510 981 q 673 908 624 945 q 760 811 723 870 q 819 671 797 753 q 840 483 840 590 q 819 295 840 376 q 760 154 797 213 q 673 58 723 95 q 567 2 624 20 q 450 -15 510 -15 m 450 92 q 542 115 497 92 q 622 184 586 137 q 679 305 658 231 q 700 483 700 379 q 679 661 700 587 q 622 782 658 735 q 542 851 586 828 q 450 873 497 873 q 358 851 403 873 q 277 782 313 828 q 220 661 242 735 q 199 483 199 587 q 220 305 199 379 q 277 184 242 231 q 358 115 313 137 q 450 92 403 92 m 664 817 l 664 902 q 748 921 713 902 q 802 980 783 940 q 821 1083 821 1019 l 933 1083 q 909 965 933 1015 q 847 883 886 915 q 760 834 808 850 q 664 817 713 817 m 409 1040 l 409 1142 q 487 1146 454 1142 q 538 1160 519 1151 q 556 1183 556 1169 q 535 1206 556 1199 q 474 1217 515 1214 q 371 1221 433 1221 l 371 1292 q 520 1283 456 1292 q 620 1252 584 1274 q 656 1191 656 1231 q 629 1132 656 1153 q 564 1100 602 1110 q 492 1091 526 1091 l 492 1040 l 409 1040 z "},"Ỡ":{"ha":903,"x_min":59,"x_max":933,"o":"m 450 -15 q 333 2 390 -15 q 226 58 276 20 q 139 154 176 95 q 80 295 101 213 q 59 483 59 376 q 80 671 59 590 q 139 811 101 753 q 226 908 176 870 q 333 963 276 945 q 450 981 390 981 q 567 963 510 981 q 673 908 624 945 q 760 811 723 870 q 819 671 797 753 q 840 483 840 590 q 819 295 840 376 q 760 154 797 213 q 673 58 723 95 q 567 2 624 20 q 450 -15 510 -15 m 450 92 q 542 115 497 92 q 622 184 586 137 q 679 305 658 231 q 700 483 700 379 q 679 661 700 587 q 622 782 658 735 q 542 851 586 828 q 450 873 497 873 q 358 851 403 873 q 277 782 313 828 q 220 661 242 735 q 199 483 199 587 q 220 305 199 379 q 277 184 242 231 q 358 115 313 137 q 450 92 403 92 m 664 817 l 664 902 q 748 921 713 902 q 802 980 783 940 q 821 1083 821 1019 l 933 1083 q 909 965 933 1015 q 847 883 886 915 q 760 834 808 850 q 664 817 713 817 m 528 1054 q 474 1067 495 1054 q 436 1095 453 1081 q 407 1117 422 1108 q 373 1126 392 1126 q 320 1102 339 1126 q 293 1061 301 1078 l 232 1112 q 254 1150 236 1126 q 301 1193 272 1174 q 369 1213 330 1213 q 422 1200 400 1213 q 460 1172 443 1187 q 491 1149 476 1158 q 525 1139 506 1139 q 578 1164 558 1139 q 604 1206 597 1189 l 663 1153 q 643 1116 659 1139 q 599 1073 627 1092 q 528 1054 570 1054 z "},"Ő":{"ha":903,"x_min":59,"x_max":840,"o":"m 450 -15 q 333 2 390 -15 q 226 58 276 20 q 139 154 176 95 q 80 295 101 213 q 59 483 59 376 q 80 671 59 590 q 139 811 101 753 q 226 908 176 870 q 333 963 276 945 q 450 981 390 981 q 567 963 510 981 q 673 908 624 945 q 760 811 723 870 q 819 671 797 753 q 840 483 840 590 q 819 295 840 376 q 760 154 797 213 q 673 58 723 95 q 567 2 624 20 q 450 -15 510 -15 m 450 92 q 542 115 497 92 q 622 184 586 137 q 679 305 658 231 q 700 483 700 379 q 679 661 700 587 q 622 782 658 735 q 542 851 586 828 q 450 873 497 873 q 358 851 403 873 q 277 782 313 828 q 220 661 242 735 q 199 483 199 587 q 220 305 199 379 q 277 184 242 231 q 358 115 313 137 q 450 92 403 92 m 485 1063 l 613 1261 l 747 1261 l 583 1063 l 485 1063 m 286 1063 l 380 1261 l 510 1261 l 388 1063 l 286 1063 z "},"Ȏ":{"ha":903,"x_min":59,"x_max":840,"o":"m 450 -15 q 333 2 390 -15 q 226 58 276 20 q 139 154 176 95 q 80 295 101 213 q 59 483 59 376 q 80 671 59 590 q 139 811 101 753 q 226 908 176 870 q 333 963 276 945 q 450 981 390 981 q 567 963 510 981 q 673 908 624 945 q 760 811 723 870 q 819 671 797 753 q 840 483 840 590 q 819 295 840 376 q 760 154 797 213 q 673 58 723 95 q 567 2 624 20 q 450 -15 510 -15 m 450 92 q 542 115 497 92 q 622 184 586 137 q 679 305 658 231 q 700 483 700 379 q 679 661 700 587 q 622 782 658 735 q 542 851 586 828 q 450 873 497 873 q 358 851 403 873 q 277 782 313 828 q 220 661 242 735 q 199 483 199 587 q 220 305 199 379 q 277 184 242 231 q 358 115 313 137 q 450 92 403 92 m 450 1227 q 537 1210 501 1227 q 596 1166 573 1193 q 631 1108 619 1140 q 642 1048 642 1077 l 541 1048 q 533 1090 541 1067 q 505 1131 525 1113 q 449 1148 485 1148 q 391 1131 411 1148 q 364 1090 372 1113 q 356 1048 356 1067 l 256 1048 q 267 1108 256 1077 q 302 1166 278 1140 q 363 1210 326 1193 q 450 1227 399 1227 z "},"Ō":{"ha":903,"x_min":59,"x_max":840,"o":"m 450 -15 q 333 2 390 -15 q 226 58 276 20 q 139 154 176 95 q 80 295 101 213 q 59 483 59 376 q 80 671 59 590 q 139 811 101 753 q 226 908 176 870 q 333 963 276 945 q 450 981 390 981 q 567 963 510 981 q 673 908 624 945 q 760 811 723 870 q 819 671 797 753 q 840 483 840 590 q 819 295 840 376 q 760 154 797 213 q 673 58 723 95 q 567 2 624 20 q 450 -15 510 -15 m 450 92 q 542 115 497 92 q 622 184 586 137 q 679 305 658 231 q 700 483 700 379 q 679 661 700 587 q 622 782 658 735 q 542 851 586 828 q 450 873 497 873 q 358 851 403 873 q 277 782 313 828 q 220 661 242 735 q 199 483 199 587 q 220 305 199 379 q 277 184 242 231 q 358 115 313 137 q 450 92 403 92 m 231 1083 l 231 1167 l 667 1167 l 667 1083 l 231 1083 z "},"Ṓ":{"ha":903,"x_min":59,"x_max":840,"o":"m 450 -15 q 333 2 390 -15 q 226 58 276 20 q 139 154 176 95 q 80 295 101 213 q 59 483 59 376 q 80 671 59 590 q 139 811 101 753 q 226 908 176 870 q 333 963 276 945 q 450 981 390 981 q 567 963 510 981 q 673 908 624 945 q 760 811 723 870 q 819 671 797 753 q 840 483 840 590 q 819 295 840 376 q 760 154 797 213 q 673 58 723 95 q 567 2 624 20 q 450 -15 510 -15 m 450 92 q 542 115 497 92 q 622 184 586 137 q 679 305 658 231 q 700 483 700 379 q 679 661 700 587 q 622 782 658 735 q 542 851 586 828 q 450 873 497 873 q 358 851 403 873 q 277 782 313 828 q 220 661 242 735 q 199 483 199 587 q 220 305 199 379 q 277 184 242 231 q 358 115 313 137 q 450 92 403 92 m 231 1050 l 231 1135 l 667 1135 l 667 1050 l 231 1050 m 508 1217 l 378 1217 l 583 1402 l 735 1402 l 508 1217 z "},"Ṑ":{"ha":903,"x_min":59,"x_max":840,"o":"m 450 -15 q 333 2 390 -15 q 226 58 276 20 q 139 154 176 95 q 80 295 101 213 q 59 483 59 376 q 80 671 59 590 q 139 811 101 753 q 226 908 176 870 q 333 963 276 945 q 450 981 390 981 q 567 963 510 981 q 673 908 624 945 q 760 811 723 870 q 819 671 797 753 q 840 483 840 590 q 819 295 840 376 q 760 154 797 213 q 673 58 723 95 q 567 2 624 20 q 450 -15 510 -15 m 450 92 q 542 115 497 92 q 622 184 586 137 q 679 305 658 231 q 700 483 700 379 q 679 661 700 587 q 622 782 658 735 q 542 851 586 828 q 450 873 497 873 q 358 851 403 873 q 277 782 313 828 q 220 661 242 735 q 199 483 199 587 q 220 305 199 379 q 277 184 242 231 q 358 115 313 137 q 450 92 403 92 m 231 1050 l 231 1135 l 667 1135 l 667 1050 l 231 1050 m 391 1216 l 164 1401 l 316 1401 l 520 1216 l 391 1216 z "},"Ǫ":{"ha":903,"x_min":59,"x_max":840,"o":"m 450 -15 q 333 2 390 -15 q 226 58 276 20 q 139 154 176 95 q 80 295 101 213 q 59 483 59 376 q 80 671 59 590 q 139 811 101 753 q 226 908 176 870 q 333 963 276 945 q 450 981 390 981 q 567 963 510 981 q 673 908 624 945 q 760 811 723 870 q 819 671 797 753 q 840 483 840 590 q 819 295 840 376 q 760 154 797 213 q 673 58 723 95 q 567 2 624 20 q 450 -15 510 -15 m 450 92 q 542 115 497 92 q 622 184 586 137 q 679 305 658 231 q 700 483 700 379 q 679 661 700 587 q 622 782 658 735 q 542 851 586 828 q 450 873 497 873 q 358 851 403 873 q 277 782 313 828 q 220 661 242 735 q 199 483 199 587 q 220 305 199 379 q 277 184 242 231 q 358 115 313 137 q 450 92 403 92 m 747 -148 l 747 -237 q 694 -247 726 -244 q 630 -251 663 -251 q 557 -240 593 -251 q 497 -205 521 -230 q 474 -136 474 -180 q 487 -66 474 -98 q 520 -7 500 -34 q 561 42 540 20 l 647 42 q 600 -29 621 8 q 579 -103 579 -65 q 591 -139 579 -126 q 620 -157 603 -151 q 656 -162 638 -162 q 689 -160 672 -162 q 722 -155 706 -158 q 747 -148 737 -151 z "},"Ø":{"ha":903,"x_min":59,"x_max":840,"o":"m 74 35 l 738 990 l 829 928 l 165 -27 l 74 35 m 450 -15 q 333 2 390 -15 q 226 58 276 20 q 139 154 176 95 q 80 295 101 213 q 59 483 59 376 q 80 671 59 590 q 139 811 101 753 q 226 908 176 870 q 333 963 276 945 q 450 981 390 981 q 567 963 510 981 q 673 908 624 945 q 760 811 723 870 q 819 671 797 753 q 840 483 840 590 q 819 295 840 376 q 760 154 797 213 q 673 58 723 95 q 567 2 624 20 q 450 -15 510 -15 m 450 92 q 542 115 497 92 q 622 184 586 137 q 679 305 658 231 q 700 483 700 379 q 679 661 700 587 q 622 782 658 735 q 542 851 586 828 q 450 873 497 873 q 358 851 403 873 q 277 782 313 828 q 220 661 242 735 q 199 483 199 587 q 220 305 199 379 q 277 184 242 231 q 358 115 313 137 q 450 92 403 92 z "},"Ǿ":{"ha":903,"x_min":59,"x_max":840,"o":"m 74 35 l 738 990 l 829 928 l 165 -27 l 74 35 m 450 -15 q 333 2 390 -15 q 226 58 276 20 q 139 154 176 95 q 80 295 101 213 q 59 483 59 376 q 80 671 59 590 q 139 811 101 753 q 226 908 176 870 q 333 963 276 945 q 450 981 390 981 q 567 963 510 981 q 673 908 624 945 q 760 811 723 870 q 819 671 797 753 q 840 483 840 590 q 819 295 840 376 q 760 154 797 213 q 673 58 723 95 q 567 2 624 20 q 450 -15 510 -15 m 450 92 q 542 115 497 92 q 622 184 586 137 q 679 305 658 231 q 700 483 700 379 q 679 661 700 587 q 622 782 658 735 q 542 851 586 828 q 450 873 497 873 q 358 851 403 873 q 277 782 313 828 q 220 661 242 735 q 199 483 199 587 q 220 305 199 379 q 277 184 242 231 q 358 115 313 137 q 450 92 403 92 m 511 1053 l 381 1053 l 585 1239 l 738 1239 l 511 1053 z "},"Õ":{"ha":903,"x_min":59,"x_max":840,"o":"m 450 -15 q 333 2 390 -15 q 226 58 276 20 q 139 154 176 95 q 80 295 101 213 q 59 483 59 376 q 80 671 59 590 q 139 811 101 753 q 226 908 176 870 q 333 963 276 945 q 450 981 390 981 q 567 963 510 981 q 673 908 624 945 q 760 811 723 870 q 819 671 797 753 q 840 483 840 590 q 819 295 840 376 q 760 154 797 213 q 673 58 723 95 q 567 2 624 20 q 450 -15 510 -15 m 450 92 q 542 115 497 92 q 622 184 586 137 q 679 305 658 231 q 700 483 700 379 q 679 661 700 587 q 622 782 658 735 q 542 851 586 828 q 450 873 497 873 q 358 851 403 873 q 277 782 313 828 q 220 661 242 735 q 199 483 199 587 q 220 305 199 379 q 277 184 242 231 q 358 115 313 137 q 450 92 403 92 m 525 1054 q 472 1067 492 1054 q 433 1095 451 1081 q 404 1117 419 1108 q 370 1126 390 1126 q 317 1102 336 1126 q 290 1061 298 1078 l 229 1112 q 251 1150 233 1126 q 298 1193 269 1174 q 366 1213 327 1213 q 419 1200 397 1213 q 458 1172 440 1187 q 488 1149 473 1158 q 522 1139 503 1139 q 575 1164 556 1139 q 601 1206 594 1189 l 660 1153 q 640 1116 656 1139 q 596 1073 624 1092 q 525 1054 567 1054 z "},"Ṍ":{"ha":903,"x_min":59,"x_max":840,"o":"m 450 -15 q 333 2 390 -15 q 226 58 276 20 q 139 154 176 95 q 80 295 101 213 q 59 483 59 376 q 80 671 59 590 q 139 811 101 753 q 226 908 176 870 q 333 963 276 945 q 450 981 390 981 q 567 963 510 981 q 673 908 624 945 q 760 811 723 870 q 819 671 797 753 q 840 483 840 590 q 819 295 840 376 q 760 154 797 213 q 673 58 723 95 q 567 2 624 20 q 450 -15 510 -15 m 450 92 q 542 115 497 92 q 622 184 586 137 q 679 305 658 231 q 700 483 700 379 q 679 661 700 587 q 622 782 658 735 q 542 851 586 828 q 450 873 497 873 q 358 851 403 873 q 277 782 313 828 q 220 661 242 735 q 199 483 199 587 q 220 305 199 379 q 277 184 242 231 q 358 115 313 137 q 450 92 403 92 m 528 1056 q 475 1069 496 1056 q 437 1097 454 1082 q 408 1118 422 1109 q 374 1128 393 1128 q 320 1103 339 1128 q 294 1063 301 1079 l 233 1113 q 254 1151 237 1127 q 301 1194 272 1175 q 369 1214 330 1214 q 422 1201 401 1214 q 460 1173 444 1188 q 491 1150 476 1160 q 526 1140 506 1140 q 578 1165 559 1140 q 605 1207 598 1190 l 664 1155 q 644 1117 660 1140 q 599 1075 628 1094 q 528 1056 571 1056 m 508 1295 l 378 1295 l 583 1481 l 735 1481 l 508 1295 z "},"Ṏ":{"ha":903,"x_min":59,"x_max":840,"o":"m 450 -15 q 333 2 390 -15 q 226 58 276 20 q 139 154 176 95 q 80 295 101 213 q 59 483 59 376 q 80 671 59 590 q 139 811 101 753 q 226 908 176 870 q 333 963 276 945 q 450 981 390 981 q 567 963 510 981 q 673 908 624 945 q 760 811 723 870 q 819 671 797 753 q 840 483 840 590 q 819 295 840 376 q 760 154 797 213 q 673 58 723 95 q 567 2 624 20 q 450 -15 510 -15 m 450 92 q 542 115 497 92 q 622 184 586 137 q 679 305 658 231 q 700 483 700 379 q 679 661 700 587 q 622 782 658 735 q 542 851 586 828 q 450 873 497 873 q 358 851 403 873 q 277 782 313 828 q 220 661 242 735 q 199 483 199 587 q 220 305 199 379 q 277 184 242 231 q 358 115 313 137 q 450 92 403 92 m 528 1056 q 475 1069 496 1056 q 437 1097 454 1082 q 408 1118 422 1109 q 374 1128 393 1128 q 320 1103 339 1128 q 294 1063 301 1079 l 233 1113 q 254 1151 237 1127 q 301 1194 272 1175 q 369 1214 330 1214 q 422 1201 401 1214 q 460 1173 444 1188 q 491 1150 476 1160 q 526 1140 506 1140 q 578 1165 559 1140 q 605 1207 598 1190 l 664 1155 q 644 1117 660 1140 q 599 1075 628 1094 q 528 1056 571 1056 m 225 1455 l 363 1455 l 363 1303 l 225 1303 l 225 1455 m 533 1455 l 671 1455 l 671 1303 l 533 1303 l 533 1455 z "},"Ȭ":{"ha":903,"x_min":59,"x_max":840,"o":"m 450 -15 q 333 2 390 -15 q 226 58 276 20 q 139 154 176 95 q 80 295 101 213 q 59 483 59 376 q 80 671 59 590 q 139 811 101 753 q 226 908 176 870 q 333 963 276 945 q 450 981 390 981 q 567 963 510 981 q 673 908 624 945 q 760 811 723 870 q 819 671 797 753 q 840 483 840 590 q 819 295 840 376 q 760 154 797 213 q 673 58 723 95 q 567 2 624 20 q 450 -15 510 -15 m 450 92 q 542 115 497 92 q 622 184 586 137 q 679 305 658 231 q 700 483 700 379 q 679 661 700 587 q 622 782 658 735 q 542 851 586 828 q 450 873 497 873 q 358 851 403 873 q 277 782 313 828 q 220 661 242 735 q 199 483 199 587 q 220 305 199 379 q 277 184 242 231 q 358 115 313 137 q 450 92 403 92 m 528 1056 q 475 1069 496 1056 q 437 1097 454 1082 q 408 1118 422 1109 q 374 1128 393 1128 q 320 1103 339 1128 q 294 1063 301 1079 l 233 1113 q 254 1151 237 1127 q 301 1194 272 1175 q 369 1214 330 1214 q 422 1201 401 1214 q 460 1173 444 1188 q 491 1150 476 1160 q 526 1140 506 1140 q 578 1165 559 1140 q 605 1207 598 1190 l 664 1155 q 644 1117 660 1140 q 599 1075 628 1094 q 528 1056 571 1056 m 231 1292 l 231 1377 l 667 1377 l 667 1292 l 231 1292 z "},"Œ":{"ha":1181,"x_min":31,"x_max":1160,"o":"m 1160 972 l 1160 867 l 777 867 l 777 531 l 1126 531 l 1126 425 l 777 425 l 777 106 l 1160 106 l 1160 0 l 640 0 l 640 124 q 576 45 613 76 q 495 -1 539 14 q 405 -15 452 -15 q 265 13 332 -15 q 145 101 198 41 q 62 255 92 160 q 31 483 31 350 q 62 710 31 616 q 145 865 92 805 q 265 952 198 924 q 405 981 332 981 q 495 966 452 981 q 576 921 539 951 q 640 842 613 890 l 640 972 l 1160 972 m 405 92 q 493 115 451 92 q 567 184 535 137 q 618 305 599 231 q 636 483 636 379 q 618 661 636 587 q 567 782 599 735 q 493 851 535 828 q 405 873 451 873 q 317 851 359 873 q 243 782 276 828 q 191 661 210 735 q 172 483 172 587 q 191 305 172 379 q 243 184 210 231 q 317 115 276 137 q 405 92 359 92 z "},"P":{"ha":903,"x_min":163,"x_max":776,"o":"m 163 0 l 163 972 l 441 972 q 524 965 478 972 q 614 938 569 958 q 695 883 658 919 q 754 790 732 847 q 776 649 776 733 q 754 508 776 565 q 695 413 732 450 q 614 355 658 375 q 524 326 569 334 q 441 318 478 318 l 301 318 l 301 0 l 163 0 m 301 424 l 430 424 q 497 432 461 424 q 565 464 533 440 q 617 532 597 488 q 637 649 637 576 q 617 764 637 721 q 565 830 597 808 q 497 859 533 852 q 430 867 461 867 l 301 867 l 301 424 z "},"Þ":{"ha":903,"x_min":160,"x_max":754,"o":"m 160 0 l 160 972 l 297 972 l 297 817 l 422 817 q 500 811 456 817 q 588 787 543 805 q 670 734 633 769 q 731 641 708 699 q 754 496 754 583 q 731 351 754 409 q 670 259 708 294 q 588 206 633 224 q 500 183 543 189 q 422 178 456 178 l 297 178 l 297 0 l 160 0 m 297 283 l 413 283 q 463 287 435 283 q 517 302 490 291 q 566 337 544 314 q 602 399 589 360 q 615 496 615 438 q 602 593 615 554 q 566 656 589 632 q 517 691 544 679 q 463 707 490 703 q 413 711 435 711 l 297 711 l 297 283 z "},"Q":{"ha":903,"x_min":59,"x_max":840,"o":"m 394 -217 l 394 0 l 510 0 l 510 -134 l 489 -113 l 769 -113 l 769 -217 l 394 -217 m 450 -15 q 333 2 390 -15 q 226 58 276 20 q 139 154 176 95 q 80 295 101 213 q 59 483 59 376 q 80 671 59 590 q 139 811 101 753 q 226 908 176 870 q 333 963 276 945 q 450 981 390 981 q 567 963 510 981 q 673 908 624 945 q 760 811 723 870 q 819 671 797 753 q 840 483 840 590 q 819 295 840 376 q 760 154 797 213 q 673 58 723 95 q 567 2 624 20 q 450 -15 510 -15 m 450 92 q 542 115 497 92 q 622 184 586 137 q 679 305 658 231 q 700 483 700 379 q 679 661 700 587 q 622 782 658 735 q 542 851 586 828 q 450 873 497 873 q 358 851 403 873 q 277 782 313 828 q 220 661 242 735 q 199 483 199 587 q 220 305 199 379 q 277 184 242 231 q 358 115 313 137 q 450 92 403 92 z "},"R":{"ha":903,"x_min":154,"x_max":802,"o":"m 154 0 l 154 972 l 502 972 q 578 965 539 972 q 654 940 617 958 q 720 893 691 923 q 767 817 750 863 q 785 708 785 772 q 766 595 785 642 q 717 517 748 549 q 650 467 687 485 q 574 441 613 449 q 502 433 535 433 l 292 433 l 292 0 l 154 0 m 656 0 l 469 472 l 605 486 l 802 0 l 656 0 m 292 535 l 478 535 q 561 552 523 535 q 624 606 600 569 q 647 704 647 643 q 623 804 647 769 q 558 853 598 839 q 474 867 519 867 l 292 867 l 292 535 z "},"Ŕ":{"ha":903,"x_min":154,"x_max":802,"o":"m 154 0 l 154 972 l 502 972 q 578 965 539 972 q 654 940 617 958 q 720 893 691 923 q 767 817 750 863 q 785 708 785 772 q 766 595 785 642 q 717 517 748 549 q 650 467 687 485 q 574 441 613 449 q 502 433 535 433 l 292 433 l 292 0 l 154 0 m 656 0 l 469 472 l 605 486 l 802 0 l 656 0 m 292 535 l 478 535 q 561 552 523 535 q 624 606 600 569 q 647 704 647 643 q 623 804 647 769 q 558 853 598 839 q 474 867 519 867 l 292 867 l 292 535 m 515 1061 l 385 1061 l 590 1258 l 742 1258 l 515 1061 z "},"Ř":{"ha":903,"x_min":154,"x_max":802,"o":"m 154 0 l 154 972 l 502 972 q 578 965 539 972 q 654 940 617 958 q 720 893 691 923 q 767 817 750 863 q 785 708 785 772 q 766 595 785 642 q 717 517 748 549 q 650 467 687 485 q 574 441 613 449 q 502 433 535 433 l 292 433 l 292 0 l 154 0 m 656 0 l 469 472 l 605 486 l 802 0 l 656 0 m 292 535 l 478 535 q 561 552 523 535 q 624 606 600 569 q 647 704 647 643 q 623 804 647 769 q 558 853 598 839 q 474 867 519 867 l 292 867 l 292 535 m 221 1250 l 344 1250 l 463 1130 l 582 1250 l 706 1250 l 510 1067 l 416 1067 l 221 1250 z "},"Ŗ":{"ha":903,"x_min":154,"x_max":802,"o":"m 154 0 l 154 972 l 502 972 q 578 965 539 972 q 654 940 617 958 q 720 893 691 923 q 767 817 750 863 q 785 708 785 772 q 766 595 785 642 q 717 517 748 549 q 650 467 687 485 q 574 441 613 449 q 502 433 535 433 l 292 433 l 292 0 l 154 0 m 656 0 l 469 472 l 605 486 l 802 0 l 656 0 m 292 535 l 478 535 q 561 552 523 535 q 624 606 600 569 q 647 704 647 643 q 623 804 647 769 q 558 853 598 839 q 474 867 519 867 l 292 867 l 292 535 m 417 -365 l 383 -297 q 414 -284 398 -293 q 442 -257 431 -276 q 453 -207 453 -238 l 535 -210 q 514 -292 535 -260 q 465 -342 492 -324 q 417 -365 437 -359 m 395 -210 l 395 -72 l 535 -72 l 535 -210 l 395 -210 z "},"Ȑ":{"ha":903,"x_min":104,"x_max":802,"o":"m 154 0 l 154 972 l 502 972 q 578 965 539 972 q 654 940 617 958 q 720 893 691 923 q 767 817 750 863 q 785 708 785 772 q 766 595 785 642 q 717 517 748 549 q 650 467 687 485 q 574 441 613 449 q 502 433 535 433 l 292 433 l 292 0 l 154 0 m 656 0 l 469 472 l 605 486 l 802 0 l 656 0 m 292 535 l 478 535 q 561 552 523 535 q 624 606 600 569 q 647 704 647 643 q 623 804 647 769 q 558 853 598 839 q 474 867 519 867 l 292 867 l 292 535 m 543 1045 l 351 1235 l 474 1235 l 638 1045 l 543 1045 m 308 1045 l 104 1235 l 229 1235 l 406 1045 l 308 1045 z "},"Ṛ":{"ha":903,"x_min":154,"x_max":802,"o":"m 154 0 l 154 972 l 502 972 q 578 965 539 972 q 654 940 617 958 q 720 893 691 923 q 767 817 750 863 q 785 708 785 772 q 766 595 785 642 q 717 517 748 549 q 650 467 687 485 q 574 441 613 449 q 502 433 535 433 l 292 433 l 292 0 l 154 0 m 656 0 l 469 472 l 605 486 l 802 0 l 656 0 m 292 535 l 478 535 q 561 552 523 535 q 624 606 600 569 q 647 704 647 643 q 623 804 647 769 q 558 853 598 839 q 474 867 519 867 l 292 867 l 292 535 m 394 -81 l 538 -81 l 538 -233 l 394 -233 l 394 -81 z "},"Ȓ":{"ha":903,"x_min":154,"x_max":802,"o":"m 154 0 l 154 972 l 502 972 q 578 965 539 972 q 654 940 617 958 q 720 893 691 923 q 767 817 750 863 q 785 708 785 772 q 766 595 785 642 q 717 517 748 549 q 650 467 687 485 q 574 441 613 449 q 502 433 535 433 l 292 433 l 292 0 l 154 0 m 656 0 l 469 472 l 605 486 l 802 0 l 656 0 m 292 535 l 478 535 q 561 552 523 535 q 624 606 600 569 q 647 704 647 643 q 623 804 647 769 q 558 853 598 839 q 474 867 519 867 l 292 867 l 292 535 m 465 1227 q 551 1210 515 1227 q 611 1166 588 1193 q 645 1108 634 1140 q 656 1048 656 1077 l 556 1048 q 548 1090 556 1067 q 519 1131 540 1113 q 463 1148 499 1148 q 406 1131 426 1148 q 378 1090 386 1113 q 371 1048 371 1067 l 270 1048 q 282 1108 270 1077 q 317 1166 293 1140 q 377 1210 341 1193 q 465 1227 414 1227 z "},"Ṟ":{"ha":903,"x_min":154,"x_max":802,"o":"m 154 0 l 154 972 l 502 972 q 578 965 539 972 q 654 940 617 958 q 720 893 691 923 q 767 817 750 863 q 785 708 785 772 q 766 595 785 642 q 717 517 748 549 q 650 467 687 485 q 574 441 613 449 q 502 433 535 433 l 292 433 l 292 0 l 154 0 m 656 0 l 469 472 l 605 486 l 802 0 l 656 0 m 292 535 l 478 535 q 561 552 523 535 q 624 606 600 569 q 647 704 647 643 q 623 804 647 769 q 558 853 598 839 q 474 867 519 867 l 292 867 l 292 535 m 247 -203 l 247 -118 l 683 -118 l 683 -203 l 247 -203 z "},"S":{"ha":903,"x_min":95,"x_max":805,"o":"m 453 -15 q 294 9 367 -15 q 170 79 222 33 q 95 189 118 125 l 228 247 q 278 168 244 202 q 358 114 311 133 q 462 94 404 94 q 567 114 522 94 q 636 170 612 134 q 660 257 660 206 q 640 325 660 295 q 584 378 619 356 q 505 417 549 401 q 417 444 462 433 q 300 485 353 461 q 207 542 247 508 q 147 622 168 576 q 126 731 126 669 q 144 822 126 781 q 196 892 163 862 q 272 941 229 922 q 364 971 315 961 q 463 981 413 981 q 610 957 542 981 q 724 893 677 934 q 788 801 770 853 l 658 743 q 615 813 643 784 q 547 856 587 841 q 458 871 507 871 q 388 862 422 871 q 327 836 354 853 q 285 794 301 819 q 269 735 269 769 q 295 653 269 687 q 366 598 321 620 q 472 560 412 575 q 566 531 518 547 q 656 492 613 515 q 732 437 699 469 q 785 364 766 406 q 805 267 805 322 q 786 163 805 209 q 733 84 767 117 q 656 28 700 50 q 559 -5 611 6 q 453 -15 508 -15 z "},"Ś":{"ha":903,"x_min":95,"x_max":805,"o":"m 453 -15 q 294 9 367 -15 q 170 79 222 33 q 95 189 118 125 l 228 247 q 278 168 244 202 q 358 114 311 133 q 462 94 404 94 q 567 114 522 94 q 636 170 612 134 q 660 257 660 206 q 640 325 660 295 q 584 378 619 356 q 505 417 549 401 q 417 444 462 433 q 300 485 353 461 q 207 542 247 508 q 147 622 168 576 q 126 731 126 669 q 144 822 126 781 q 196 892 163 862 q 272 941 229 922 q 364 971 315 961 q 463 981 413 981 q 610 957 542 981 q 724 893 677 934 q 788 801 770 853 l 658 743 q 615 813 643 784 q 547 856 587 841 q 458 871 507 871 q 388 862 422 871 q 327 836 354 853 q 285 794 301 819 q 269 735 269 769 q 295 653 269 687 q 366 598 321 620 q 472 560 412 575 q 566 531 518 547 q 656 492 613 515 q 732 437 699 469 q 785 364 766 406 q 805 267 805 322 q 786 163 805 209 q 733 84 767 117 q 656 28 700 50 q 559 -5 611 6 q 453 -15 508 -15 m 502 1061 l 372 1061 l 576 1258 l 728 1258 l 502 1061 z "},"Ṥ":{"ha":903,"x_min":95,"x_max":805,"o":"m 453 -15 q 294 9 367 -15 q 170 79 222 33 q 95 189 118 125 l 228 247 q 278 168 244 202 q 358 114 311 133 q 462 94 404 94 q 567 114 522 94 q 636 170 612 134 q 660 257 660 206 q 640 325 660 295 q 584 378 619 356 q 505 417 549 401 q 417 444 462 433 q 300 485 353 461 q 207 542 247 508 q 147 622 168 576 q 126 731 126 669 q 144 822 126 781 q 196 892 163 862 q 272 941 229 922 q 364 971 315 961 q 463 981 413 981 q 610 957 542 981 q 724 893 677 934 q 788 801 770 853 l 658 743 q 615 813 643 784 q 547 856 587 841 q 458 871 507 871 q 388 862 422 871 q 327 836 354 853 q 285 794 301 819 q 269 735 269 769 q 295 653 269 687 q 366 598 321 620 q 472 560 412 575 q 566 531 518 547 q 656 492 613 515 q 732 437 699 469 q 785 364 766 406 q 805 267 805 322 q 786 163 805 209 q 733 84 767 117 q 656 28 700 50 q 559 -5 611 6 q 453 -15 508 -15 m 510 1053 l 381 1053 l 585 1239 l 737 1239 l 510 1053 m 490 1482 l 622 1482 l 622 1329 l 490 1329 l 490 1482 z "},"Š":{"ha":903,"x_min":95,"x_max":805,"o":"m 453 -15 q 294 9 367 -15 q 170 79 222 33 q 95 189 118 125 l 228 247 q 278 168 244 202 q 358 114 311 133 q 462 94 404 94 q 567 114 522 94 q 636 170 612 134 q 660 257 660 206 q 640 325 660 295 q 584 378 619 356 q 505 417 549 401 q 417 444 462 433 q 300 485 353 461 q 207 542 247 508 q 147 622 168 576 q 126 731 126 669 q 144 822 126 781 q 196 892 163 862 q 272 941 229 922 q 364 971 315 961 q 463 981 413 981 q 610 957 542 981 q 724 893 677 934 q 788 801 770 853 l 658 743 q 615 813 643 784 q 547 856 587 841 q 458 871 507 871 q 388 862 422 871 q 327 836 354 853 q 285 794 301 819 q 269 735 269 769 q 295 653 269 687 q 366 598 321 620 q 472 560 412 575 q 566 531 518 547 q 656 492 613 515 q 732 437 699 469 q 785 364 766 406 q 805 267 805 322 q 786 163 805 209 q 733 84 767 117 q 656 28 700 50 q 559 -5 611 6 q 453 -15 508 -15 m 208 1250 l 331 1250 l 451 1130 l 569 1250 l 693 1250 l 497 1067 l 403 1067 l 208 1250 z "},"Ṧ":{"ha":903,"x_min":95,"x_max":805,"o":"m 453 -15 q 294 9 367 -15 q 170 79 222 33 q 95 189 118 125 l 228 247 q 278 168 244 202 q 358 114 311 133 q 462 94 404 94 q 567 114 522 94 q 636 170 612 134 q 660 257 660 206 q 640 325 660 295 q 584 378 619 356 q 505 417 549 401 q 417 444 462 433 q 300 485 353 461 q 207 542 247 508 q 147 622 168 576 q 126 731 126 669 q 144 822 126 781 q 196 892 163 862 q 272 941 229 922 q 364 971 315 961 q 463 981 413 981 q 610 957 542 981 q 724 893 677 934 q 788 801 770 853 l 658 743 q 615 813 643 784 q 547 856 587 841 q 458 871 507 871 q 388 862 422 871 q 327 836 354 853 q 285 794 301 819 q 269 735 269 769 q 295 653 269 687 q 366 598 321 620 q 472 560 412 575 q 566 531 518 547 q 656 492 613 515 q 732 437 699 469 q 785 364 766 406 q 805 267 805 322 q 786 163 805 209 q 733 84 767 117 q 656 28 700 50 q 559 -5 611 6 q 453 -15 508 -15 m 208 1205 l 340 1205 l 451 1109 l 560 1205 l 693 1205 l 497 1045 l 403 1045 l 208 1205 m 385 1448 l 517 1448 l 517 1295 l 385 1295 l 385 1448 z "},"Ş":{"ha":903,"x_min":95,"x_max":805,"o":"m 453 -15 q 294 9 367 -15 q 170 79 222 33 q 95 189 118 125 l 228 247 q 278 168 244 202 q 358 114 311 133 q 462 94 404 94 q 567 114 522 94 q 636 170 612 134 q 660 257 660 206 q 640 325 660 295 q 584 378 619 356 q 505 417 549 401 q 417 444 462 433 q 300 485 353 461 q 207 542 247 508 q 147 622 168 576 q 126 731 126 669 q 144 822 126 781 q 196 892 163 862 q 272 941 229 922 q 364 971 315 961 q 463 981 413 981 q 610 957 542 981 q 724 893 677 934 q 788 801 770 853 l 658 743 q 615 813 643 784 q 547 856 587 841 q 458 871 507 871 q 388 862 422 871 q 327 836 354 853 q 285 794 301 819 q 269 735 269 769 q 295 653 269 687 q 366 598 321 620 q 472 560 412 575 q 566 531 518 547 q 656 492 613 515 q 732 437 699 469 q 785 364 766 406 q 805 267 805 322 q 786 163 805 209 q 733 84 767 117 q 656 28 700 50 q 559 -5 611 6 q 453 -15 508 -15 m 457 -283 q 416 -282 436 -283 q 377 -276 397 -280 q 341 -269 358 -273 q 310 -260 324 -265 l 342 -187 q 383 -199 363 -194 q 423 -208 402 -205 q 467 -210 444 -210 q 524 -202 500 -210 q 561 -179 548 -194 q 575 -144 575 -164 q 560 -113 575 -121 q 524 -106 546 -106 q 492 -110 509 -106 q 461 -123 476 -115 q 438 -139 447 -131 l 365 -119 l 408 -1 l 494 -1 l 453 -108 l 444 -94 q 469 -71 452 -81 q 509 -55 486 -61 q 558 -49 533 -49 q 609 -57 585 -49 q 649 -85 633 -65 q 665 -140 665 -105 q 638 -219 665 -187 q 564 -267 611 -251 q 457 -283 517 -283 z "},"Ŝ":{"ha":903,"x_min":95,"x_max":805,"o":"m 453 -15 q 294 9 367 -15 q 170 79 222 33 q 95 189 118 125 l 228 247 q 278 168 244 202 q 358 114 311 133 q 462 94 404 94 q 567 114 522 94 q 636 170 612 134 q 660 257 660 206 q 640 325 660 295 q 584 378 619 356 q 505 417 549 401 q 417 444 462 433 q 300 485 353 461 q 207 542 247 508 q 147 622 168 576 q 126 731 126 669 q 144 822 126 781 q 196 892 163 862 q 272 941 229 922 q 364 971 315 961 q 463 981 413 981 q 610 957 542 981 q 724 893 677 934 q 788 801 770 853 l 658 743 q 615 813 643 784 q 547 856 587 841 q 458 871 507 871 q 388 862 422 871 q 327 836 354 853 q 285 794 301 819 q 269 735 269 769 q 295 653 269 687 q 366 598 321 620 q 472 560 412 575 q 566 531 518 547 q 656 492 613 515 q 732 437 699 469 q 785 364 766 406 q 805 267 805 322 q 786 163 805 209 q 733 84 767 117 q 656 28 700 50 q 559 -5 611 6 q 453 -15 508 -15 m 208 1052 l 403 1212 l 497 1212 l 693 1052 l 564 1052 l 451 1149 l 338 1052 l 208 1052 z "},"Ș":{"ha":903,"x_min":95,"x_max":805,"o":"m 453 -15 q 294 9 367 -15 q 170 79 222 33 q 95 189 118 125 l 228 247 q 278 168 244 202 q 358 114 311 133 q 462 94 404 94 q 567 114 522 94 q 636 170 612 134 q 660 257 660 206 q 640 325 660 295 q 584 378 619 356 q 505 417 549 401 q 417 444 462 433 q 300 485 353 461 q 207 542 247 508 q 147 622 168 576 q 126 731 126 669 q 144 822 126 781 q 196 892 163 862 q 272 941 229 922 q 364 971 315 961 q 463 981 413 981 q 610 957 542 981 q 724 893 677 934 q 788 801 770 853 l 658 743 q 615 813 643 784 q 547 856 587 841 q 458 871 507 871 q 388 862 422 871 q 327 836 354 853 q 285 794 301 819 q 269 735 269 769 q 295 653 269 687 q 366 598 321 620 q 472 560 412 575 q 566 531 518 547 q 656 492 613 515 q 732 437 699 469 q 785 364 766 406 q 805 267 805 322 q 786 163 805 209 q 733 84 767 117 q 656 28 700 50 q 559 -5 611 6 q 453 -15 508 -15 m 401 -366 l 367 -297 q 398 -285 382 -294 q 426 -258 415 -276 q 438 -208 438 -239 l 519 -211 q 498 -293 519 -260 q 449 -342 476 -325 q 401 -366 421 -360 m 379 -211 l 379 -73 l 519 -73 l 519 -211 l 379 -211 z "},"Ṡ":{"ha":903,"x_min":95,"x_max":805,"o":"m 453 -15 q 294 9 367 -15 q 170 79 222 33 q 95 189 118 125 l 228 247 q 278 168 244 202 q 358 114 311 133 q 462 94 404 94 q 567 114 522 94 q 636 170 612 134 q 660 257 660 206 q 640 325 660 295 q 584 378 619 356 q 505 417 549 401 q 417 444 462 433 q 300 485 353 461 q 207 542 247 508 q 147 622 168 576 q 126 731 126 669 q 144 822 126 781 q 196 892 163 862 q 272 941 229 922 q 364 971 315 961 q 463 981 413 981 q 610 957 542 981 q 724 893 677 934 q 788 801 770 853 l 658 743 q 615 813 643 784 q 547 856 587 841 q 458 871 507 871 q 388 862 422 871 q 327 836 354 853 q 285 794 301 819 q 269 735 269 769 q 295 653 269 687 q 366 598 321 620 q 472 560 412 575 q 566 531 518 547 q 656 492 613 515 q 732 437 699 469 q 785 364 766 406 q 805 267 805 322 q 786 163 805 209 q 733 84 767 117 q 656 28 700 50 q 559 -5 611 6 q 453 -15 508 -15 m 385 1215 l 517 1215 l 517 1063 l 385 1063 l 385 1215 z "},"Ṣ":{"ha":903,"x_min":95,"x_max":805,"o":"m 453 -15 q 294 9 367 -15 q 170 79 222 33 q 95 189 118 125 l 228 247 q 278 168 244 202 q 358 114 311 133 q 462 94 404 94 q 567 114 522 94 q 636 170 612 134 q 660 257 660 206 q 640 325 660 295 q 584 378 619 356 q 505 417 549 401 q 417 444 462 433 q 300 485 353 461 q 207 542 247 508 q 147 622 168 576 q 126 731 126 669 q 144 822 126 781 q 196 892 163 862 q 272 941 229 922 q 364 971 315 961 q 463 981 413 981 q 610 957 542 981 q 724 893 677 934 q 788 801 770 853 l 658 743 q 615 813 643 784 q 547 856 587 841 q 458 871 507 871 q 388 862 422 871 q 327 836 354 853 q 285 794 301 819 q 269 735 269 769 q 295 653 269 687 q 366 598 321 620 q 472 560 412 575 q 566 531 518 547 q 656 492 613 515 q 732 437 699 469 q 785 364 766 406 q 805 267 805 322 q 786 163 805 209 q 733 84 767 117 q 656 28 700 50 q 559 -5 611 6 q 453 -15 508 -15 m 378 -82 l 522 -82 l 522 -234 l 378 -234 l 378 -82 z "},"Ṩ":{"ha":903,"x_min":95,"x_max":805,"o":"m 453 -15 q 294 9 367 -15 q 170 79 222 33 q 95 189 118 125 l 228 247 q 278 168 244 202 q 358 114 311 133 q 462 94 404 94 q 567 114 522 94 q 636 170 612 134 q 660 257 660 206 q 640 325 660 295 q 584 378 619 356 q 505 417 549 401 q 417 444 462 433 q 300 485 353 461 q 207 542 247 508 q 147 622 168 576 q 126 731 126 669 q 144 822 126 781 q 196 892 163 862 q 272 941 229 922 q 364 971 315 961 q 463 981 413 981 q 610 957 542 981 q 724 893 677 934 q 788 801 770 853 l 658 743 q 615 813 643 784 q 547 856 587 841 q 458 871 507 871 q 388 862 422 871 q 327 836 354 853 q 285 794 301 819 q 269 735 269 769 q 295 653 269 687 q 366 598 321 620 q 472 560 412 575 q 566 531 518 547 q 656 492 613 515 q 732 437 699 469 q 785 364 766 406 q 805 267 805 322 q 786 163 805 209 q 733 84 767 117 q 656 28 700 50 q 559 -5 611 6 q 453 -15 508 -15 m 378 -82 l 522 -82 l 522 -234 l 378 -234 l 378 -82 m 385 1215 l 517 1215 l 517 1063 l 385 1063 l 385 1215 z "},"ẞ":{"ha":903,"x_min":104,"x_max":799,"o":"m 467 -15 q 401 -12 431 -15 q 347 -5 371 -10 q 307 6 324 0 l 331 119 q 364 110 345 114 q 408 102 383 106 q 467 99 434 99 q 540 110 505 99 q 605 143 576 120 q 650 203 633 166 q 667 294 667 240 q 650 387 667 351 q 602 444 633 424 q 533 474 572 465 q 451 483 494 483 l 387 558 l 601 863 l 396 863 q 313 845 348 863 q 260 789 278 828 q 242 680 242 749 l 242 0 l 104 0 l 104 694 q 127 821 104 769 q 191 907 150 874 q 286 956 232 940 q 403 972 341 972 l 747 972 l 747 867 l 531 569 q 603 560 566 569 q 675 532 640 551 q 739 481 710 513 q 783 402 767 449 q 799 294 799 356 q 771 152 799 211 q 695 57 743 94 q 589 2 648 19 q 467 -15 530 -15 z "},"Ə":{"ha":903,"x_min":111,"x_max":769,"o":"m 433 -17 q 303 9 363 -17 q 202 93 244 36 q 135 243 159 151 q 111 467 111 335 q 112 488 111 476 q 113 511 113 499 q 115 533 114 524 l 669 533 l 669 438 l 244 438 q 244 433 244 435 q 244 427 244 431 q 257 270 244 335 q 294 165 270 206 q 353 107 319 125 q 430 88 387 88 q 508 106 471 88 q 573 168 544 124 q 617 290 601 213 q 633 485 633 367 q 607 721 633 636 q 535 840 581 806 q 428 874 490 874 q 336 856 374 875 q 275 809 298 837 q 242 758 251 782 l 128 818 q 170 875 143 847 q 235 928 197 904 q 323 966 274 951 q 433 981 372 981 q 535 965 485 981 q 627 916 584 950 q 701 824 669 881 q 751 683 733 767 q 769 484 769 599 q 751 284 769 369 q 702 142 733 199 q 628 49 670 84 q 535 -2 585 14 q 433 -17 485 -17 z "},"T":{"ha":903,"x_min":98,"x_max":803,"o":"m 382 0 l 382 867 l 98 867 l 98 972 l 803 972 l 803 867 l 519 867 l 519 0 l 382 0 z "},"Ŧ":{"ha":903,"x_min":98,"x_max":803,"o":"m 199 438 l 199 535 l 708 535 l 708 438 l 199 438 m 382 0 l 382 867 l 98 867 l 98 972 l 803 972 l 803 867 l 519 867 l 519 0 l 382 0 z "},"Ť":{"ha":903,"x_min":98,"x_max":803,"o":"m 382 0 l 382 867 l 98 867 l 98 972 l 803 972 l 803 867 l 519 867 l 519 0 l 382 0 m 210 1205 l 342 1205 l 453 1109 l 563 1205 l 695 1205 l 499 1045 l 406 1045 l 210 1205 z "},"Ţ":{"ha":903,"x_min":98,"x_max":803,"o":"m 382 0 l 382 867 l 98 867 l 98 972 l 803 972 l 803 867 l 519 867 l 519 0 l 382 0 m 459 -283 q 419 -281 439 -283 q 380 -276 399 -279 q 344 -269 360 -273 q 313 -260 327 -265 l 344 -186 q 385 -199 365 -193 q 425 -207 404 -204 q 469 -210 446 -210 q 526 -202 502 -210 q 564 -178 550 -194 q 578 -144 578 -163 q 563 -112 578 -120 q 526 -105 548 -105 q 495 -110 511 -105 q 464 -122 478 -115 q 440 -138 449 -130 l 367 -119 l 410 0 l 497 0 l 456 -107 l 447 -93 q 471 -70 454 -81 q 511 -54 488 -60 q 560 -48 535 -48 q 612 -56 588 -48 q 651 -84 636 -65 q 667 -140 667 -104 q 640 -218 667 -186 q 567 -266 613 -250 q 459 -283 520 -283 z "},"Ț":{"ha":903,"x_min":98,"x_max":803,"o":"m 382 0 l 382 867 l 98 867 l 98 972 l 803 972 l 803 867 l 519 867 l 519 0 l 382 0 m 403 -365 l 369 -297 q 400 -284 384 -293 q 428 -257 417 -276 q 440 -207 440 -238 l 521 -210 q 500 -292 521 -260 q 451 -342 478 -324 q 403 -365 423 -359 m 381 -210 l 381 -72 l 521 -72 l 521 -210 l 381 -210 z "},"Ṭ":{"ha":903,"x_min":98,"x_max":803,"o":"m 382 0 l 382 867 l 98 867 l 98 972 l 803 972 l 803 867 l 519 867 l 519 0 l 382 0 m 380 -81 l 524 -81 l 524 -233 l 380 -233 l 380 -81 z "},"Ṯ":{"ha":903,"x_min":98,"x_max":803,"o":"m 382 0 l 382 867 l 98 867 l 98 972 l 803 972 l 803 867 l 519 867 l 519 0 l 382 0 m 233 -203 l 233 -118 l 669 -118 l 669 -203 l 233 -203 z "},"U":{"ha":903,"x_min":112,"x_max":792,"o":"m 453 -15 q 322 6 383 -15 q 213 74 260 28 q 139 196 165 121 q 112 378 112 272 l 112 972 l 249 972 l 249 384 q 274 221 249 285 q 344 126 299 157 q 453 95 390 95 q 561 126 516 95 q 631 221 607 157 q 655 384 655 285 l 655 972 l 792 972 l 792 378 q 766 196 792 272 q 693 74 740 121 q 585 6 647 28 q 453 -15 523 -15 z "},"Ú":{"ha":903,"x_min":112,"x_max":792,"o":"m 453 -15 q 322 6 383 -15 q 213 74 260 28 q 139 196 165 121 q 112 378 112 272 l 112 972 l 249 972 l 249 384 q 274 221 249 285 q 344 126 299 157 q 453 95 390 95 q 561 126 516 95 q 631 221 607 157 q 655 384 655 285 l 655 972 l 792 972 l 792 378 q 766 196 792 272 q 693 74 740 121 q 585 6 647 28 q 453 -15 523 -15 m 503 1061 l 374 1061 l 578 1258 l 730 1258 l 503 1061 z "},"Ŭ":{"ha":903,"x_min":112,"x_max":792,"o":"m 453 -15 q 322 6 383 -15 q 213 74 260 28 q 139 196 165 121 q 112 378 112 272 l 112 972 l 249 972 l 249 384 q 274 221 249 285 q 344 126 299 157 q 453 95 390 95 q 561 126 516 95 q 631 221 607 157 q 655 384 655 285 l 655 972 l 792 972 l 792 378 q 766 196 792 272 q 693 74 740 121 q 585 6 647 28 q 453 -15 523 -15 m 451 1049 q 341 1072 383 1049 q 278 1132 299 1094 q 258 1213 258 1169 l 359 1213 q 368 1171 359 1191 q 397 1139 376 1151 q 452 1126 417 1126 q 508 1139 488 1126 q 536 1171 528 1151 q 544 1213 544 1191 l 644 1213 q 624 1132 644 1169 q 560 1072 603 1094 q 451 1049 517 1049 z "},"Ǔ":{"ha":903,"x_min":112,"x_max":792,"o":"m 453 -15 q 322 6 383 -15 q 213 74 260 28 q 139 196 165 121 q 112 378 112 272 l 112 972 l 249 972 l 249 384 q 274 221 249 285 q 344 126 299 157 q 453 95 390 95 q 561 126 516 95 q 631 221 607 157 q 655 384 655 285 l 655 972 l 792 972 l 792 378 q 766 196 792 272 q 693 74 740 121 q 585 6 647 28 q 453 -15 523 -15 m 209 1250 l 332 1250 l 451 1130 l 570 1250 l 694 1250 l 498 1067 l 404 1067 l 209 1250 z "},"Û":{"ha":903,"x_min":112,"x_max":792,"o":"m 453 -15 q 322 6 383 -15 q 213 74 260 28 q 139 196 165 121 q 112 378 112 272 l 112 972 l 249 972 l 249 384 q 274 221 249 285 q 344 126 299 157 q 453 95 390 95 q 561 126 516 95 q 631 221 607 157 q 655 384 655 285 l 655 972 l 792 972 l 792 378 q 766 196 792 272 q 693 74 740 121 q 585 6 647 28 q 453 -15 523 -15 m 209 1063 l 404 1246 l 498 1246 l 694 1063 l 570 1063 l 451 1183 l 332 1063 l 209 1063 z "},"Ȕ":{"ha":903,"x_min":92,"x_max":792,"o":"m 453 -15 q 322 6 383 -15 q 213 74 260 28 q 139 196 165 121 q 112 378 112 272 l 112 972 l 249 972 l 249 384 q 274 221 249 285 q 344 126 299 157 q 453 95 390 95 q 561 126 516 95 q 631 221 607 157 q 655 384 655 285 l 655 972 l 792 972 l 792 378 q 766 196 792 272 q 693 74 740 121 q 585 6 647 28 q 453 -15 523 -15 m 531 1045 l 339 1235 l 462 1235 l 626 1045 l 531 1045 m 297 1045 l 92 1235 l 217 1235 l 394 1045 l 297 1045 z "},"Ü":{"ha":903,"x_min":112,"x_max":792,"o":"m 453 -15 q 322 6 383 -15 q 213 74 260 28 q 139 196 165 121 q 112 378 112 272 l 112 972 l 249 972 l 249 384 q 274 221 249 285 q 344 126 299 157 q 453 95 390 95 q 561 126 516 95 q 631 221 607 157 q 655 384 655 285 l 655 972 l 792 972 l 792 378 q 766 196 792 272 q 693 74 740 121 q 585 6 647 28 q 453 -15 523 -15 m 219 1228 l 363 1228 l 363 1070 l 219 1070 l 219 1228 m 540 1228 l 684 1228 l 684 1070 l 540 1070 l 540 1228 z "},"Ǘ":{"ha":903,"x_min":112,"x_max":792,"o":"m 453 -15 q 322 6 383 -15 q 213 74 260 28 q 139 196 165 121 q 112 378 112 272 l 112 972 l 249 972 l 249 384 q 274 221 249 285 q 344 126 299 157 q 453 95 390 95 q 561 126 516 95 q 631 221 607 157 q 655 384 655 285 l 655 972 l 792 972 l 792 378 q 766 196 792 272 q 693 74 740 121 q 585 6 647 28 q 453 -15 523 -15 m 219 1228 l 363 1228 l 363 1070 l 219 1070 l 219 1228 m 540 1228 l 684 1228 l 684 1070 l 540 1070 l 540 1228 m 503 1317 l 374 1317 l 578 1515 l 730 1515 l 503 1317 z "},"Ǚ":{"ha":903,"x_min":112,"x_max":792,"o":"m 453 -15 q 322 6 383 -15 q 213 74 260 28 q 139 196 165 121 q 112 378 112 272 l 112 972 l 249 972 l 249 384 q 274 221 249 285 q 344 126 299 157 q 453 95 390 95 q 561 126 516 95 q 631 221 607 157 q 655 384 655 285 l 655 972 l 792 972 l 792 378 q 766 196 792 272 q 693 74 740 121 q 585 6 647 28 q 453 -15 523 -15 m 219 1228 l 363 1228 l 363 1070 l 219 1070 l 219 1228 m 540 1228 l 684 1228 l 684 1070 l 540 1070 l 540 1228 m 209 1506 l 332 1506 l 451 1386 l 570 1506 l 694 1506 l 498 1323 l 404 1323 l 209 1506 z "},"Ǜ":{"ha":903,"x_min":112,"x_max":792,"o":"m 453 -15 q 322 6 383 -15 q 213 74 260 28 q 139 196 165 121 q 112 378 112 272 l 112 972 l 249 972 l 249 384 q 274 221 249 285 q 344 126 299 157 q 453 95 390 95 q 561 126 516 95 q 631 221 607 157 q 655 384 655 285 l 655 972 l 792 972 l 792 378 q 766 196 792 272 q 693 74 740 121 q 585 6 647 28 q 453 -15 523 -15 m 219 1228 l 363 1228 l 363 1070 l 219 1070 l 219 1228 m 540 1228 l 684 1228 l 684 1070 l 540 1070 l 540 1228 m 387 1317 l 160 1515 l 312 1515 l 516 1317 l 387 1317 z "},"Ǖ":{"ha":903,"x_min":112,"x_max":792,"o":"m 453 -15 q 322 6 383 -15 q 213 74 260 28 q 139 196 165 121 q 112 378 112 272 l 112 972 l 249 972 l 249 384 q 274 221 249 285 q 344 126 299 157 q 453 95 390 95 q 561 126 516 95 q 631 221 607 157 q 655 384 655 285 l 655 972 l 792 972 l 792 378 q 766 196 792 272 q 693 74 740 121 q 585 6 647 28 q 453 -15 523 -15 m 219 1228 l 363 1228 l 363 1070 l 219 1070 l 219 1228 m 540 1228 l 684 1228 l 684 1070 l 540 1070 l 540 1228 m 233 1339 l 233 1424 l 669 1424 l 669 1339 l 233 1339 z "},"Ụ":{"ha":903,"x_min":112,"x_max":792,"o":"m 453 -15 q 322 6 383 -15 q 213 74 260 28 q 139 196 165 121 q 112 378 112 272 l 112 972 l 249 972 l 249 384 q 274 221 249 285 q 344 126 299 157 q 453 95 390 95 q 561 126 516 95 q 631 221 607 157 q 655 384 655 285 l 655 972 l 792 972 l 792 378 q 766 196 792 272 q 693 74 740 121 q 585 6 647 28 q 453 -15 523 -15 m 379 -81 l 523 -81 l 523 -233 l 379 -233 l 379 -81 z "},"Ù":{"ha":903,"x_min":112,"x_max":792,"o":"m 453 -15 q 322 6 383 -15 q 213 74 260 28 q 139 196 165 121 q 112 378 112 272 l 112 972 l 249 972 l 249 384 q 274 221 249 285 q 344 126 299 157 q 453 95 390 95 q 561 126 516 95 q 631 221 607 157 q 655 384 655 285 l 655 972 l 792 972 l 792 378 q 766 196 792 272 q 693 74 740 121 q 585 6 647 28 q 453 -15 523 -15 m 387 1061 l 160 1258 l 312 1258 l 516 1061 l 387 1061 z "},"Ủ":{"ha":903,"x_min":112,"x_max":792,"o":"m 453 -15 q 322 6 383 -15 q 213 74 260 28 q 139 196 165 121 q 112 378 112 272 l 112 972 l 249 972 l 249 384 q 274 221 249 285 q 344 126 299 157 q 453 95 390 95 q 561 126 516 95 q 631 221 607 157 q 655 384 655 285 l 655 972 l 792 972 l 792 378 q 766 196 792 272 q 693 74 740 121 q 585 6 647 28 q 453 -15 523 -15 m 409 1040 l 409 1142 q 487 1146 454 1142 q 538 1160 519 1151 q 556 1183 556 1169 q 535 1206 556 1199 q 474 1217 515 1214 q 371 1221 433 1221 l 371 1292 q 520 1283 456 1292 q 620 1252 584 1274 q 656 1191 656 1231 q 629 1132 656 1153 q 564 1100 602 1110 q 492 1091 526 1091 l 492 1040 l 409 1040 z "},"Ư":{"ha":903,"x_min":112,"x_max":999,"o":"m 453 -15 q 322 6 383 -15 q 213 74 260 28 q 139 196 165 121 q 112 378 112 272 l 112 972 l 249 972 l 249 384 q 274 221 249 285 q 344 126 299 157 q 453 95 390 95 q 561 126 516 95 q 631 221 607 157 q 655 384 655 285 l 655 972 l 792 972 l 792 378 q 766 196 792 272 q 693 74 740 121 q 585 6 647 28 q 453 -15 523 -15 m 730 888 l 730 972 q 814 991 778 972 q 868 1050 849 1010 q 887 1153 887 1090 l 999 1153 q 975 1035 999 1085 q 913 953 952 985 q 827 904 874 920 q 730 888 779 888 z "},"Ứ":{"ha":903,"x_min":112,"x_max":999,"o":"m 453 -15 q 322 6 383 -15 q 213 74 260 28 q 139 196 165 121 q 112 378 112 272 l 112 972 l 249 972 l 249 384 q 274 221 249 285 q 344 126 299 157 q 453 95 390 95 q 561 126 516 95 q 631 221 607 157 q 655 384 655 285 l 655 972 l 792 972 l 792 378 q 766 196 792 272 q 693 74 740 121 q 585 6 647 28 q 453 -15 523 -15 m 730 888 l 730 972 q 814 991 778 972 q 868 1050 849 1010 q 887 1153 887 1090 l 999 1153 q 975 1035 999 1085 q 913 953 952 985 q 827 904 874 920 q 730 888 779 888 m 503 1061 l 374 1061 l 578 1258 l 730 1258 l 503 1061 z "},"Ự":{"ha":903,"x_min":112,"x_max":999,"o":"m 453 -15 q 322 6 383 -15 q 213 74 260 28 q 139 196 165 121 q 112 378 112 272 l 112 972 l 249 972 l 249 384 q 274 221 249 285 q 344 126 299 157 q 453 95 390 95 q 561 126 516 95 q 631 221 607 157 q 655 384 655 285 l 655 972 l 792 972 l 792 378 q 766 196 792 272 q 693 74 740 121 q 585 6 647 28 q 453 -15 523 -15 m 730 888 l 730 972 q 814 991 778 972 q 868 1050 849 1010 q 887 1153 887 1090 l 999 1153 q 975 1035 999 1085 q 913 953 952 985 q 827 904 874 920 q 730 888 779 888 m 379 -81 l 523 -81 l 523 -233 l 379 -233 l 379 -81 z "},"Ừ":{"ha":903,"x_min":112,"x_max":999,"o":"m 453 -15 q 322 6 383 -15 q 213 74 260 28 q 139 196 165 121 q 112 378 112 272 l 112 972 l 249 972 l 249 384 q 274 221 249 285 q 344 126 299 157 q 453 95 390 95 q 561 126 516 95 q 631 221 607 157 q 655 384 655 285 l 655 972 l 792 972 l 792 378 q 766 196 792 272 q 693 74 740 121 q 585 6 647 28 q 453 -15 523 -15 m 730 888 l 730 972 q 814 991 778 972 q 868 1050 849 1010 q 887 1153 887 1090 l 999 1153 q 975 1035 999 1085 q 913 953 952 985 q 827 904 874 920 q 730 888 779 888 m 387 1061 l 160 1258 l 312 1258 l 516 1061 l 387 1061 z "},"Ử":{"ha":903,"x_min":112,"x_max":999,"o":"m 453 -15 q 322 6 383 -15 q 213 74 260 28 q 139 196 165 121 q 112 378 112 272 l 112 972 l 249 972 l 249 384 q 274 221 249 285 q 344 126 299 157 q 453 95 390 95 q 561 126 516 95 q 631 221 607 157 q 655 384 655 285 l 655 972 l 792 972 l 792 378 q 766 196 792 272 q 693 74 740 121 q 585 6 647 28 q 453 -15 523 -15 m 730 888 l 730 972 q 814 991 778 972 q 868 1050 849 1010 q 887 1153 887 1090 l 999 1153 q 975 1035 999 1085 q 913 953 952 985 q 827 904 874 920 q 730 888 779 888 m 409 1040 l 409 1142 q 487 1146 454 1142 q 538 1160 519 1151 q 556 1183 556 1169 q 535 1206 556 1199 q 474 1217 515 1214 q 371 1221 433 1221 l 371 1292 q 520 1283 456 1292 q 620 1252 584 1274 q 656 1191 656 1231 q 629 1132 656 1153 q 564 1100 602 1110 q 492 1091 526 1091 l 492 1040 l 409 1040 z "},"Ữ":{"ha":903,"x_min":112,"x_max":999,"o":"m 453 -15 q 322 6 383 -15 q 213 74 260 28 q 139 196 165 121 q 112 378 112 272 l 112 972 l 249 972 l 249 384 q 274 221 249 285 q 344 126 299 157 q 453 95 390 95 q 561 126 516 95 q 631 221 607 157 q 655 384 655 285 l 655 972 l 792 972 l 792 378 q 766 196 792 272 q 693 74 740 121 q 585 6 647 28 q 453 -15 523 -15 m 730 888 l 730 972 q 814 991 778 972 q 868 1050 849 1010 q 887 1153 887 1090 l 999 1153 q 975 1035 999 1085 q 913 953 952 985 q 827 904 874 920 q 730 888 779 888 m 528 1054 q 474 1067 495 1054 q 436 1095 453 1081 q 407 1117 422 1108 q 373 1126 392 1126 q 320 1102 339 1126 q 293 1061 301 1078 l 232 1112 q 254 1150 236 1126 q 301 1193 272 1174 q 369 1213 330 1213 q 422 1200 400 1213 q 460 1172 443 1187 q 491 1149 476 1158 q 525 1139 506 1139 q 578 1164 558 1139 q 604 1206 597 1189 l 663 1153 q 643 1116 659 1139 q 599 1073 627 1092 q 528 1054 570 1054 z "},"Ű":{"ha":903,"x_min":112,"x_max":792,"o":"m 453 -15 q 322 6 383 -15 q 213 74 260 28 q 139 196 165 121 q 112 378 112 272 l 112 972 l 249 972 l 249 384 q 274 221 249 285 q 344 126 299 157 q 453 95 390 95 q 561 126 516 95 q 631 221 607 157 q 655 384 655 285 l 655 972 l 792 972 l 792 378 q 766 196 792 272 q 693 74 740 121 q 585 6 647 28 q 453 -15 523 -15 m 488 1063 l 616 1261 l 749 1261 l 586 1063 l 488 1063 m 289 1063 l 383 1261 l 513 1261 l 390 1063 l 289 1063 z "},"Ȗ":{"ha":903,"x_min":112,"x_max":792,"o":"m 453 -15 q 322 6 383 -15 q 213 74 260 28 q 139 196 165 121 q 112 378 112 272 l 112 972 l 249 972 l 249 384 q 274 221 249 285 q 344 126 299 157 q 453 95 390 95 q 561 126 516 95 q 631 221 607 157 q 655 384 655 285 l 655 972 l 792 972 l 792 378 q 766 196 792 272 q 693 74 740 121 q 585 6 647 28 q 453 -15 523 -15 m 453 1227 q 540 1210 503 1227 q 599 1166 576 1193 q 633 1108 622 1140 q 644 1048 644 1077 l 544 1048 q 536 1090 544 1067 q 508 1131 528 1113 q 451 1148 488 1148 q 394 1131 414 1148 q 367 1090 374 1113 q 359 1048 359 1067 l 258 1048 q 270 1108 258 1077 q 305 1166 281 1140 q 366 1210 329 1193 q 453 1227 402 1227 z "},"Ū":{"ha":903,"x_min":112,"x_max":792,"o":"m 453 -15 q 322 6 383 -15 q 213 74 260 28 q 139 196 165 121 q 112 378 112 272 l 112 972 l 249 972 l 249 384 q 274 221 249 285 q 344 126 299 157 q 453 95 390 95 q 561 126 516 95 q 631 221 607 157 q 655 384 655 285 l 655 972 l 792 972 l 792 378 q 766 196 792 272 q 693 74 740 121 q 585 6 647 28 q 453 -15 523 -15 m 233 1083 l 233 1167 l 669 1167 l 669 1083 l 233 1083 z "},"Ṻ":{"ha":903,"x_min":112,"x_max":792,"o":"m 453 -15 q 322 6 383 -15 q 213 74 260 28 q 139 196 165 121 q 112 378 112 272 l 112 972 l 249 972 l 249 384 q 274 221 249 285 q 344 126 299 157 q 453 95 390 95 q 561 126 516 95 q 631 221 607 157 q 655 384 655 285 l 655 972 l 792 972 l 792 378 q 766 196 792 272 q 693 74 740 121 q 585 6 647 28 q 453 -15 523 -15 m 233 1050 l 233 1135 l 669 1135 l 669 1050 l 233 1050 m 228 1376 l 366 1376 l 366 1225 l 228 1225 l 228 1376 m 535 1376 l 674 1376 l 674 1225 l 535 1225 l 535 1376 z "},"Ų":{"ha":903,"x_min":112,"x_max":792,"o":"m 453 -15 q 322 6 383 -15 q 213 74 260 28 q 139 196 165 121 q 112 378 112 272 l 112 972 l 249 972 l 249 384 q 274 221 249 285 q 344 126 299 157 q 453 95 390 95 q 561 126 516 95 q 631 221 607 157 q 655 384 655 285 l 655 972 l 792 972 l 792 378 q 766 196 792 272 q 693 74 740 121 q 585 6 647 28 q 453 -15 523 -15 m 744 -140 l 744 -230 q 691 -240 723 -236 q 627 -243 660 -243 q 550 -231 586 -243 q 492 -193 515 -219 q 470 -124 470 -167 q 485 -51 470 -85 q 522 9 500 -17 q 566 50 544 35 l 665 50 q 604 -17 632 24 q 576 -95 576 -57 q 588 -130 576 -117 q 617 -148 600 -143 q 653 -153 635 -153 q 686 -152 669 -153 q 719 -147 703 -150 q 744 -140 734 -144 z "},"Ů":{"ha":903,"x_min":112,"x_max":792,"o":"m 453 -15 q 322 6 383 -15 q 213 74 260 28 q 139 196 165 121 q 112 378 112 272 l 112 972 l 249 972 l 249 384 q 274 221 249 285 q 344 126 299 157 q 453 95 390 95 q 561 126 516 95 q 631 221 607 157 q 655 384 655 285 l 655 972 l 792 972 l 792 378 q 766 196 792 272 q 693 74 740 121 q 585 6 647 28 q 453 -15 523 -15 m 453 1031 q 385 1048 416 1031 q 336 1095 355 1065 q 318 1164 318 1126 q 336 1230 318 1200 q 385 1278 355 1260 q 453 1296 416 1296 q 518 1278 488 1296 q 567 1230 549 1260 q 585 1164 585 1200 q 567 1095 585 1126 q 518 1048 549 1065 q 453 1031 488 1031 m 453 1105 q 494 1121 477 1105 q 510 1165 510 1138 q 494 1204 510 1189 q 453 1219 477 1219 q 411 1204 428 1219 q 394 1165 394 1189 q 411 1121 394 1138 q 453 1105 428 1105 z "},"Ũ":{"ha":903,"x_min":112,"x_max":792,"o":"m 453 -15 q 322 6 383 -15 q 213 74 260 28 q 139 196 165 121 q 112 378 112 272 l 112 972 l 249 972 l 249 384 q 274 221 249 285 q 344 126 299 157 q 453 95 390 95 q 561 126 516 95 q 631 221 607 157 q 655 384 655 285 l 655 972 l 792 972 l 792 378 q 766 196 792 272 q 693 74 740 121 q 585 6 647 28 q 453 -15 523 -15 m 528 1054 q 474 1067 495 1054 q 436 1095 453 1081 q 407 1117 422 1108 q 373 1126 392 1126 q 320 1102 339 1126 q 293 1061 301 1078 l 232 1112 q 254 1150 236 1126 q 301 1193 272 1174 q 369 1213 330 1213 q 422 1200 400 1213 q 460 1172 443 1187 q 491 1149 476 1158 q 525 1139 506 1139 q 578 1164 558 1139 q 604 1206 597 1189 l 663 1153 q 643 1116 659 1139 q 599 1073 627 1092 q 528 1054 570 1054 z "},"Ṹ":{"ha":903,"x_min":112,"x_max":792,"o":"m 453 -15 q 322 6 383 -15 q 213 74 260 28 q 139 196 165 121 q 112 378 112 272 l 112 972 l 249 972 l 249 384 q 274 221 249 285 q 344 126 299 157 q 453 95 390 95 q 561 126 516 95 q 631 221 607 157 q 655 384 655 285 l 655 972 l 792 972 l 792 378 q 766 196 792 272 q 693 74 740 121 q 585 6 647 28 q 453 -15 523 -15 m 531 1056 q 478 1069 499 1056 q 440 1097 457 1082 q 410 1118 425 1109 q 376 1128 396 1128 q 323 1103 342 1128 q 297 1063 303 1079 l 235 1113 q 257 1151 240 1127 q 303 1194 274 1175 q 372 1214 333 1214 q 425 1201 403 1214 q 463 1173 447 1188 q 494 1150 479 1160 q 528 1140 508 1140 q 581 1165 562 1140 q 608 1207 601 1190 l 667 1155 q 647 1117 663 1140 q 602 1075 631 1094 q 531 1056 574 1056 m 511 1295 l 381 1295 l 585 1481 l 738 1481 l 511 1295 z "},"V":{"ha":903,"x_min":77,"x_max":803,"o":"m 328 0 l 77 972 l 219 972 l 438 106 l 443 106 l 661 972 l 803 972 l 552 0 l 328 0 z "},"W":{"ha":1181,"x_min":63,"x_max":1118,"o":"m 767 0 l 590 786 l 572 966 l 654 966 l 854 96 l 842 0 l 767 0 m 237 0 l 63 972 l 208 972 l 338 100 l 351 0 l 237 0 m 334 0 l 324 96 l 526 966 l 609 966 l 593 786 l 413 0 l 334 0 m 825 0 l 840 100 l 973 972 l 1118 972 l 943 0 l 825 0 z "},"Ẃ":{"ha":1181,"x_min":63,"x_max":1118,"o":"m 767 0 l 590 786 l 572 966 l 654 966 l 854 96 l 842 0 l 767 0 m 237 0 l 63 972 l 208 972 l 338 100 l 351 0 l 237 0 m 334 0 l 324 96 l 526 966 l 609 966 l 593 786 l 413 0 l 334 0 m 825 0 l 840 100 l 973 972 l 1118 972 l 943 0 l 825 0 m 640 1061 l 510 1061 l 715 1258 l 867 1258 l 640 1061 z "},"Ŵ":{"ha":1181,"x_min":63,"x_max":1118,"o":"m 767 0 l 590 786 l 572 966 l 654 966 l 854 96 l 842 0 l 767 0 m 237 0 l 63 972 l 208 972 l 338 100 l 351 0 l 237 0 m 334 0 l 324 96 l 526 966 l 609 966 l 593 786 l 413 0 l 334 0 m 825 0 l 840 100 l 973 972 l 1118 972 l 943 0 l 825 0 m 346 1063 l 541 1246 l 635 1246 l 831 1063 l 707 1063 l 588 1183 l 469 1063 l 346 1063 z "},"Ẅ":{"ha":1181,"x_min":63,"x_max":1118,"o":"m 767 0 l 590 786 l 572 966 l 654 966 l 854 96 l 842 0 l 767 0 m 237 0 l 63 972 l 208 972 l 338 100 l 351 0 l 237 0 m 334 0 l 324 96 l 526 966 l 609 966 l 593 786 l 413 0 l 334 0 m 825 0 l 840 100 l 973 972 l 1118 972 l 943 0 l 825 0 m 356 1228 l 499 1228 l 499 1070 l 356 1070 l 356 1228 m 677 1228 l 821 1228 l 821 1070 l 677 1070 l 677 1228 z "},"Ẁ":{"ha":1181,"x_min":63,"x_max":1118,"o":"m 767 0 l 590 786 l 572 966 l 654 966 l 854 96 l 842 0 l 767 0 m 237 0 l 63 972 l 208 972 l 338 100 l 351 0 l 237 0 m 334 0 l 324 96 l 526 966 l 609 966 l 593 786 l 413 0 l 334 0 m 825 0 l 840 100 l 973 972 l 1118 972 l 943 0 l 825 0 m 524 1061 l 297 1258 l 449 1258 l 653 1061 l 524 1061 z "},"X":{"ha":903,"x_min":85,"x_max":810,"o":"m 85 0 l 309 478 l 85 972 l 238 972 l 431 533 l 456 533 l 657 972 l 810 972 l 578 478 l 810 0 l 657 0 l 456 428 l 431 428 l 238 0 l 85 0 z "},"Y":{"ha":903,"x_min":86,"x_max":803,"o":"m 376 0 l 376 356 l 86 972 l 230 972 l 445 485 l 659 972 l 803 972 l 514 356 l 514 0 l 376 0 z "},"Ý":{"ha":903,"x_min":86,"x_max":803,"o":"m 376 0 l 376 356 l 86 972 l 230 972 l 445 485 l 659 972 l 803 972 l 514 356 l 514 0 l 376 0 m 496 1061 l 366 1061 l 570 1258 l 722 1258 l 496 1061 z "},"Ŷ":{"ha":903,"x_min":86,"x_max":803,"o":"m 376 0 l 376 356 l 86 972 l 230 972 l 445 485 l 659 972 l 803 972 l 514 356 l 514 0 l 376 0 m 201 1063 l 397 1246 l 490 1246 l 686 1063 l 563 1063 l 444 1183 l 324 1063 l 201 1063 z "},"Ÿ":{"ha":903,"x_min":86,"x_max":803,"o":"m 376 0 l 376 356 l 86 972 l 230 972 l 445 485 l 659 972 l 803 972 l 514 356 l 514 0 l 376 0 m 211 1228 l 355 1228 l 355 1070 l 211 1070 l 211 1228 m 533 1228 l 676 1228 l 676 1070 l 533 1070 l 533 1228 z "},"Ẏ":{"ha":903,"x_min":86,"x_max":803,"o":"m 376 0 l 376 356 l 86 972 l 230 972 l 445 485 l 659 972 l 803 972 l 514 356 l 514 0 l 376 0 m 378 1215 l 510 1215 l 510 1063 l 378 1063 l 378 1215 z "},"Ỵ":{"ha":903,"x_min":86,"x_max":803,"o":"m 376 0 l 376 356 l 86 972 l 230 972 l 445 485 l 659 972 l 803 972 l 514 356 l 514 0 l 376 0 m 372 -81 l 515 -81 l 515 -233 l 372 -233 l 372 -81 z "},"Ỳ":{"ha":903,"x_min":86,"x_max":803,"o":"m 376 0 l 376 356 l 86 972 l 230 972 l 445 485 l 659 972 l 803 972 l 514 356 l 514 0 l 376 0 m 379 1061 l 152 1258 l 304 1258 l 508 1061 l 379 1061 z "},"Ỷ":{"ha":903,"x_min":86,"x_max":803,"o":"m 376 0 l 376 356 l 86 972 l 230 972 l 445 485 l 659 972 l 803 972 l 514 356 l 514 0 l 376 0 m 401 1040 l 401 1142 q 479 1146 447 1142 q 530 1160 512 1151 q 548 1183 548 1169 q 527 1206 548 1199 q 466 1217 507 1214 q 363 1221 425 1221 l 363 1292 q 512 1283 448 1292 q 613 1252 576 1274 q 649 1191 649 1231 q 622 1132 649 1153 q 557 1100 594 1110 q 485 1091 519 1091 l 485 1040 l 401 1040 z "},"Ȳ":{"ha":903,"x_min":86,"x_max":803,"o":"m 376 0 l 376 356 l 86 972 l 230 972 l 445 485 l 659 972 l 803 972 l 514 356 l 514 0 l 376 0 m 226 1050 l 226 1135 l 662 1135 l 662 1050 l 226 1050 z "},"Ỹ":{"ha":903,"x_min":86,"x_max":803,"o":"m 376 0 l 376 356 l 86 972 l 230 972 l 445 485 l 659 972 l 803 972 l 514 356 l 514 0 l 376 0 m 520 1054 q 467 1067 488 1054 q 428 1095 446 1081 q 399 1117 414 1108 q 365 1126 385 1126 q 312 1102 331 1126 q 285 1061 293 1078 l 224 1112 q 246 1150 228 1126 q 293 1193 264 1174 q 361 1213 322 1213 q 414 1200 392 1213 q 453 1172 435 1187 q 483 1149 468 1158 q 517 1139 498 1139 q 570 1164 551 1139 q 597 1206 590 1189 l 656 1153 q 635 1116 651 1139 q 591 1073 619 1092 q 520 1054 563 1054 z "},"Z":{"ha":903,"x_min":144,"x_max":758,"o":"m 144 0 l 144 106 l 606 867 l 156 867 l 156 972 l 747 972 l 747 867 l 285 106 l 758 106 l 758 0 l 144 0 z "},"Ź":{"ha":903,"x_min":144,"x_max":758,"o":"m 144 0 l 144 106 l 606 867 l 156 867 l 156 972 l 747 972 l 747 867 l 285 106 l 758 106 l 758 0 l 144 0 m 485 1061 l 356 1061 l 560 1258 l 712 1258 l 485 1061 z "},"Ž":{"ha":903,"x_min":144,"x_max":758,"o":"m 144 0 l 144 106 l 606 867 l 156 867 l 156 972 l 747 972 l 747 867 l 285 106 l 758 106 l 758 0 l 144 0 m 192 1250 l 315 1250 l 434 1130 l 553 1250 l 676 1250 l 481 1067 l 387 1067 l 192 1250 z "},"Ż":{"ha":903,"x_min":144,"x_max":758,"o":"m 144 0 l 144 106 l 606 867 l 156 867 l 156 972 l 747 972 l 747 867 l 285 106 l 758 106 l 758 0 l 144 0 m 362 1262 l 506 1262 l 506 1104 l 362 1104 l 362 1262 z "},"Ẓ":{"ha":903,"x_min":144,"x_max":758,"o":"m 144 0 l 144 106 l 606 867 l 156 867 l 156 972 l 747 972 l 747 867 l 285 106 l 758 106 l 758 0 l 144 0 m 362 -81 l 506 -81 l 506 -233 l 362 -233 l 362 -81 z "},"a":{"ha":903,"x_min":113,"x_max":844,"o":"m 383 -15 q 275 0 324 -15 q 189 43 225 15 q 133 115 153 72 q 113 212 113 157 q 130 294 113 258 q 175 356 146 330 q 241 398 204 381 q 319 423 278 415 q 401 431 360 431 q 492 420 451 431 q 562 394 533 410 q 603 365 591 379 l 603 465 q 588 529 603 503 q 547 572 573 556 q 489 595 522 588 q 422 602 457 602 q 353 595 386 602 q 292 577 321 588 q 242 554 264 567 q 204 531 219 542 l 142 633 q 210 669 167 651 q 310 699 253 688 q 431 711 367 711 q 517 704 474 711 q 601 681 561 697 q 673 639 641 665 q 722 573 704 612 q 740 482 740 535 l 740 106 l 844 106 l 844 0 l 629 0 l 616 89 q 573 42 603 66 q 494 1 542 18 q 383 -15 447 -15 m 417 90 q 507 106 469 90 q 569 143 545 122 q 603 183 593 165 l 603 269 q 563 303 591 286 q 498 331 535 319 q 424 342 461 342 q 340 329 380 342 q 274 290 300 317 q 249 218 249 263 q 270 145 249 174 q 329 103 291 117 q 417 90 367 90 z "},"á":{"ha":903,"x_min":113,"x_max":844,"o":"m 383 -15 q 275 0 324 -15 q 189 43 225 15 q 133 115 153 72 q 113 212 113 157 q 130 294 113 258 q 175 356 146 330 q 241 398 204 381 q 319 423 278 415 q 401 431 360 431 q 492 420 451 431 q 562 394 533 410 q 603 365 591 379 l 603 465 q 588 529 603 503 q 547 572 573 556 q 489 595 522 588 q 422 602 457 602 q 353 595 386 602 q 292 577 321 588 q 242 554 264 567 q 204 531 219 542 l 142 633 q 210 669 167 651 q 310 699 253 688 q 431 711 367 711 q 517 704 474 711 q 601 681 561 697 q 673 639 641 665 q 722 573 704 612 q 740 482 740 535 l 740 106 l 844 106 l 844 0 l 629 0 l 616 89 q 573 42 603 66 q 494 1 542 18 q 383 -15 447 -15 m 417 90 q 507 106 469 90 q 569 143 545 122 q 603 183 593 165 l 603 269 q 563 303 591 286 q 498 331 535 319 q 424 342 461 342 q 340 329 380 342 q 274 290 300 317 q 249 218 249 263 q 270 145 249 174 q 329 103 291 117 q 417 90 367 90 m 491 783 l 361 783 l 565 981 l 717 981 l 491 783 z "},"ă":{"ha":903,"x_min":113,"x_max":844,"o":"m 383 -15 q 275 0 324 -15 q 189 43 225 15 q 133 115 153 72 q 113 212 113 157 q 130 294 113 258 q 175 356 146 330 q 241 398 204 381 q 319 423 278 415 q 401 431 360 431 q 492 420 451 431 q 562 394 533 410 q 603 365 591 379 l 603 465 q 588 529 603 503 q 547 572 573 556 q 489 595 522 588 q 422 602 457 602 q 353 595 386 602 q 292 577 321 588 q 242 554 264 567 q 204 531 219 542 l 142 633 q 210 669 167 651 q 310 699 253 688 q 431 711 367 711 q 517 704 474 711 q 601 681 561 697 q 673 639 641 665 q 722 573 704 612 q 740 482 740 535 l 740 106 l 844 106 l 844 0 l 629 0 l 616 89 q 573 42 603 66 q 494 1 542 18 q 383 -15 447 -15 m 417 90 q 507 106 469 90 q 569 143 545 122 q 603 183 593 165 l 603 269 q 563 303 591 286 q 498 331 535 319 q 424 342 461 342 q 340 329 380 342 q 274 290 300 317 q 249 218 249 263 q 270 145 249 174 q 329 103 291 117 q 417 90 367 90 m 438 785 q 329 814 372 785 q 267 886 287 842 q 247 972 247 929 l 347 972 q 355 924 347 949 q 383 881 363 899 q 440 863 403 863 q 497 881 477 863 q 524 924 517 899 q 532 972 532 949 l 633 972 q 612 886 633 929 q 549 814 592 842 q 438 785 506 785 z "},"ắ":{"ha":903,"x_min":113,"x_max":844,"o":"m 383 -15 q 275 0 324 -15 q 189 43 225 15 q 133 115 153 72 q 113 212 113 157 q 130 294 113 258 q 175 356 146 330 q 241 398 204 381 q 319 423 278 415 q 401 431 360 431 q 492 420 451 431 q 562 394 533 410 q 603 365 591 379 l 603 465 q 588 529 603 503 q 547 572 573 556 q 489 595 522 588 q 422 602 457 602 q 353 595 386 602 q 292 577 321 588 q 242 554 264 567 q 204 531 219 542 l 142 633 q 210 669 167 651 q 310 699 253 688 q 431 711 367 711 q 517 704 474 711 q 601 681 561 697 q 673 639 641 665 q 722 573 704 612 q 740 482 740 535 l 740 106 l 844 106 l 844 0 l 629 0 l 616 89 q 573 42 603 66 q 494 1 542 18 q 383 -15 447 -15 m 417 90 q 507 106 469 90 q 569 143 545 122 q 603 183 593 165 l 603 269 q 563 303 591 286 q 498 331 535 319 q 424 342 461 342 q 340 329 380 342 q 274 290 300 317 q 249 218 249 263 q 270 145 249 174 q 329 103 291 117 q 417 90 367 90 m 438 785 q 329 814 372 785 q 267 886 287 842 q 247 972 247 929 l 347 972 q 355 924 347 949 q 383 881 363 899 q 440 863 403 863 q 497 881 477 863 q 524 924 517 899 q 532 972 532 949 l 633 972 q 612 886 633 929 q 549 814 592 842 q 438 785 506 785 m 477 1010 l 347 1010 l 551 1207 l 703 1207 l 477 1010 z "},"ặ":{"ha":903,"x_min":113,"x_max":844,"o":"m 383 -15 q 275 0 324 -15 q 189 43 225 15 q 133 115 153 72 q 113 212 113 157 q 130 294 113 258 q 175 356 146 330 q 241 398 204 381 q 319 423 278 415 q 401 431 360 431 q 492 420 451 431 q 562 394 533 410 q 603 365 591 379 l 603 465 q 588 529 603 503 q 547 572 573 556 q 489 595 522 588 q 422 602 457 602 q 353 595 386 602 q 292 577 321 588 q 242 554 264 567 q 204 531 219 542 l 142 633 q 210 669 167 651 q 310 699 253 688 q 431 711 367 711 q 517 704 474 711 q 601 681 561 697 q 673 639 641 665 q 722 573 704 612 q 740 482 740 535 l 740 106 l 844 106 l 844 0 l 629 0 l 616 89 q 573 42 603 66 q 494 1 542 18 q 383 -15 447 -15 m 417 90 q 507 106 469 90 q 569 143 545 122 q 603 183 593 165 l 603 269 q 563 303 591 286 q 498 331 535 319 q 424 342 461 342 q 340 329 380 342 q 274 290 300 317 q 249 218 249 263 q 270 145 249 174 q 329 103 291 117 q 417 90 367 90 m 374 -81 l 518 -81 l 518 -233 l 374 -233 l 374 -81 m 438 785 q 329 814 372 785 q 267 886 287 842 q 247 972 247 929 l 347 972 q 355 924 347 949 q 383 881 363 899 q 440 863 403 863 q 497 881 477 863 q 524 924 517 899 q 532 972 532 949 l 633 972 q 612 886 633 929 q 549 814 592 842 q 438 785 506 785 z "},"ằ":{"ha":903,"x_min":113,"x_max":844,"o":"m 383 -15 q 275 0 324 -15 q 189 43 225 15 q 133 115 153 72 q 113 212 113 157 q 130 294 113 258 q 175 356 146 330 q 241 398 204 381 q 319 423 278 415 q 401 431 360 431 q 492 420 451 431 q 562 394 533 410 q 603 365 591 379 l 603 465 q 588 529 603 503 q 547 572 573 556 q 489 595 522 588 q 422 602 457 602 q 353 595 386 602 q 292 577 321 588 q 242 554 264 567 q 204 531 219 542 l 142 633 q 210 669 167 651 q 310 699 253 688 q 431 711 367 711 q 517 704 474 711 q 601 681 561 697 q 673 639 641 665 q 722 573 704 612 q 740 482 740 535 l 740 106 l 844 106 l 844 0 l 629 0 l 616 89 q 573 42 603 66 q 494 1 542 18 q 383 -15 447 -15 m 417 90 q 507 106 469 90 q 569 143 545 122 q 603 183 593 165 l 603 269 q 563 303 591 286 q 498 331 535 319 q 424 342 461 342 q 340 329 380 342 q 274 290 300 317 q 249 218 249 263 q 270 145 249 174 q 329 103 291 117 q 417 90 367 90 m 438 785 q 329 814 372 785 q 267 886 287 842 q 247 972 247 929 l 347 972 q 355 924 347 949 q 383 881 363 899 q 440 863 403 863 q 497 881 477 863 q 524 924 517 899 q 532 972 532 949 l 633 972 q 612 886 633 929 q 549 814 592 842 q 438 785 506 785 m 374 1060 l 147 1258 l 299 1258 l 503 1060 l 374 1060 z "},"ẳ":{"ha":903,"x_min":113,"x_max":844,"o":"m 383 -15 q 275 0 324 -15 q 189 43 225 15 q 133 115 153 72 q 113 212 113 157 q 130 294 113 258 q 175 356 146 330 q 241 398 204 381 q 319 423 278 415 q 401 431 360 431 q 492 420 451 431 q 562 394 533 410 q 603 365 591 379 l 603 465 q 588 529 603 503 q 547 572 573 556 q 489 595 522 588 q 422 602 457 602 q 353 595 386 602 q 292 577 321 588 q 242 554 264 567 q 204 531 219 542 l 142 633 q 210 669 167 651 q 310 699 253 688 q 431 711 367 711 q 517 704 474 711 q 601 681 561 697 q 673 639 641 665 q 722 573 704 612 q 740 482 740 535 l 740 106 l 844 106 l 844 0 l 629 0 l 616 89 q 573 42 603 66 q 494 1 542 18 q 383 -15 447 -15 m 417 90 q 507 106 469 90 q 569 143 545 122 q 603 183 593 165 l 603 269 q 563 303 591 286 q 498 331 535 319 q 424 342 461 342 q 340 329 380 342 q 274 290 300 317 q 249 218 249 263 q 270 145 249 174 q 329 103 291 117 q 417 90 367 90 m 438 785 q 329 814 372 785 q 267 886 287 842 q 247 972 247 929 l 347 972 q 355 924 347 949 q 383 881 363 899 q 440 863 403 863 q 497 881 477 863 q 524 924 517 899 q 532 972 532 949 l 633 972 q 612 886 633 929 q 549 814 592 842 q 438 785 506 785 m 396 1033 l 396 1134 q 473 1139 440 1134 q 524 1152 506 1143 q 542 1175 542 1161 q 521 1198 542 1190 q 460 1209 501 1206 q 358 1213 419 1213 l 358 1283 q 506 1275 442 1283 q 606 1244 570 1266 q 642 1183 642 1223 q 616 1124 642 1145 q 551 1093 589 1102 q 478 1083 513 1083 l 478 1033 l 396 1033 z "},"ẵ":{"ha":903,"x_min":113,"x_max":844,"o":"m 383 -15 q 275 0 324 -15 q 189 43 225 15 q 133 115 153 72 q 113 212 113 157 q 130 294 113 258 q 175 356 146 330 q 241 398 204 381 q 319 423 278 415 q 401 431 360 431 q 492 420 451 431 q 562 394 533 410 q 603 365 591 379 l 603 465 q 588 529 603 503 q 547 572 573 556 q 489 595 522 588 q 422 602 457 602 q 353 595 386 602 q 292 577 321 588 q 242 554 264 567 q 204 531 219 542 l 142 633 q 210 669 167 651 q 310 699 253 688 q 431 711 367 711 q 517 704 474 711 q 601 681 561 697 q 673 639 641 665 q 722 573 704 612 q 740 482 740 535 l 740 106 l 844 106 l 844 0 l 629 0 l 616 89 q 573 42 603 66 q 494 1 542 18 q 383 -15 447 -15 m 417 90 q 507 106 469 90 q 569 143 545 122 q 603 183 593 165 l 603 269 q 563 303 591 286 q 498 331 535 319 q 424 342 461 342 q 340 329 380 342 q 274 290 300 317 q 249 218 249 263 q 270 145 249 174 q 329 103 291 117 q 417 90 367 90 m 438 785 q 329 814 372 785 q 267 886 287 842 q 247 972 247 929 l 347 972 q 355 924 347 949 q 383 881 363 899 q 440 863 403 863 q 497 881 477 863 q 524 924 517 899 q 532 972 532 949 l 633 972 q 612 886 633 929 q 549 814 592 842 q 438 785 506 785 m 516 1053 q 462 1067 483 1053 q 424 1094 441 1080 q 395 1116 410 1106 q 361 1126 380 1126 q 307 1101 326 1126 q 281 1060 288 1077 l 220 1111 q 242 1149 224 1125 q 288 1192 259 1173 q 356 1212 317 1212 q 409 1199 388 1212 q 448 1171 431 1185 q 478 1148 463 1158 q 513 1138 493 1138 q 566 1163 547 1138 q 592 1204 585 1188 l 651 1153 q 631 1115 647 1138 q 587 1072 615 1091 q 516 1053 558 1053 z "},"ǎ":{"ha":903,"x_min":113,"x_max":844,"o":"m 383 -15 q 275 0 324 -15 q 189 43 225 15 q 133 115 153 72 q 113 212 113 157 q 130 294 113 258 q 175 356 146 330 q 241 398 204 381 q 319 423 278 415 q 401 431 360 431 q 492 420 451 431 q 562 394 533 410 q 603 365 591 379 l 603 465 q 588 529 603 503 q 547 572 573 556 q 489 595 522 588 q 422 602 457 602 q 353 595 386 602 q 292 577 321 588 q 242 554 264 567 q 204 531 219 542 l 142 633 q 210 669 167 651 q 310 699 253 688 q 431 711 367 711 q 517 704 474 711 q 601 681 561 697 q 673 639 641 665 q 722 573 704 612 q 740 482 740 535 l 740 106 l 844 106 l 844 0 l 629 0 l 616 89 q 573 42 603 66 q 494 1 542 18 q 383 -15 447 -15 m 417 90 q 507 106 469 90 q 569 143 545 122 q 603 183 593 165 l 603 269 q 563 303 591 286 q 498 331 535 319 q 424 342 461 342 q 340 329 380 342 q 274 290 300 317 q 249 218 249 263 q 270 145 249 174 q 329 103 291 117 q 417 90 367 90 m 197 972 l 320 972 l 440 852 l 558 972 l 682 972 l 486 789 l 392 789 l 197 972 z "},"â":{"ha":903,"x_min":113,"x_max":844,"o":"m 383 -15 q 275 0 324 -15 q 189 43 225 15 q 133 115 153 72 q 113 212 113 157 q 130 294 113 258 q 175 356 146 330 q 241 398 204 381 q 319 423 278 415 q 401 431 360 431 q 492 420 451 431 q 562 394 533 410 q 603 365 591 379 l 603 465 q 588 529 603 503 q 547 572 573 556 q 489 595 522 588 q 422 602 457 602 q 353 595 386 602 q 292 577 321 588 q 242 554 264 567 q 204 531 219 542 l 142 633 q 210 669 167 651 q 310 699 253 688 q 431 711 367 711 q 517 704 474 711 q 601 681 561 697 q 673 639 641 665 q 722 573 704 612 q 740 482 740 535 l 740 106 l 844 106 l 844 0 l 629 0 l 616 89 q 573 42 603 66 q 494 1 542 18 q 383 -15 447 -15 m 417 90 q 507 106 469 90 q 569 143 545 122 q 603 183 593 165 l 603 269 q 563 303 591 286 q 498 331 535 319 q 424 342 461 342 q 340 329 380 342 q 274 290 300 317 q 249 218 249 263 q 270 145 249 174 q 329 103 291 117 q 417 90 367 90 m 197 785 l 392 968 l 486 968 l 682 785 l 558 785 l 440 905 l 320 785 l 197 785 z "},"ấ":{"ha":903,"x_min":113,"x_max":844,"o":"m 383 -15 q 275 0 324 -15 q 189 43 225 15 q 133 115 153 72 q 113 212 113 157 q 130 294 113 258 q 175 356 146 330 q 241 398 204 381 q 319 423 278 415 q 401 431 360 431 q 492 420 451 431 q 562 394 533 410 q 603 365 591 379 l 603 465 q 588 529 603 503 q 547 572 573 556 q 489 595 522 588 q 422 602 457 602 q 353 595 386 602 q 292 577 321 588 q 242 554 264 567 q 204 531 219 542 l 142 633 q 210 669 167 651 q 310 699 253 688 q 431 711 367 711 q 517 704 474 711 q 601 681 561 697 q 673 639 641 665 q 722 573 704 612 q 740 482 740 535 l 740 106 l 844 106 l 844 0 l 629 0 l 616 89 q 573 42 603 66 q 494 1 542 18 q 383 -15 447 -15 m 417 90 q 507 106 469 90 q 569 143 545 122 q 603 183 593 165 l 603 269 q 563 303 591 286 q 498 331 535 319 q 424 342 461 342 q 340 329 380 342 q 274 290 300 317 q 249 218 249 263 q 270 145 249 174 q 329 103 291 117 q 417 90 367 90 m 654 926 l 674 1031 l 786 1106 l 772 1002 l 654 926 m 197 785 l 392 968 l 485 968 l 681 785 l 558 785 l 439 905 l 319 785 l 197 785 z "},"ậ":{"ha":903,"x_min":113,"x_max":844,"o":"m 383 -15 q 275 0 324 -15 q 189 43 225 15 q 133 115 153 72 q 113 212 113 157 q 130 294 113 258 q 175 356 146 330 q 241 398 204 381 q 319 423 278 415 q 401 431 360 431 q 492 420 451 431 q 562 394 533 410 q 603 365 591 379 l 603 465 q 588 529 603 503 q 547 572 573 556 q 489 595 522 588 q 422 602 457 602 q 353 595 386 602 q 292 577 321 588 q 242 554 264 567 q 204 531 219 542 l 142 633 q 210 669 167 651 q 310 699 253 688 q 431 711 367 711 q 517 704 474 711 q 601 681 561 697 q 673 639 641 665 q 722 573 704 612 q 740 482 740 535 l 740 106 l 844 106 l 844 0 l 629 0 l 616 89 q 573 42 603 66 q 494 1 542 18 q 383 -15 447 -15 m 417 90 q 507 106 469 90 q 569 143 545 122 q 603 183 593 165 l 603 269 q 563 303 591 286 q 498 331 535 319 q 424 342 461 342 q 340 329 380 342 q 274 290 300 317 q 249 218 249 263 q 270 145 249 174 q 329 103 291 117 q 417 90 367 90 m 374 -81 l 518 -81 l 518 -233 l 374 -233 l 374 -81 m 197 785 l 392 968 l 486 968 l 682 785 l 558 785 l 440 905 l 320 785 l 197 785 z "},"ầ":{"ha":903,"x_min":113,"x_max":844,"o":"m 383 -15 q 275 0 324 -15 q 189 43 225 15 q 133 115 153 72 q 113 212 113 157 q 130 294 113 258 q 175 356 146 330 q 241 398 204 381 q 319 423 278 415 q 401 431 360 431 q 492 420 451 431 q 562 394 533 410 q 603 365 591 379 l 603 465 q 588 529 603 503 q 547 572 573 556 q 489 595 522 588 q 422 602 457 602 q 353 595 386 602 q 292 577 321 588 q 242 554 264 567 q 204 531 219 542 l 142 633 q 210 669 167 651 q 310 699 253 688 q 431 711 367 711 q 517 704 474 711 q 601 681 561 697 q 673 639 641 665 q 722 573 704 612 q 740 482 740 535 l 740 106 l 844 106 l 844 0 l 629 0 l 616 89 q 573 42 603 66 q 494 1 542 18 q 383 -15 447 -15 m 417 90 q 507 106 469 90 q 569 143 545 122 q 603 183 593 165 l 603 269 q 563 303 591 286 q 498 331 535 319 q 424 342 461 342 q 340 329 380 342 q 274 290 300 317 q 249 218 249 263 q 270 145 249 174 q 329 103 291 117 q 417 90 367 90 m 681 926 l 564 1002 l 549 1106 l 661 1031 l 681 926 m 172 785 l 367 968 l 461 968 l 657 785 l 533 785 l 415 905 l 295 785 l 172 785 z "},"ẩ":{"ha":903,"x_min":113,"x_max":844,"o":"m 383 -15 q 275 0 324 -15 q 189 43 225 15 q 133 115 153 72 q 113 212 113 157 q 130 294 113 258 q 175 356 146 330 q 241 398 204 381 q 319 423 278 415 q 401 431 360 431 q 492 420 451 431 q 562 394 533 410 q 603 365 591 379 l 603 465 q 588 529 603 503 q 547 572 573 556 q 489 595 522 588 q 422 602 457 602 q 353 595 386 602 q 292 577 321 588 q 242 554 264 567 q 204 531 219 542 l 142 633 q 210 669 167 651 q 310 699 253 688 q 431 711 367 711 q 517 704 474 711 q 601 681 561 697 q 673 639 641 665 q 722 573 704 612 q 740 482 740 535 l 740 106 l 844 106 l 844 0 l 629 0 l 616 89 q 573 42 603 66 q 494 1 542 18 q 383 -15 447 -15 m 417 90 q 507 106 469 90 q 569 143 545 122 q 603 183 593 165 l 603 269 q 563 303 591 286 q 498 331 535 319 q 424 342 461 342 q 340 329 380 342 q 274 290 300 317 q 249 218 249 263 q 270 145 249 174 q 329 103 291 117 q 417 90 367 90 m 616 923 l 616 1017 q 719 1030 689 1017 q 750 1064 750 1042 q 715 1096 750 1086 q 583 1106 680 1106 l 583 1174 q 720 1164 662 1174 q 810 1129 778 1153 q 842 1065 842 1105 q 826 1018 842 1038 q 786 988 810 999 q 736 972 763 976 q 690 967 710 967 l 690 923 l 616 923 m 198 785 l 393 968 l 487 968 l 683 785 l 559 785 l 440 905 l 321 785 l 198 785 z "},"ẫ":{"ha":903,"x_min":113,"x_max":844,"o":"m 383 -15 q 275 0 324 -15 q 189 43 225 15 q 133 115 153 72 q 113 212 113 157 q 130 294 113 258 q 175 356 146 330 q 241 398 204 381 q 319 423 278 415 q 401 431 360 431 q 492 420 451 431 q 562 394 533 410 q 603 365 591 379 l 603 465 q 588 529 603 503 q 547 572 573 556 q 489 595 522 588 q 422 602 457 602 q 353 595 386 602 q 292 577 321 588 q 242 554 264 567 q 204 531 219 542 l 142 633 q 210 669 167 651 q 310 699 253 688 q 431 711 367 711 q 517 704 474 711 q 601 681 561 697 q 673 639 641 665 q 722 573 704 612 q 740 482 740 535 l 740 106 l 844 106 l 844 0 l 629 0 l 616 89 q 573 42 603 66 q 494 1 542 18 q 383 -15 447 -15 m 417 90 q 507 106 469 90 q 569 143 545 122 q 603 183 593 165 l 603 269 q 563 303 591 286 q 498 331 535 319 q 424 342 461 342 q 340 329 380 342 q 274 290 300 317 q 249 218 249 263 q 270 145 249 174 q 329 103 291 117 q 417 90 367 90 m 197 785 l 392 968 l 486 968 l 682 785 l 558 785 l 440 905 l 320 785 l 197 785 m 516 1050 q 463 1063 483 1050 q 424 1091 442 1076 q 395 1113 410 1103 q 361 1122 381 1122 q 308 1098 327 1122 q 281 1057 289 1074 l 220 1108 q 242 1146 224 1122 q 289 1189 259 1169 q 356 1208 318 1208 q 410 1195 388 1208 q 448 1168 431 1183 q 479 1145 464 1155 q 513 1135 494 1135 q 566 1160 547 1135 q 592 1201 585 1185 l 651 1149 q 631 1112 647 1135 q 587 1069 615 1088 q 516 1050 558 1050 z "},"ȁ":{"ha":903,"x_min":97,"x_max":844,"o":"m 383 -15 q 275 0 324 -15 q 189 43 225 15 q 133 115 153 72 q 113 212 113 157 q 130 294 113 258 q 175 356 146 330 q 241 398 204 381 q 319 423 278 415 q 401 431 360 431 q 492 420 451 431 q 562 394 533 410 q 603 365 591 379 l 603 465 q 588 529 603 503 q 547 572 573 556 q 489 595 522 588 q 422 602 457 602 q 353 595 386 602 q 292 577 321 588 q 242 554 264 567 q 204 531 219 542 l 142 633 q 210 669 167 651 q 310 699 253 688 q 431 711 367 711 q 517 704 474 711 q 601 681 561 697 q 673 639 641 665 q 722 573 704 612 q 740 482 740 535 l 740 106 l 844 106 l 844 0 l 629 0 l 616 89 q 573 42 603 66 q 494 1 542 18 q 383 -15 447 -15 m 417 90 q 507 106 469 90 q 569 143 545 122 q 603 183 593 165 l 603 269 q 563 303 591 286 q 498 331 535 319 q 424 342 461 342 q 340 329 380 342 q 274 290 300 317 q 249 218 249 263 q 270 145 249 174 q 329 103 291 117 q 417 90 367 90 m 494 783 l 320 974 l 442 974 l 589 783 l 494 783 m 283 783 l 97 974 l 222 974 l 381 783 l 283 783 z "},"ä":{"ha":903,"x_min":113,"x_max":844,"o":"m 383 -15 q 275 0 324 -15 q 189 43 225 15 q 133 115 153 72 q 113 212 113 157 q 130 294 113 258 q 175 356 146 330 q 241 398 204 381 q 319 423 278 415 q 401 431 360 431 q 492 420 451 431 q 562 394 533 410 q 603 365 591 379 l 603 465 q 588 529 603 503 q 547 572 573 556 q 489 595 522 588 q 422 602 457 602 q 353 595 386 602 q 292 577 321 588 q 242 554 264 567 q 204 531 219 542 l 142 633 q 210 669 167 651 q 310 699 253 688 q 431 711 367 711 q 517 704 474 711 q 601 681 561 697 q 673 639 641 665 q 722 573 704 612 q 740 482 740 535 l 740 106 l 844 106 l 844 0 l 629 0 l 616 89 q 573 42 603 66 q 494 1 542 18 q 383 -15 447 -15 m 417 90 q 507 106 469 90 q 569 143 545 122 q 603 183 593 165 l 603 269 q 563 303 591 286 q 498 331 535 319 q 424 342 461 342 q 340 329 380 342 q 274 290 300 317 q 249 218 249 263 q 270 145 249 174 q 329 103 291 117 q 417 90 367 90 m 206 951 l 350 951 l 350 792 l 206 792 l 206 951 m 528 951 l 672 951 l 672 792 l 528 792 l 528 951 z "},"ạ":{"ha":903,"x_min":113,"x_max":844,"o":"m 383 -15 q 275 0 324 -15 q 189 43 225 15 q 133 115 153 72 q 113 212 113 157 q 130 294 113 258 q 175 356 146 330 q 241 398 204 381 q 319 423 278 415 q 401 431 360 431 q 492 420 451 431 q 562 394 533 410 q 603 365 591 379 l 603 465 q 588 529 603 503 q 547 572 573 556 q 489 595 522 588 q 422 602 457 602 q 353 595 386 602 q 292 577 321 588 q 242 554 264 567 q 204 531 219 542 l 142 633 q 210 669 167 651 q 310 699 253 688 q 431 711 367 711 q 517 704 474 711 q 601 681 561 697 q 673 639 641 665 q 722 573 704 612 q 740 482 740 535 l 740 106 l 844 106 l 844 0 l 629 0 l 616 89 q 573 42 603 66 q 494 1 542 18 q 383 -15 447 -15 m 417 90 q 507 106 469 90 q 569 143 545 122 q 603 183 593 165 l 603 269 q 563 303 591 286 q 498 331 535 319 q 424 342 461 342 q 340 329 380 342 q 274 290 300 317 q 249 218 249 263 q 270 145 249 174 q 329 103 291 117 q 417 90 367 90 m 374 -81 l 518 -81 l 518 -233 l 374 -233 l 374 -81 z "},"à":{"ha":903,"x_min":113,"x_max":844,"o":"m 383 -15 q 275 0 324 -15 q 189 43 225 15 q 133 115 153 72 q 113 212 113 157 q 130 294 113 258 q 175 356 146 330 q 241 398 204 381 q 319 423 278 415 q 401 431 360 431 q 492 420 451 431 q 562 394 533 410 q 603 365 591 379 l 603 465 q 588 529 603 503 q 547 572 573 556 q 489 595 522 588 q 422 602 457 602 q 353 595 386 602 q 292 577 321 588 q 242 554 264 567 q 204 531 219 542 l 142 633 q 210 669 167 651 q 310 699 253 688 q 431 711 367 711 q 517 704 474 711 q 601 681 561 697 q 673 639 641 665 q 722 573 704 612 q 740 482 740 535 l 740 106 l 844 106 l 844 0 l 629 0 l 616 89 q 573 42 603 66 q 494 1 542 18 q 383 -15 447 -15 m 417 90 q 507 106 469 90 q 569 143 545 122 q 603 183 593 165 l 603 269 q 563 303 591 286 q 498 331 535 319 q 424 342 461 342 q 340 329 380 342 q 274 290 300 317 q 249 218 249 263 q 270 145 249 174 q 329 103 291 117 q 417 90 367 90 m 374 783 l 147 981 l 299 981 l 503 783 l 374 783 z "},"ả":{"ha":903,"x_min":113,"x_max":844,"o":"m 383 -15 q 275 0 324 -15 q 189 43 225 15 q 133 115 153 72 q 113 212 113 157 q 130 294 113 258 q 175 356 146 330 q 241 398 204 381 q 319 423 278 415 q 401 431 360 431 q 492 420 451 431 q 562 394 533 410 q 603 365 591 379 l 603 465 q 588 529 603 503 q 547 572 573 556 q 489 595 522 588 q 422 602 457 602 q 353 595 386 602 q 292 577 321 588 q 242 554 264 567 q 204 531 219 542 l 142 633 q 210 669 167 651 q 310 699 253 688 q 431 711 367 711 q 517 704 474 711 q 601 681 561 697 q 673 639 641 665 q 722 573 704 612 q 740 482 740 535 l 740 106 l 844 106 l 844 0 l 629 0 l 616 89 q 573 42 603 66 q 494 1 542 18 q 383 -15 447 -15 m 417 90 q 507 106 469 90 q 569 143 545 122 q 603 183 593 165 l 603 269 q 563 303 591 286 q 498 331 535 319 q 424 342 461 342 q 340 329 380 342 q 274 290 300 317 q 249 218 249 263 q 270 145 249 174 q 329 103 291 117 q 417 90 367 90 m 396 756 l 396 857 q 474 861 441 857 q 524 875 506 866 q 542 899 542 884 q 522 922 542 914 q 460 933 501 929 q 358 936 419 936 l 358 1007 q 507 998 442 1007 q 607 968 571 990 q 643 906 643 946 q 616 847 643 869 q 551 816 589 825 q 479 806 513 806 l 479 756 l 396 756 z "},"ȃ":{"ha":903,"x_min":113,"x_max":844,"o":"m 383 -15 q 275 0 324 -15 q 189 43 225 15 q 133 115 153 72 q 113 212 113 157 q 130 294 113 258 q 175 356 146 330 q 241 398 204 381 q 319 423 278 415 q 401 431 360 431 q 492 420 451 431 q 562 394 533 410 q 603 365 591 379 l 603 465 q 588 529 603 503 q 547 572 573 556 q 489 595 522 588 q 422 602 457 602 q 353 595 386 602 q 292 577 321 588 q 242 554 264 567 q 204 531 219 542 l 142 633 q 210 669 167 651 q 310 699 253 688 q 431 711 367 711 q 517 704 474 711 q 601 681 561 697 q 673 639 641 665 q 722 573 704 612 q 740 482 740 535 l 740 106 l 844 106 l 844 0 l 629 0 l 616 89 q 573 42 603 66 q 494 1 542 18 q 383 -15 447 -15 m 417 90 q 507 106 469 90 q 569 143 545 122 q 603 183 593 165 l 603 269 q 563 303 591 286 q 498 331 535 319 q 424 342 461 342 q 340 329 380 342 q 274 290 300 317 q 249 218 249 263 q 270 145 249 174 q 329 103 291 117 q 417 90 367 90 m 437 967 q 546 938 503 967 q 609 865 589 908 q 628 778 628 822 l 528 778 q 520 827 528 801 q 492 870 512 852 q 435 888 472 888 q 378 870 398 888 q 351 827 358 852 q 343 778 343 801 l 242 778 q 263 865 242 822 q 327 938 284 908 q 437 967 369 967 z "},"ā":{"ha":903,"x_min":113,"x_max":844,"o":"m 383 -15 q 275 0 324 -15 q 189 43 225 15 q 133 115 153 72 q 113 212 113 157 q 130 294 113 258 q 175 356 146 330 q 241 398 204 381 q 319 423 278 415 q 401 431 360 431 q 492 420 451 431 q 562 394 533 410 q 603 365 591 379 l 603 465 q 588 529 603 503 q 547 572 573 556 q 489 595 522 588 q 422 602 457 602 q 353 595 386 602 q 292 577 321 588 q 242 554 264 567 q 204 531 219 542 l 142 633 q 210 669 167 651 q 310 699 253 688 q 431 711 367 711 q 517 704 474 711 q 601 681 561 697 q 673 639 641 665 q 722 573 704 612 q 740 482 740 535 l 740 106 l 844 106 l 844 0 l 629 0 l 616 89 q 573 42 603 66 q 494 1 542 18 q 383 -15 447 -15 m 417 90 q 507 106 469 90 q 569 143 545 122 q 603 183 593 165 l 603 269 q 563 303 591 286 q 498 331 535 319 q 424 342 461 342 q 340 329 380 342 q 274 290 300 317 q 249 218 249 263 q 270 145 249 174 q 329 103 291 117 q 417 90 367 90 m 222 805 l 222 890 l 658 890 l 658 805 l 222 805 z "},"ą":{"ha":903,"x_min":113,"x_max":922,"o":"m 383 -15 q 275 0 324 -15 q 189 43 225 15 q 133 115 153 72 q 113 212 113 157 q 130 294 113 258 q 175 356 146 330 q 241 398 204 381 q 319 423 278 415 q 401 431 360 431 q 492 420 451 431 q 562 394 533 410 q 603 365 591 379 l 603 465 q 588 529 603 503 q 547 572 573 556 q 489 595 522 588 q 422 602 457 602 q 353 595 386 602 q 292 577 321 588 q 242 554 264 567 q 204 531 219 542 l 142 633 q 210 669 167 651 q 310 699 253 688 q 431 711 367 711 q 517 704 474 711 q 601 681 561 697 q 673 639 641 665 q 722 573 704 612 q 740 482 740 535 l 740 106 l 844 106 l 844 0 l 629 0 l 616 89 q 573 42 603 66 q 494 1 542 18 q 383 -15 447 -15 m 417 90 q 507 106 469 90 q 569 143 545 122 q 603 183 593 165 l 603 269 q 563 303 591 286 q 498 331 535 319 q 424 342 461 342 q 340 329 380 342 q 274 290 300 317 q 249 218 249 263 q 270 145 249 174 q 329 103 291 117 q 417 90 367 90 m 922 -190 l 922 -280 q 869 -290 901 -286 q 805 -293 838 -293 q 728 -281 765 -293 q 670 -243 692 -269 q 648 -174 648 -217 q 663 -101 648 -135 q 700 -41 678 -67 q 744 0 722 -15 l 843 0 q 782 -67 810 -26 q 754 -145 754 -107 q 766 -180 754 -167 q 795 -198 778 -193 q 831 -203 813 -203 q 864 -202 847 -203 q 897 -197 881 -200 q 922 -190 913 -194 z "},"å":{"ha":903,"x_min":113,"x_max":844,"o":"m 383 -15 q 275 0 324 -15 q 189 43 225 15 q 133 115 153 72 q 113 212 113 157 q 130 294 113 258 q 175 356 146 330 q 241 398 204 381 q 319 423 278 415 q 401 431 360 431 q 492 420 451 431 q 562 394 533 410 q 603 365 591 379 l 603 465 q 588 529 603 503 q 547 572 573 556 q 489 595 522 588 q 422 602 457 602 q 353 595 386 602 q 292 577 321 588 q 242 554 264 567 q 204 531 219 542 l 142 633 q 210 669 167 651 q 310 699 253 688 q 431 711 367 711 q 517 704 474 711 q 601 681 561 697 q 673 639 641 665 q 722 573 704 612 q 740 482 740 535 l 740 106 l 844 106 l 844 0 l 629 0 l 616 89 q 573 42 603 66 q 494 1 542 18 q 383 -15 447 -15 m 417 90 q 507 106 469 90 q 569 143 545 122 q 603 183 593 165 l 603 269 q 563 303 591 286 q 498 331 535 319 q 424 342 461 342 q 340 329 380 342 q 274 290 300 317 q 249 218 249 263 q 270 145 249 174 q 329 103 291 117 q 417 90 367 90 m 441 753 q 374 770 404 753 q 325 818 343 788 q 306 886 306 848 q 325 952 306 922 q 374 1000 343 982 q 441 1018 404 1018 q 507 1000 476 1018 q 555 952 537 982 q 573 886 573 922 q 555 818 573 848 q 507 770 537 788 q 441 753 476 753 m 441 827 q 482 843 465 827 q 499 887 499 860 q 482 926 499 911 q 441 942 465 942 q 399 926 416 942 q 382 887 382 911 q 399 843 382 860 q 441 827 416 827 z "},"ǻ":{"ha":903,"x_min":113,"x_max":844,"o":"m 383 -15 q 275 0 324 -15 q 189 43 225 15 q 133 115 153 72 q 113 212 113 157 q 130 294 113 258 q 175 356 146 330 q 241 398 204 381 q 319 423 278 415 q 401 431 360 431 q 492 420 451 431 q 562 394 533 410 q 603 365 591 379 l 603 465 q 588 529 603 503 q 547 572 573 556 q 489 595 522 588 q 422 602 457 602 q 353 595 386 602 q 292 577 321 588 q 242 554 264 567 q 204 531 219 542 l 142 633 q 210 669 167 651 q 310 699 253 688 q 431 711 367 711 q 517 704 474 711 q 601 681 561 697 q 673 639 641 665 q 722 573 704 612 q 740 482 740 535 l 740 106 l 844 106 l 844 0 l 629 0 l 616 89 q 573 42 603 66 q 494 1 542 18 q 383 -15 447 -15 m 417 90 q 507 106 469 90 q 569 143 545 122 q 603 183 593 165 l 603 269 q 563 303 591 286 q 498 331 535 319 q 424 342 461 342 q 340 329 380 342 q 274 290 300 317 q 249 218 249 263 q 270 145 249 174 q 329 103 291 117 q 417 90 367 90 m 441 753 q 374 770 404 753 q 325 818 343 788 q 306 886 306 848 q 325 952 306 922 q 374 1000 343 982 q 441 1018 404 1018 q 507 1000 476 1018 q 555 952 537 982 q 573 886 573 922 q 555 818 573 848 q 507 770 537 788 q 441 753 476 753 m 441 827 q 482 843 465 827 q 499 887 499 860 q 482 926 499 911 q 441 942 465 942 q 399 926 416 942 q 382 887 382 911 q 399 843 382 860 q 441 827 416 827 m 491 1107 l 361 1107 l 565 1304 l 717 1304 l 491 1107 z "},"ã":{"ha":903,"x_min":113,"x_max":844,"o":"m 383 -15 q 275 0 324 -15 q 189 43 225 15 q 133 115 153 72 q 113 212 113 157 q 130 294 113 258 q 175 356 146 330 q 241 398 204 381 q 319 423 278 415 q 401 431 360 431 q 492 420 451 431 q 562 394 533 410 q 603 365 591 379 l 603 465 q 588 529 603 503 q 547 572 573 556 q 489 595 522 588 q 422 602 457 602 q 353 595 386 602 q 292 577 321 588 q 242 554 264 567 q 204 531 219 542 l 142 633 q 210 669 167 651 q 310 699 253 688 q 431 711 367 711 q 517 704 474 711 q 601 681 561 697 q 673 639 641 665 q 722 573 704 612 q 740 482 740 535 l 740 106 l 844 106 l 844 0 l 629 0 l 616 89 q 573 42 603 66 q 494 1 542 18 q 383 -15 447 -15 m 417 90 q 507 106 469 90 q 569 143 545 122 q 603 183 593 165 l 603 269 q 563 303 591 286 q 498 331 535 319 q 424 342 461 342 q 340 329 380 342 q 274 290 300 317 q 249 218 249 263 q 270 145 249 174 q 329 103 291 117 q 417 90 367 90 m 516 776 q 463 790 483 776 q 424 817 442 803 q 395 839 410 830 q 361 849 381 849 q 308 824 327 849 q 281 783 289 800 l 220 834 q 242 872 224 848 q 289 915 260 896 q 357 935 318 935 q 410 922 388 935 q 449 894 431 909 q 479 871 464 881 q 513 861 494 861 q 566 886 547 861 q 592 928 585 911 l 651 876 q 631 838 647 861 q 587 795 615 815 q 516 776 558 776 z "},"æ":{"ha":1181,"x_min":28,"x_max":1145,"o":"m 302 -15 q 182 2 233 -15 q 96 50 131 19 q 45 126 62 82 q 28 222 28 169 q 41 300 28 265 q 80 363 54 335 q 141 409 106 390 q 222 439 177 428 q 321 449 267 449 q 397 441 363 449 q 456 423 431 433 q 492 403 480 412 l 492 484 q 481 536 492 514 q 447 573 469 558 q 397 595 426 588 q 333 602 367 602 q 245 592 288 602 q 167 569 202 582 q 112 545 133 556 l 60 649 q 128 676 85 662 q 228 701 172 691 q 349 711 285 711 q 450 698 402 711 q 533 659 498 685 q 582 593 568 633 q 650 659 611 633 q 733 698 688 685 q 826 711 778 711 q 951 689 893 711 q 1053 625 1009 667 q 1121 522 1097 583 q 1145 381 1145 461 q 1144 352 1145 368 q 1140 324 1143 336 l 635 324 q 662 201 638 253 q 729 119 686 148 q 828 91 772 91 q 913 108 880 91 q 966 151 947 126 q 992 197 985 176 l 1116 133 q 1076 80 1101 106 q 1017 32 1052 53 q 933 -2 981 10 q 824 -15 885 -15 q 723 0 772 -15 q 634 47 675 15 q 565 125 594 78 q 507 54 544 85 q 418 3 469 22 q 302 -15 367 -15 m 326 87 q 418 111 381 87 q 474 175 455 136 q 492 257 492 214 l 492 310 q 466 327 482 319 q 432 343 451 336 q 391 355 413 350 q 347 359 370 359 q 246 343 287 359 q 184 297 205 327 q 163 226 163 267 q 181 153 163 185 q 235 105 199 122 q 326 87 271 87 m 638 413 l 1000 413 l 1000 424 q 988 497 1000 464 q 953 555 976 531 q 899 592 931 579 q 828 606 867 606 q 740 585 781 606 q 672 521 699 564 q 638 413 645 478 z "},"ǽ":{"ha":1181,"x_min":28,"x_max":1145,"o":"m 302 -15 q 182 2 233 -15 q 96 50 131 19 q 45 126 62 82 q 28 222 28 169 q 41 300 28 265 q 80 363 54 335 q 141 409 106 390 q 222 439 177 428 q 321 449 267 449 q 397 441 363 449 q 456 423 431 433 q 492 403 480 412 l 492 484 q 481 536 492 514 q 447 573 469 558 q 397 595 426 588 q 333 602 367 602 q 245 592 288 602 q 167 569 202 582 q 112 545 133 556 l 60 649 q 128 676 85 662 q 228 701 172 691 q 349 711 285 711 q 450 698 402 711 q 533 659 498 685 q 582 593 568 633 q 650 659 611 633 q 733 698 688 685 q 826 711 778 711 q 951 689 893 711 q 1053 625 1009 667 q 1121 522 1097 583 q 1145 381 1145 461 q 1144 352 1145 368 q 1140 324 1143 336 l 635 324 q 662 201 638 253 q 729 119 686 148 q 828 91 772 91 q 913 108 880 91 q 966 151 947 126 q 992 197 985 176 l 1116 133 q 1076 80 1101 106 q 1017 32 1052 53 q 933 -2 981 10 q 824 -15 885 -15 q 723 0 772 -15 q 634 47 675 15 q 565 125 594 78 q 507 54 544 85 q 418 3 469 22 q 302 -15 367 -15 m 326 87 q 418 111 381 87 q 474 175 455 136 q 492 257 492 214 l 492 310 q 466 327 482 319 q 432 343 451 336 q 391 355 413 350 q 347 359 370 359 q 246 343 287 359 q 184 297 205 327 q 163 226 163 267 q 181 153 163 185 q 235 105 199 122 q 326 87 271 87 m 638 413 l 1000 413 l 1000 424 q 988 497 1000 464 q 953 555 976 531 q 899 592 931 579 q 828 606 867 606 q 740 585 781 606 q 672 521 699 564 q 638 413 645 478 m 631 783 l 501 783 l 706 981 l 858 981 l 631 783 z "},"b":{"ha":903,"x_min":156,"x_max":801,"o":"m 156 0 l 156 1042 l 294 1042 l 294 156 l 278 0 l 156 0 m 506 -15 q 390 12 440 -15 q 305 84 340 40 q 252 179 270 128 q 235 276 235 230 l 291 294 q 308 222 294 257 q 345 158 322 186 q 399 112 368 129 q 469 95 431 95 q 566 123 522 95 q 636 207 610 151 q 663 349 663 263 q 637 491 663 435 q 568 573 611 546 q 474 599 526 599 q 404 584 435 599 q 349 542 373 568 q 311 483 326 515 q 289 417 296 451 l 236 435 q 255 528 236 480 q 309 617 274 576 q 396 684 344 658 q 513 710 447 710 q 651 672 585 710 q 759 554 717 634 q 801 349 801 474 q 775 186 801 255 q 708 73 750 117 q 613 6 665 28 q 506 -15 560 -15 z "},"c":{"ha":903,"x_min":146,"x_max":778,"o":"m 488 -15 q 392 -2 440 -15 q 299 39 343 11 q 220 109 255 66 q 166 211 186 152 q 146 349 146 271 q 166 487 146 427 q 220 589 186 547 q 299 659 255 632 q 392 698 343 685 q 488 711 440 711 q 591 697 544 711 q 675 659 638 683 q 739 604 713 635 q 778 538 765 573 l 656 482 q 627 538 647 510 q 572 586 606 567 q 492 605 538 605 q 420 591 456 605 q 355 545 385 576 q 307 466 325 515 q 290 349 290 417 q 307 233 290 281 q 355 152 325 184 q 420 106 385 121 q 492 91 456 91 q 573 109 539 91 q 627 155 606 128 q 655 209 647 183 l 778 152 q 739 91 765 121 q 676 37 713 61 q 592 -1 639 13 q 488 -15 544 -15 z "},"ć":{"ha":903,"x_min":146,"x_max":778,"o":"m 488 -15 q 392 -2 440 -15 q 299 39 343 11 q 220 109 255 66 q 166 211 186 152 q 146 349 146 271 q 166 487 146 427 q 220 589 186 547 q 299 659 255 632 q 392 698 343 685 q 488 711 440 711 q 591 697 544 711 q 675 659 638 683 q 739 604 713 635 q 778 538 765 573 l 656 482 q 627 538 647 510 q 572 586 606 567 q 492 605 538 605 q 420 591 456 605 q 355 545 385 576 q 307 466 325 515 q 290 349 290 417 q 307 233 290 281 q 355 152 325 184 q 420 106 385 121 q 492 91 456 91 q 573 109 539 91 q 627 155 606 128 q 655 209 647 183 l 778 152 q 739 91 765 121 q 676 37 713 61 q 592 -1 639 13 q 488 -15 544 -15 m 533 783 l 403 783 l 607 981 l 759 981 l 533 783 z "},"č":{"ha":903,"x_min":146,"x_max":778,"o":"m 488 -15 q 392 -2 440 -15 q 299 39 343 11 q 220 109 255 66 q 166 211 186 152 q 146 349 146 271 q 166 487 146 427 q 220 589 186 547 q 299 659 255 632 q 392 698 343 685 q 488 711 440 711 q 591 697 544 711 q 675 659 638 683 q 739 604 713 635 q 778 538 765 573 l 656 482 q 627 538 647 510 q 572 586 606 567 q 492 605 538 605 q 420 591 456 605 q 355 545 385 576 q 307 466 325 515 q 290 349 290 417 q 307 233 290 281 q 355 152 325 184 q 420 106 385 121 q 492 91 456 91 q 573 109 539 91 q 627 155 606 128 q 655 209 647 183 l 778 152 q 739 91 765 121 q 676 37 713 61 q 592 -1 639 13 q 488 -15 544 -15 m 239 972 l 362 972 l 481 852 l 600 972 l 724 972 l 528 789 l 434 789 l 239 972 z "},"ç":{"ha":903,"x_min":146,"x_max":778,"o":"m 488 -15 q 392 -2 440 -15 q 299 39 343 11 q 220 109 255 66 q 166 211 186 152 q 146 349 146 271 q 166 487 146 427 q 220 589 186 547 q 299 659 255 632 q 392 698 343 685 q 488 711 440 711 q 591 697 544 711 q 675 659 638 683 q 739 604 713 635 q 778 538 765 573 l 656 482 q 627 538 647 510 q 572 586 606 567 q 492 605 538 605 q 420 591 456 605 q 355 545 385 576 q 307 466 325 515 q 290 349 290 417 q 307 233 290 281 q 355 152 325 184 q 420 106 385 121 q 492 91 456 91 q 573 109 539 91 q 627 155 606 128 q 655 209 647 183 l 778 152 q 739 91 765 121 q 676 37 713 61 q 592 -1 639 13 q 488 -15 544 -15 m 488 -283 q 448 -281 468 -283 q 409 -276 428 -279 q 373 -269 390 -273 q 342 -260 356 -265 l 374 -186 q 414 -199 394 -193 q 454 -207 433 -204 q 499 -210 475 -210 q 555 -202 531 -210 q 593 -178 579 -194 q 607 -144 607 -163 q 592 -112 607 -120 q 555 -105 577 -105 q 524 -110 540 -105 q 493 -122 508 -115 q 469 -138 478 -130 l 397 -119 l 439 0 l 526 0 l 485 -107 l 476 -93 q 500 -70 483 -81 q 541 -54 517 -60 q 590 -48 564 -48 q 641 -56 617 -48 q 681 -84 665 -65 q 696 -140 696 -104 q 669 -218 696 -186 q 596 -266 642 -250 q 488 -283 549 -283 z "},"ḉ":{"ha":903,"x_min":146,"x_max":778,"o":"m 488 -15 q 392 -2 440 -15 q 299 39 343 11 q 220 109 255 66 q 166 211 186 152 q 146 349 146 271 q 166 487 146 427 q 220 589 186 547 q 299 659 255 632 q 392 698 343 685 q 488 711 440 711 q 591 697 544 711 q 675 659 638 683 q 739 604 713 635 q 778 538 765 573 l 656 482 q 627 538 647 510 q 572 586 606 567 q 492 605 538 605 q 420 591 456 605 q 355 545 385 576 q 307 466 325 515 q 290 349 290 417 q 307 233 290 281 q 355 152 325 184 q 420 106 385 121 q 492 91 456 91 q 573 109 539 91 q 627 155 606 128 q 655 209 647 183 l 778 152 q 739 91 765 121 q 676 37 713 61 q 592 -1 639 13 q 488 -15 544 -15 m 488 -283 q 448 -281 468 -283 q 409 -276 428 -279 q 373 -269 390 -273 q 342 -260 356 -265 l 374 -186 q 414 -199 394 -193 q 454 -207 433 -204 q 499 -210 475 -210 q 555 -202 531 -210 q 593 -178 579 -194 q 607 -144 607 -163 q 592 -112 607 -120 q 555 -105 577 -105 q 524 -110 540 -105 q 493 -122 508 -115 q 469 -138 478 -130 l 397 -119 l 439 0 l 526 0 l 485 -107 l 476 -93 q 500 -70 483 -81 q 541 -54 517 -60 q 590 -48 564 -48 q 641 -56 617 -48 q 681 -84 665 -65 q 696 -140 696 -104 q 669 -218 696 -186 q 596 -266 642 -250 q 488 -283 549 -283 m 533 783 l 403 783 l 607 981 l 759 981 l 533 783 z "},"ĉ":{"ha":903,"x_min":146,"x_max":778,"o":"m 488 -15 q 392 -2 440 -15 q 299 39 343 11 q 220 109 255 66 q 166 211 186 152 q 146 349 146 271 q 166 487 146 427 q 220 589 186 547 q 299 659 255 632 q 392 698 343 685 q 488 711 440 711 q 591 697 544 711 q 675 659 638 683 q 739 604 713 635 q 778 538 765 573 l 656 482 q 627 538 647 510 q 572 586 606 567 q 492 605 538 605 q 420 591 456 605 q 355 545 385 576 q 307 466 325 515 q 290 349 290 417 q 307 233 290 281 q 355 152 325 184 q 420 106 385 121 q 492 91 456 91 q 573 109 539 91 q 627 155 606 128 q 655 209 647 183 l 778 152 q 739 91 765 121 q 676 37 713 61 q 592 -1 639 13 q 488 -15 544 -15 m 239 785 l 434 968 l 528 968 l 724 785 l 600 785 l 481 905 l 362 785 l 239 785 z "},"ċ":{"ha":903,"x_min":146,"x_max":778,"o":"m 488 -15 q 392 -2 440 -15 q 299 39 343 11 q 220 109 255 66 q 166 211 186 152 q 146 349 146 271 q 166 487 146 427 q 220 589 186 547 q 299 659 255 632 q 392 698 343 685 q 488 711 440 711 q 591 697 544 711 q 675 659 638 683 q 739 604 713 635 q 778 538 765 573 l 656 482 q 627 538 647 510 q 572 586 606 567 q 492 605 538 605 q 420 591 456 605 q 355 545 385 576 q 307 466 325 515 q 290 349 290 417 q 307 233 290 281 q 355 152 325 184 q 420 106 385 121 q 492 91 456 91 q 573 109 539 91 q 627 155 606 128 q 655 209 647 183 l 778 152 q 739 91 765 121 q 676 37 713 61 q 592 -1 639 13 q 488 -15 544 -15 m 409 984 l 553 984 l 553 826 l 409 826 l 409 984 z "},"d":{"ha":903,"x_min":77,"x_max":831,"o":"m 372 -15 q 265 6 317 -15 q 170 73 213 28 q 102 186 128 117 q 77 349 77 255 q 119 554 77 474 q 226 672 160 634 q 365 710 292 710 q 482 684 431 710 q 568 617 533 658 q 623 528 604 576 q 641 435 641 480 l 589 417 q 567 483 582 451 q 528 542 552 515 q 474 584 505 568 q 403 599 442 599 q 309 573 352 599 q 240 491 266 546 q 215 349 215 435 q 241 207 215 263 q 312 123 268 151 q 408 95 356 95 q 478 112 447 95 q 533 158 510 129 q 569 222 556 186 q 587 294 583 257 l 643 276 q 625 179 643 230 q 572 84 607 128 q 488 12 538 40 q 372 -15 438 -15 m 722 1042 l 722 44 l 660 106 l 831 106 l 831 0 l 599 0 l 583 146 l 583 1042 l 722 1042 z "},"ð":{"ha":903,"x_min":106,"x_max":781,"o":"m 440 -15 q 310 9 371 -15 q 203 80 249 33 q 131 194 157 126 q 106 349 106 262 q 128 504 106 437 q 194 618 151 572 q 295 688 237 665 q 426 712 354 712 q 538 691 486 712 q 628 634 589 670 q 692 553 668 599 q 721 458 716 507 l 636 390 q 622 478 635 439 q 585 544 609 517 q 525 586 560 572 q 443 601 489 601 q 361 583 398 601 q 300 532 325 565 q 261 453 274 499 q 247 349 247 406 q 261 247 247 293 q 302 166 276 200 q 364 114 328 133 q 444 96 401 96 q 525 114 490 96 q 584 172 560 132 q 621 276 608 211 q 634 435 634 342 q 613 610 634 527 q 555 763 592 692 q 466 887 517 833 q 356 976 415 941 q 231 1024 296 1011 l 281 1114 q 423 1061 351 1099 q 559 964 494 1023 q 673 829 623 906 q 752 658 724 752 q 781 456 781 565 q 754 232 781 323 q 680 88 727 142 q 570 9 632 33 q 440 -15 509 -15 m 352 853 l 283 922 l 540 1107 l 598 1035 l 352 853 z "},"ď":{"ha":1013,"x_min":115,"x_max":1013,"o":"m 410 -15 q 302 6 355 -15 q 208 73 250 28 q 140 186 165 117 q 115 349 115 255 q 156 554 115 474 q 264 672 198 634 q 403 710 330 710 q 519 684 468 710 q 606 617 570 658 q 660 528 642 576 q 678 435 678 480 l 626 417 q 605 483 619 451 q 566 542 590 515 q 511 584 542 568 q 441 599 480 599 q 347 573 390 599 q 278 491 303 546 q 252 349 252 435 q 279 207 252 263 q 350 123 306 151 q 446 95 394 95 q 516 112 484 95 q 570 158 547 129 q 607 222 593 186 q 624 294 621 257 l 681 276 q 663 179 681 230 q 610 84 644 128 q 525 12 575 40 q 410 -15 475 -15 m 759 1042 l 759 44 l 697 106 l 869 106 l 869 0 l 637 0 l 621 146 l 621 1042 l 759 1042 m 874 749 q 888 808 881 773 q 898 885 894 843 q 902 972 902 928 l 1013 972 q 1004 882 1013 924 q 982 805 995 839 q 958 749 969 771 l 874 749 z "},"đ":{"ha":903,"x_min":77,"x_max":831,"o":"m 354 853 l 354 938 l 817 938 l 817 853 l 354 853 m 372 -15 q 265 6 317 -15 q 170 73 213 28 q 102 186 128 117 q 77 349 77 255 q 119 554 77 474 q 226 672 160 634 q 365 710 292 710 q 482 684 431 710 q 568 617 533 658 q 623 528 604 576 q 641 435 641 480 l 589 417 q 567 483 582 451 q 528 542 552 515 q 474 584 505 568 q 403 599 442 599 q 309 573 352 599 q 240 491 266 546 q 215 349 215 435 q 241 207 215 263 q 312 123 268 151 q 408 95 356 95 q 478 112 447 95 q 533 158 510 129 q 569 222 556 186 q 587 294 583 257 l 643 276 q 625 179 643 230 q 572 84 607 128 q 488 12 538 40 q 372 -15 438 -15 m 722 1042 l 722 44 l 660 106 l 831 106 l 831 0 l 599 0 l 583 146 l 583 1042 l 722 1042 z "},"ḍ":{"ha":903,"x_min":77,"x_max":831,"o":"m 372 -15 q 265 6 317 -15 q 170 73 213 28 q 102 186 128 117 q 77 349 77 255 q 119 554 77 474 q 226 672 160 634 q 365 710 292 710 q 482 684 431 710 q 568 617 533 658 q 623 528 604 576 q 641 435 641 480 l 589 417 q 567 483 582 451 q 528 542 552 515 q 474 584 505 568 q 403 599 442 599 q 309 573 352 599 q 240 491 266 546 q 215 349 215 435 q 241 207 215 263 q 312 123 268 151 q 408 95 356 95 q 478 112 447 95 q 533 158 510 129 q 569 222 556 186 q 587 294 583 257 l 643 276 q 625 179 643 230 q 572 84 607 128 q 488 12 538 40 q 372 -15 438 -15 m 722 1042 l 722 44 l 660 106 l 831 106 l 831 0 l 599 0 l 583 146 l 583 1042 l 722 1042 m 328 -81 l 472 -81 l 472 -233 l 328 -233 l 328 -81 z "},"ḏ":{"ha":903,"x_min":77,"x_max":831,"o":"m 372 -15 q 265 6 317 -15 q 170 73 213 28 q 102 186 128 117 q 77 349 77 255 q 119 554 77 474 q 226 672 160 634 q 365 710 292 710 q 482 684 431 710 q 568 617 533 658 q 623 528 604 576 q 641 435 641 480 l 589 417 q 567 483 582 451 q 528 542 552 515 q 474 584 505 568 q 403 599 442 599 q 309 573 352 599 q 240 491 266 546 q 215 349 215 435 q 241 207 215 263 q 312 123 268 151 q 408 95 356 95 q 478 112 447 95 q 533 158 510 129 q 569 222 556 186 q 587 294 583 257 l 643 276 q 625 179 643 230 q 572 84 607 128 q 488 12 538 40 q 372 -15 438 -15 m 722 1042 l 722 44 l 660 106 l 831 106 l 831 0 l 599 0 l 583 146 l 583 1042 l 722 1042 m 193 -191 l 193 -106 l 610 -106 l 610 -191 l 193 -191 z "},"ǆ":{"ha":1181,"x_min":32,"x_max":1154,"o":"m 308 -15 q 208 6 257 -15 q 119 73 158 28 q 56 186 79 117 q 32 349 32 255 q 71 554 32 474 q 172 672 110 634 q 302 710 233 710 q 412 684 364 710 q 492 617 460 658 q 542 528 525 576 q 559 435 559 480 l 510 417 q 480 503 502 462 q 420 572 457 545 q 334 599 384 599 q 244 573 284 599 q 180 491 204 546 q 156 349 156 435 q 181 207 156 263 q 247 123 206 151 q 338 95 289 95 q 425 124 388 95 q 483 199 461 153 q 509 294 504 244 l 560 276 q 544 179 560 230 q 497 84 528 128 q 417 12 465 40 q 308 -15 370 -15 m 631 1042 l 631 0 l 519 0 l 506 146 l 506 1042 l 631 1042 m 688 0 l 688 106 l 1006 589 l 698 589 l 698 694 l 1147 694 l 1147 589 l 832 106 l 1151 106 l 1151 0 l 688 0 m 699 972 l 812 972 l 927 852 l 1040 972 l 1154 972 l 969 789 l 883 789 l 699 972 z "},"e":{"ha":903,"x_min":108,"x_max":795,"o":"m 453 -15 q 329 7 390 -15 q 217 73 267 28 q 138 186 167 117 q 108 349 108 255 q 138 511 108 442 q 218 624 167 580 q 330 690 268 668 q 456 711 392 711 q 583 690 522 711 q 692 628 644 669 q 767 526 740 588 q 795 381 795 464 q 794 352 795 368 q 790 324 793 336 l 217 324 l 217 413 l 650 413 q 650 418 650 417 q 650 424 650 420 q 624 521 650 480 q 553 584 597 562 q 458 606 509 606 q 383 591 420 606 q 316 547 347 577 q 267 467 285 516 q 249 349 249 418 q 279 207 249 264 q 357 120 309 149 q 460 91 406 91 q 549 107 512 91 q 610 148 587 124 q 642 197 634 173 l 769 133 q 725 77 753 104 q 657 30 697 51 q 566 -3 617 9 q 453 -15 515 -15 z "},"é":{"ha":903,"x_min":108,"x_max":795,"o":"m 453 -15 q 329 7 390 -15 q 217 73 267 28 q 138 186 167 117 q 108 349 108 255 q 138 511 108 442 q 218 624 167 580 q 330 690 268 668 q 456 711 392 711 q 583 690 522 711 q 692 628 644 669 q 767 526 740 588 q 795 381 795 464 q 794 352 795 368 q 790 324 793 336 l 217 324 l 217 413 l 650 413 q 650 418 650 417 q 650 424 650 420 q 624 521 650 480 q 553 584 597 562 q 458 606 509 606 q 383 591 420 606 q 316 547 347 577 q 267 467 285 516 q 249 349 249 418 q 279 207 249 264 q 357 120 309 149 q 460 91 406 91 q 549 107 512 91 q 610 148 587 124 q 642 197 634 173 l 769 133 q 725 77 753 104 q 657 30 697 51 q 566 -3 617 9 q 453 -15 515 -15 m 511 783 l 381 783 l 585 981 l 738 981 l 511 783 z "},"ĕ":{"ha":903,"x_min":108,"x_max":795,"o":"m 453 -15 q 329 7 390 -15 q 217 73 267 28 q 138 186 167 117 q 108 349 108 255 q 138 511 108 442 q 218 624 167 580 q 330 690 268 668 q 456 711 392 711 q 583 690 522 711 q 692 628 644 669 q 767 526 740 588 q 795 381 795 464 q 794 352 795 368 q 790 324 793 336 l 217 324 l 217 413 l 650 413 q 650 418 650 417 q 650 424 650 420 q 624 521 650 480 q 553 584 597 562 q 458 606 509 606 q 383 591 420 606 q 316 547 347 577 q 267 467 285 516 q 249 349 249 418 q 279 207 249 264 q 357 120 309 149 q 460 91 406 91 q 549 107 512 91 q 610 148 587 124 q 642 197 634 173 l 769 133 q 725 77 753 104 q 657 30 697 51 q 566 -3 617 9 q 453 -15 515 -15 m 458 785 q 349 814 392 785 q 287 886 307 842 q 267 972 267 929 l 367 972 q 375 924 367 949 q 403 881 383 899 q 460 863 424 863 q 517 881 497 863 q 544 924 537 899 q 552 972 552 949 l 653 972 q 632 886 653 929 q 569 814 612 842 q 458 785 526 785 z "},"ě":{"ha":903,"x_min":108,"x_max":795,"o":"m 453 -15 q 329 7 390 -15 q 217 73 267 28 q 138 186 167 117 q 108 349 108 255 q 138 511 108 442 q 218 624 167 580 q 330 690 268 668 q 456 711 392 711 q 583 690 522 711 q 692 628 644 669 q 767 526 740 588 q 795 381 795 464 q 794 352 795 368 q 790 324 793 336 l 217 324 l 217 413 l 650 413 q 650 418 650 417 q 650 424 650 420 q 624 521 650 480 q 553 584 597 562 q 458 606 509 606 q 383 591 420 606 q 316 547 347 577 q 267 467 285 516 q 249 349 249 418 q 279 207 249 264 q 357 120 309 149 q 460 91 406 91 q 549 107 512 91 q 610 148 587 124 q 642 197 634 173 l 769 133 q 725 77 753 104 q 657 30 697 51 q 566 -3 617 9 q 453 -15 515 -15 m 217 972 l 340 972 l 460 852 l 578 972 l 702 972 l 506 789 l 413 789 l 217 972 z "},"ȩ":{"ha":903,"x_min":112,"x_max":795,"o":"m 456 -15 q 330 7 391 -15 q 219 74 268 29 q 141 188 170 119 q 112 349 112 256 q 140 510 112 442 q 217 623 169 578 q 327 689 265 667 q 455 711 389 711 q 588 689 526 711 q 696 624 650 667 q 769 520 742 582 q 795 381 795 459 q 794 352 795 368 q 790 324 793 336 l 217 324 l 217 413 l 650 413 q 650 418 650 417 q 650 424 650 420 q 626 515 650 474 q 558 581 602 556 q 457 606 515 606 q 356 579 402 606 q 282 495 310 552 q 253 349 253 439 q 281 208 253 266 q 356 121 309 151 q 463 91 403 91 q 554 109 518 91 q 611 152 590 128 q 642 197 633 177 l 769 133 q 725 82 752 108 q 660 33 698 56 q 571 -2 622 11 q 456 -15 520 -15 m 458 -283 q 417 -281 437 -283 q 377 -276 397 -279 q 342 -269 358 -273 q 310 -260 325 -265 l 343 -186 q 383 -199 363 -193 q 423 -207 402 -204 q 468 -210 444 -210 q 524 -202 500 -210 q 562 -178 549 -194 q 576 -144 576 -163 q 561 -112 576 -120 q 524 -105 546 -105 q 493 -110 509 -105 q 462 -122 476 -115 q 438 -138 447 -130 l 365 -119 l 408 0 l 494 0 l 454 -107 l 444 -93 q 469 -70 452 -81 q 509 -54 486 -60 q 558 -48 533 -48 q 610 -56 585 -48 q 649 -84 634 -65 q 665 -140 665 -104 q 638 -218 665 -186 q 565 -266 612 -250 q 458 -283 518 -283 z "},"ḝ":{"ha":903,"x_min":112,"x_max":795,"o":"m 456 -15 q 330 7 391 -15 q 219 74 268 29 q 141 188 170 119 q 112 349 112 256 q 140 510 112 442 q 217 623 169 578 q 327 689 265 667 q 455 711 389 711 q 588 689 526 711 q 696 624 650 667 q 769 520 742 582 q 795 381 795 459 q 794 352 795 368 q 790 324 793 336 l 217 324 l 217 413 l 650 413 q 650 418 650 417 q 650 424 650 420 q 626 515 650 474 q 558 581 602 556 q 457 606 515 606 q 356 579 402 606 q 282 495 310 552 q 253 349 253 439 q 281 208 253 266 q 356 121 309 151 q 463 91 403 91 q 554 109 518 91 q 611 152 590 128 q 642 197 633 177 l 769 133 q 725 82 752 108 q 660 33 698 56 q 571 -2 622 11 q 456 -15 520 -15 m 458 -283 q 417 -281 437 -283 q 377 -276 397 -279 q 342 -269 358 -273 q 310 -260 325 -265 l 343 -186 q 383 -199 363 -193 q 423 -207 402 -204 q 468 -210 444 -210 q 524 -202 500 -210 q 562 -178 549 -194 q 576 -144 576 -163 q 561 -112 576 -120 q 524 -105 546 -105 q 493 -110 509 -105 q 462 -122 476 -115 q 438 -138 447 -130 l 365 -119 l 408 0 l 494 0 l 454 -107 l 444 -93 q 469 -70 452 -81 q 509 -54 486 -60 q 558 -48 533 -48 q 610 -56 585 -48 q 649 -84 634 -65 q 665 -140 665 -104 q 638 -218 665 -186 q 565 -266 612 -250 q 458 -283 518 -283 m 458 785 q 349 814 392 785 q 287 886 307 842 q 267 972 267 929 l 367 972 q 375 924 367 949 q 403 881 383 899 q 460 863 424 863 q 517 881 497 863 q 544 924 537 899 q 552 972 552 949 l 653 972 q 632 886 653 929 q 569 814 612 842 q 458 785 526 785 z "},"ê":{"ha":903,"x_min":108,"x_max":795,"o":"m 453 -15 q 329 7 390 -15 q 217 73 267 28 q 138 186 167 117 q 108 349 108 255 q 138 511 108 442 q 218 624 167 580 q 330 690 268 668 q 456 711 392 711 q 583 690 522 711 q 692 628 644 669 q 767 526 740 588 q 795 381 795 464 q 794 352 795 368 q 790 324 793 336 l 217 324 l 217 413 l 650 413 q 650 418 650 417 q 650 424 650 420 q 624 521 650 480 q 553 584 597 562 q 458 606 509 606 q 383 591 420 606 q 316 547 347 577 q 267 467 285 516 q 249 349 249 418 q 279 207 249 264 q 357 120 309 149 q 460 91 406 91 q 549 107 512 91 q 610 148 587 124 q 642 197 634 173 l 769 133 q 725 77 753 104 q 657 30 697 51 q 566 -3 617 9 q 453 -15 515 -15 m 217 785 l 413 968 l 506 968 l 702 785 l 578 785 l 460 905 l 340 785 l 217 785 z "},"ế":{"ha":903,"x_min":108,"x_max":806,"o":"m 453 -15 q 329 7 390 -15 q 217 73 267 28 q 138 186 167 117 q 108 349 108 255 q 138 511 108 442 q 218 624 167 580 q 330 690 268 668 q 456 711 392 711 q 583 690 522 711 q 692 628 644 669 q 767 526 740 588 q 795 381 795 464 q 794 352 795 368 q 790 324 793 336 l 217 324 l 217 413 l 650 413 q 650 418 650 417 q 650 424 650 420 q 624 521 650 480 q 553 584 597 562 q 458 606 509 606 q 383 591 420 606 q 316 547 347 577 q 267 467 285 516 q 249 349 249 418 q 279 207 249 264 q 357 120 309 149 q 460 91 406 91 q 549 107 512 91 q 610 148 587 124 q 642 197 634 173 l 769 133 q 725 77 753 104 q 657 30 697 51 q 566 -3 617 9 q 453 -15 515 -15 m 674 926 l 694 1031 l 806 1106 l 791 1002 l 674 926 m 216 785 l 411 968 l 505 968 l 701 785 l 577 785 l 458 905 l 339 785 l 216 785 z "},"ệ":{"ha":903,"x_min":108,"x_max":795,"o":"m 453 -15 q 329 7 390 -15 q 217 73 267 28 q 138 186 167 117 q 108 349 108 255 q 138 511 108 442 q 218 624 167 580 q 330 690 268 668 q 456 711 392 711 q 583 690 522 711 q 692 628 644 669 q 767 526 740 588 q 795 381 795 464 q 794 352 795 368 q 790 324 793 336 l 217 324 l 217 413 l 650 413 q 650 418 650 417 q 650 424 650 420 q 624 521 650 480 q 553 584 597 562 q 458 606 509 606 q 383 591 420 606 q 316 547 347 577 q 267 467 285 516 q 249 349 249 418 q 279 207 249 264 q 357 120 309 149 q 460 91 406 91 q 549 107 512 91 q 610 148 587 124 q 642 197 634 173 l 769 133 q 725 77 753 104 q 657 30 697 51 q 566 -3 617 9 q 453 -15 515 -15 m 378 -81 l 522 -81 l 522 -233 l 378 -233 l 378 -81 m 217 785 l 413 968 l 506 968 l 702 785 l 578 785 l 460 905 l 340 785 l 217 785 z "},"ề":{"ha":903,"x_min":108,"x_max":795,"o":"m 453 -15 q 329 7 390 -15 q 217 73 267 28 q 138 186 167 117 q 108 349 108 255 q 138 511 108 442 q 218 624 167 580 q 330 690 268 668 q 456 711 392 711 q 583 690 522 711 q 692 628 644 669 q 767 526 740 588 q 795 381 795 464 q 794 352 795 368 q 790 324 793 336 l 217 324 l 217 413 l 650 413 q 650 418 650 417 q 650 424 650 420 q 624 521 650 480 q 553 584 597 562 q 458 606 509 606 q 383 591 420 606 q 316 547 347 577 q 267 467 285 516 q 249 349 249 418 q 279 207 249 264 q 357 120 309 149 q 460 91 406 91 q 549 107 512 91 q 610 148 587 124 q 642 197 634 173 l 769 133 q 725 77 753 104 q 657 30 697 51 q 566 -3 617 9 q 453 -15 515 -15 m 701 926 l 583 1002 l 569 1106 l 681 1031 l 701 926 m 192 785 l 387 968 l 481 968 l 676 785 l 553 785 l 434 905 l 315 785 l 192 785 z "},"ể":{"ha":903,"x_min":108,"x_max":862,"o":"m 453 -15 q 329 7 390 -15 q 217 73 267 28 q 138 186 167 117 q 108 349 108 255 q 138 511 108 442 q 218 624 167 580 q 330 690 268 668 q 456 711 392 711 q 583 690 522 711 q 692 628 644 669 q 767 526 740 588 q 795 381 795 464 q 794 352 795 368 q 790 324 793 336 l 217 324 l 217 413 l 650 413 q 650 418 650 417 q 650 424 650 420 q 624 521 650 480 q 553 584 597 562 q 458 606 509 606 q 383 591 420 606 q 316 547 347 577 q 267 467 285 516 q 249 349 249 418 q 279 207 249 264 q 357 120 309 149 q 460 91 406 91 q 549 107 512 91 q 610 148 587 124 q 642 197 634 173 l 769 133 q 725 77 753 104 q 657 30 697 51 q 566 -3 617 9 q 453 -15 515 -15 m 636 923 l 636 1017 q 740 1030 709 1017 q 770 1064 770 1042 q 735 1096 770 1086 q 603 1106 700 1106 l 603 1174 q 740 1164 682 1174 q 830 1129 798 1153 q 862 1065 862 1105 q 846 1018 862 1038 q 807 988 831 999 q 757 972 783 976 q 710 967 731 967 l 710 923 l 636 923 m 218 785 l 413 968 l 507 968 l 703 785 l 579 785 l 460 905 l 341 785 l 218 785 z "},"ễ":{"ha":903,"x_min":108,"x_max":795,"o":"m 453 -15 q 329 7 390 -15 q 217 73 267 28 q 138 186 167 117 q 108 349 108 255 q 138 511 108 442 q 218 624 167 580 q 330 690 268 668 q 456 711 392 711 q 583 690 522 711 q 692 628 644 669 q 767 526 740 588 q 795 381 795 464 q 794 352 795 368 q 790 324 793 336 l 217 324 l 217 413 l 650 413 q 650 418 650 417 q 650 424 650 420 q 624 521 650 480 q 553 584 597 562 q 458 606 509 606 q 383 591 420 606 q 316 547 347 577 q 267 467 285 516 q 249 349 249 418 q 279 207 249 264 q 357 120 309 149 q 460 91 406 91 q 549 107 512 91 q 610 148 587 124 q 642 197 634 173 l 769 133 q 725 77 753 104 q 657 30 697 51 q 566 -3 617 9 q 453 -15 515 -15 m 217 785 l 413 968 l 506 968 l 702 785 l 578 785 l 460 905 l 340 785 l 217 785 m 536 1050 q 483 1063 503 1050 q 444 1091 462 1076 q 415 1113 430 1103 q 381 1122 401 1122 q 328 1098 347 1122 q 301 1057 309 1074 l 240 1108 q 262 1146 244 1122 q 309 1189 279 1169 q 376 1208 338 1208 q 430 1195 408 1208 q 468 1168 451 1183 q 499 1145 484 1155 q 533 1135 514 1135 q 586 1160 567 1135 q 613 1201 606 1185 l 672 1149 q 651 1112 667 1135 q 607 1069 635 1088 q 536 1050 578 1050 z "},"ȅ":{"ha":903,"x_min":108,"x_max":795,"o":"m 453 -15 q 329 7 390 -15 q 217 73 267 28 q 138 186 167 117 q 108 349 108 255 q 138 511 108 442 q 218 624 167 580 q 330 690 268 668 q 456 711 392 711 q 583 690 522 711 q 692 628 644 669 q 767 526 740 588 q 795 381 795 464 q 794 352 795 368 q 790 324 793 336 l 217 324 l 217 413 l 650 413 q 650 418 650 417 q 650 424 650 420 q 624 521 650 480 q 553 584 597 562 q 458 606 509 606 q 383 591 420 606 q 316 547 347 577 q 267 467 285 516 q 249 349 249 418 q 279 207 249 264 q 357 120 309 149 q 460 91 406 91 q 549 107 512 91 q 610 148 587 124 q 642 197 634 173 l 769 133 q 725 77 753 104 q 657 30 697 51 q 566 -3 617 9 q 453 -15 515 -15 m 514 783 l 340 974 l 463 974 l 609 783 l 514 783 m 303 783 l 117 974 l 242 974 l 401 783 l 303 783 z "},"ë":{"ha":903,"x_min":108,"x_max":795,"o":"m 453 -15 q 329 7 390 -15 q 217 73 267 28 q 138 186 167 117 q 108 349 108 255 q 138 511 108 442 q 218 624 167 580 q 330 690 268 668 q 456 711 392 711 q 583 690 522 711 q 692 628 644 669 q 767 526 740 588 q 795 381 795 464 q 794 352 795 368 q 790 324 793 336 l 217 324 l 217 413 l 650 413 q 650 418 650 417 q 650 424 650 420 q 624 521 650 480 q 553 584 597 562 q 458 606 509 606 q 383 591 420 606 q 316 547 347 577 q 267 467 285 516 q 249 349 249 418 q 279 207 249 264 q 357 120 309 149 q 460 91 406 91 q 549 107 512 91 q 610 148 587 124 q 642 197 634 173 l 769 133 q 725 77 753 104 q 657 30 697 51 q 566 -3 617 9 q 453 -15 515 -15 m 226 951 l 370 951 l 370 792 l 226 792 l 226 951 m 548 951 l 692 951 l 692 792 l 548 792 l 548 951 z "},"ė":{"ha":903,"x_min":108,"x_max":795,"o":"m 453 -15 q 329 7 390 -15 q 217 73 267 28 q 138 186 167 117 q 108 349 108 255 q 138 511 108 442 q 218 624 167 580 q 330 690 268 668 q 456 711 392 711 q 583 690 522 711 q 692 628 644 669 q 767 526 740 588 q 795 381 795 464 q 794 352 795 368 q 790 324 793 336 l 217 324 l 217 413 l 650 413 q 650 418 650 417 q 650 424 650 420 q 624 521 650 480 q 553 584 597 562 q 458 606 509 606 q 383 591 420 606 q 316 547 347 577 q 267 467 285 516 q 249 349 249 418 q 279 207 249 264 q 357 120 309 149 q 460 91 406 91 q 549 107 512 91 q 610 148 587 124 q 642 197 634 173 l 769 133 q 725 77 753 104 q 657 30 697 51 q 566 -3 617 9 q 453 -15 515 -15 m 388 984 l 531 984 l 531 826 l 388 826 l 388 984 z "},"ẹ":{"ha":903,"x_min":108,"x_max":795,"o":"m 453 -15 q 329 7 390 -15 q 217 73 267 28 q 138 186 167 117 q 108 349 108 255 q 138 511 108 442 q 218 624 167 580 q 330 690 268 668 q 456 711 392 711 q 583 690 522 711 q 692 628 644 669 q 767 526 740 588 q 795 381 795 464 q 794 352 795 368 q 790 324 793 336 l 217 324 l 217 413 l 650 413 q 650 418 650 417 q 650 424 650 420 q 624 521 650 480 q 553 584 597 562 q 458 606 509 606 q 383 591 420 606 q 316 547 347 577 q 267 467 285 516 q 249 349 249 418 q 279 207 249 264 q 357 120 309 149 q 460 91 406 91 q 549 107 512 91 q 610 148 587 124 q 642 197 634 173 l 769 133 q 725 77 753 104 q 657 30 697 51 q 566 -3 617 9 q 453 -15 515 -15 m 378 -81 l 522 -81 l 522 -233 l 378 -233 l 378 -81 z "},"è":{"ha":903,"x_min":108,"x_max":795,"o":"m 453 -15 q 329 7 390 -15 q 217 73 267 28 q 138 186 167 117 q 108 349 108 255 q 138 511 108 442 q 218 624 167 580 q 330 690 268 668 q 456 711 392 711 q 583 690 522 711 q 692 628 644 669 q 767 526 740 588 q 795 381 795 464 q 794 352 795 368 q 790 324 793 336 l 217 324 l 217 413 l 650 413 q 650 418 650 417 q 650 424 650 420 q 624 521 650 480 q 553 584 597 562 q 458 606 509 606 q 383 591 420 606 q 316 547 347 577 q 267 467 285 516 q 249 349 249 418 q 279 207 249 264 q 357 120 309 149 q 460 91 406 91 q 549 107 512 91 q 610 148 587 124 q 642 197 634 173 l 769 133 q 725 77 753 104 q 657 30 697 51 q 566 -3 617 9 q 453 -15 515 -15 m 394 783 l 167 981 l 319 981 l 524 783 l 394 783 z "},"ẻ":{"ha":903,"x_min":108,"x_max":795,"o":"m 453 -15 q 329 7 390 -15 q 217 73 267 28 q 138 186 167 117 q 108 349 108 255 q 138 511 108 442 q 218 624 167 580 q 330 690 268 668 q 456 711 392 711 q 583 690 522 711 q 692 628 644 669 q 767 526 740 588 q 795 381 795 464 q 794 352 795 368 q 790 324 793 336 l 217 324 l 217 413 l 650 413 q 650 418 650 417 q 650 424 650 420 q 624 521 650 480 q 553 584 597 562 q 458 606 509 606 q 383 591 420 606 q 316 547 347 577 q 267 467 285 516 q 249 349 249 418 q 279 207 249 264 q 357 120 309 149 q 460 91 406 91 q 549 107 512 91 q 610 148 587 124 q 642 197 634 173 l 769 133 q 725 77 753 104 q 657 30 697 51 q 566 -3 617 9 q 453 -15 515 -15 m 415 756 l 415 857 q 493 861 460 857 q 544 875 526 866 q 562 899 562 884 q 541 922 562 914 q 480 933 521 929 q 377 936 439 936 l 377 1007 q 526 998 462 1007 q 626 968 590 990 q 663 906 663 946 q 635 847 663 869 q 570 816 608 825 q 499 806 533 806 l 499 756 l 415 756 z "},"ȇ":{"ha":903,"x_min":108,"x_max":795,"o":"m 453 -15 q 329 7 390 -15 q 217 73 267 28 q 138 186 167 117 q 108 349 108 255 q 138 511 108 442 q 218 624 167 580 q 330 690 268 668 q 456 711 392 711 q 583 690 522 711 q 692 628 644 669 q 767 526 740 588 q 795 381 795 464 q 794 352 795 368 q 790 324 793 336 l 217 324 l 217 413 l 650 413 q 650 418 650 417 q 650 424 650 420 q 624 521 650 480 q 553 584 597 562 q 458 606 509 606 q 383 591 420 606 q 316 547 347 577 q 267 467 285 516 q 249 349 249 418 q 279 207 249 264 q 357 120 309 149 q 460 91 406 91 q 549 107 512 91 q 610 148 587 124 q 642 197 634 173 l 769 133 q 725 77 753 104 q 657 30 697 51 q 566 -3 617 9 q 453 -15 515 -15 m 457 967 q 566 938 524 967 q 629 865 609 908 q 649 778 649 822 l 548 778 q 540 827 548 801 q 512 870 532 852 q 456 888 492 888 q 398 870 418 888 q 371 827 378 852 q 363 778 363 801 l 263 778 q 283 865 263 822 q 347 938 304 908 q 457 967 390 967 z "},"ē":{"ha":903,"x_min":108,"x_max":795,"o":"m 453 -15 q 329 7 390 -15 q 217 73 267 28 q 138 186 167 117 q 108 349 108 255 q 138 511 108 442 q 218 624 167 580 q 330 690 268 668 q 456 711 392 711 q 583 690 522 711 q 692 628 644 669 q 767 526 740 588 q 795 381 795 464 q 794 352 795 368 q 790 324 793 336 l 217 324 l 217 413 l 650 413 q 650 418 650 417 q 650 424 650 420 q 624 521 650 480 q 553 584 597 562 q 458 606 509 606 q 383 591 420 606 q 316 547 347 577 q 267 467 285 516 q 249 349 249 418 q 279 207 249 264 q 357 120 309 149 q 460 91 406 91 q 549 107 512 91 q 610 148 587 124 q 642 197 634 173 l 769 133 q 725 77 753 104 q 657 30 697 51 q 566 -3 617 9 q 453 -15 515 -15 m 242 805 l 242 890 l 678 890 l 678 805 l 242 805 z "},"ḗ":{"ha":903,"x_min":108,"x_max":795,"o":"m 453 -15 q 329 7 390 -15 q 217 73 267 28 q 138 186 167 117 q 108 349 108 255 q 138 511 108 442 q 218 624 167 580 q 330 690 268 668 q 456 711 392 711 q 583 690 522 711 q 692 628 644 669 q 767 526 740 588 q 795 381 795 464 q 794 352 795 368 q 790 324 793 336 l 217 324 l 217 413 l 650 413 q 650 418 650 417 q 650 424 650 420 q 624 521 650 480 q 553 584 597 562 q 458 606 509 606 q 383 591 420 606 q 316 547 347 577 q 267 467 285 516 q 249 349 249 418 q 279 207 249 264 q 357 120 309 149 q 460 91 406 91 q 549 107 512 91 q 610 148 587 124 q 642 197 634 173 l 769 133 q 725 77 753 104 q 657 30 697 51 q 566 -3 617 9 q 453 -15 515 -15 m 242 805 l 242 890 l 678 890 l 678 805 l 242 805 m 512 978 l 382 978 l 586 1176 l 738 1176 l 512 978 z "},"ḕ":{"ha":903,"x_min":108,"x_max":795,"o":"m 453 -15 q 329 7 390 -15 q 217 73 267 28 q 138 186 167 117 q 108 349 108 255 q 138 511 108 442 q 218 624 167 580 q 330 690 268 668 q 456 711 392 711 q 583 690 522 711 q 692 628 644 669 q 767 526 740 588 q 795 381 795 464 q 794 352 795 368 q 790 324 793 336 l 217 324 l 217 413 l 650 413 q 650 418 650 417 q 650 424 650 420 q 624 521 650 480 q 553 584 597 562 q 458 606 509 606 q 383 591 420 606 q 316 547 347 577 q 267 467 285 516 q 249 349 249 418 q 279 207 249 264 q 357 120 309 149 q 460 91 406 91 q 549 107 512 91 q 610 148 587 124 q 642 197 634 173 l 769 133 q 725 77 753 104 q 657 30 697 51 q 566 -3 617 9 q 453 -15 515 -15 m 242 805 l 242 890 l 678 890 l 678 805 l 242 805 m 395 978 l 168 1176 l 320 1176 l 524 978 l 395 978 z "},"ę":{"ha":903,"x_min":112,"x_max":795,"o":"m 456 -15 q 330 7 391 -15 q 219 74 268 29 q 141 188 170 119 q 112 349 112 256 q 140 510 112 442 q 217 623 169 578 q 327 689 265 667 q 455 711 389 711 q 588 689 526 711 q 696 624 650 667 q 769 520 742 582 q 795 381 795 459 q 794 352 795 368 q 790 324 793 336 l 217 324 l 217 413 l 650 413 q 650 418 650 417 q 650 424 650 420 q 626 515 650 474 q 558 581 602 556 q 457 606 515 606 q 356 579 402 606 q 282 495 310 552 q 253 349 253 439 q 281 208 253 266 q 356 121 309 151 q 463 91 403 91 q 554 109 518 91 q 611 152 590 128 q 642 197 633 177 l 769 133 q 725 82 752 108 q 660 33 698 56 q 571 -2 622 11 q 456 -15 520 -15 m 740 -153 l 740 -242 q 689 -252 720 -249 q 624 -256 657 -256 q 547 -244 583 -256 q 489 -206 511 -232 q 467 -136 467 -180 q 482 -64 467 -98 q 519 -3 497 -30 q 563 38 542 23 l 663 38 q 601 -29 629 11 q 574 -108 574 -69 q 585 -142 574 -129 q 614 -161 597 -156 q 650 -166 632 -166 q 683 -164 666 -166 q 716 -159 701 -162 q 740 -153 731 -156 z "},"ẽ":{"ha":903,"x_min":108,"x_max":795,"o":"m 453 -15 q 329 7 390 -15 q 217 73 267 28 q 138 186 167 117 q 108 349 108 255 q 138 511 108 442 q 218 624 167 580 q 330 690 268 668 q 456 711 392 711 q 583 690 522 711 q 692 628 644 669 q 767 526 740 588 q 795 381 795 464 q 794 352 795 368 q 790 324 793 336 l 217 324 l 217 413 l 650 413 q 650 418 650 417 q 650 424 650 420 q 624 521 650 480 q 553 584 597 562 q 458 606 509 606 q 383 591 420 606 q 316 547 347 577 q 267 467 285 516 q 249 349 249 418 q 279 207 249 264 q 357 120 309 149 q 460 91 406 91 q 549 107 512 91 q 610 148 587 124 q 642 197 634 173 l 769 133 q 725 77 753 104 q 657 30 697 51 q 566 -3 617 9 q 453 -15 515 -15 m 535 776 q 482 790 503 776 q 444 817 461 803 q 415 839 429 830 q 381 849 400 849 q 327 824 347 849 q 301 783 308 800 l 240 834 q 261 872 244 848 q 308 915 279 896 q 376 935 338 935 q 429 922 408 935 q 468 894 451 909 q 498 871 483 881 q 533 861 513 861 q 585 886 566 861 q 612 928 605 911 l 671 876 q 651 838 667 861 q 606 795 635 815 q 535 776 578 776 z "},"ə":{"ha":903,"x_min":108,"x_max":795,"o":"m 450 710 q 574 688 513 710 q 685 622 635 666 q 765 508 735 577 q 795 346 795 440 q 765 184 795 252 q 685 71 735 115 q 573 5 635 26 q 447 -17 511 -17 q 319 4 381 -17 q 211 66 258 25 q 135 169 163 107 q 108 313 108 231 q 109 342 108 326 q 113 370 110 358 l 685 370 l 685 282 l 253 282 q 253 276 253 278 q 253 271 253 274 q 279 174 253 215 q 350 111 306 133 q 445 89 394 89 q 519 103 483 89 q 587 148 556 117 q 636 227 617 178 q 654 345 654 276 q 624 488 654 431 q 546 574 594 545 q 442 603 498 603 q 353 587 391 603 q 293 546 316 571 q 260 498 269 522 l 134 561 q 178 617 150 590 q 246 665 206 644 q 337 698 286 685 q 450 710 388 710 z "},"f":{"ha":694,"x_min":51,"x_max":645,"o":"m 232 0 l 232 781 q 257 915 232 862 q 323 998 282 967 q 414 1041 365 1028 q 513 1054 463 1054 q 594 1046 561 1054 q 645 1027 627 1038 l 645 919 q 601 939 628 930 q 531 949 575 949 q 473 941 501 949 q 420 915 444 934 q 383 859 397 896 q 369 762 369 822 l 369 0 l 232 0 m 51 589 l 51 694 l 635 694 l 635 589 l 51 589 z "}}}
